<?xml version="1.0" encoding="iso-8859-1"?>
<!-- Generator: Adobe Illustrator 11 Build 196, SVG Export Plug-In . SVG Version: 6.0.0 Build 78)  -->
<!DOCTYPE svg PUBLIC "-//W3C//DTD SVG 1.0//EN"    "http://www.w3.org/TR/2001/REC-SVG-20010904/DTD/svg10.dtd" [
	<!ENTITY ns_flows "http://ns.adobe.com/Flows/1.0/">
	<!ENTITY ns_svg "http://www.w3.org/2000/svg">
	<!ENTITY ns_xlink "http://www.w3.org/1999/xlink">
]>
<svg  xmlns="&ns_svg;" xmlns:xlink="&ns_xlink;" xmlns:a="http://ns.adobe.com/AdobeSVGViewerExtensions/3.0/"
	 width="98.529" height="100.341" viewBox="0 0 98.529 100.341" style="overflow:visible;enable-background:new 0 0 98.529 100.341"
	 xml:space="preserve">
	<metadata>
<?xpacket begin='﻿' id='W5M0MpCehiHzreSzNTczkc9d'?><x:xmpmeta xmlns:x='adobe:ns:meta/' x:xmptk='XMP toolkit 3.0-29, framework 1.6'>
<rdf:RDF xmlns:rdf='http://www.w3.org/1999/02/22-rdf-syntax-ns#' xmlns:iX='http://ns.adobe.com/iX/1.0/'>

 <rdf:Description rdf:about=''
  xmlns:pdf='http://ns.adobe.com/pdf/1.3/'>
 </rdf:Description>

 <rdf:Description rdf:about=''
  xmlns:photoshop='http://ns.adobe.com/photoshop/1.0/'>
  <photoshop:DateCreated>2004-10-21T00:00:00Z</photoshop:DateCreated>
  <photoshop:City>Peterborough</photoshop:City>
  <photoshop:State>Cambridgeshire</photoshop:State>
  <photoshop:Country>England</photoshop:Country>
 </rdf:Description>

 <rdf:Description rdf:about=''
  xmlns:tiff='http://ns.adobe.com/tiff/1.0/'>
 </rdf:Description>

 <rdf:Description rdf:about=''
  xmlns:xap='http://ns.adobe.com/xap/1.0/'
  xmlns:xapGImg='http://ns.adobe.com/xap/1.0/g/img/'>
  <xap:CreateDate>2004-11-23T20:19:06Z</xap:CreateDate>
  <xap:ModifyDate>2005-05-10T21:52:22Z</xap:ModifyDate>
  <xap:CreatorTool>Illustrator</xap:CreatorTool>
  <xap:Thumbnails>
   <rdf:Alt>
    <rdf:li rdf:parseType='Resource'>
     <xapGImg:format>JPEG</xapGImg:format>
     <xapGImg:width>252</xapGImg:width>
     <xapGImg:height>256</xapGImg:height>
     <xapGImg:image>/9j/4AAQSkZJRgABAgEASABIAAD/7QAsUGhvdG9zaG9wIDMuMAA4QklNA+0AAAAAABAASAAAAAEA&#xA;AQBIAAAAAQAB/+4ADkFkb2JlAGTAAAAAAf/bAIQABgQEBAUEBgUFBgkGBQYJCwgGBggLDAoKCwoK&#xA;DBAMDAwMDAwQDA4PEA8ODBMTFBQTExwbGxscHx8fHx8fHx8fHwEHBwcNDA0YEBAYGhURFRofHx8f&#xA;Hx8fHx8fHx8fHx8fHx8fHx8fHx8fHx8fHx8fHx8fHx8fHx8fHx8fHx8fHx8f/8AAEQgBAAD8AwER&#xA;AAIRAQMRAf/EAaIAAAAHAQEBAQEAAAAAAAAAAAQFAwIGAQAHCAkKCwEAAgIDAQEBAQEAAAAAAAAA&#xA;AQACAwQFBgcICQoLEAACAQMDAgQCBgcDBAIGAnMBAgMRBAAFIRIxQVEGE2EicYEUMpGhBxWxQiPB&#xA;UtHhMxZi8CRygvElQzRTkqKyY3PCNUQnk6OzNhdUZHTD0uIIJoMJChgZhJRFRqS0VtNVKBry4/PE&#xA;1OT0ZXWFlaW1xdXl9WZ2hpamtsbW5vY3R1dnd4eXp7fH1+f3OEhYaHiImKi4yNjo+Ck5SVlpeYmZ&#xA;qbnJ2en5KjpKWmp6ipqqusra6voRAAICAQIDBQUEBQYECAMDbQEAAhEDBCESMUEFURNhIgZxgZEy&#xA;obHwFMHR4SNCFVJicvEzJDRDghaSUyWiY7LCB3PSNeJEgxdUkwgJChgZJjZFGidkdFU38qOzwygp&#xA;0+PzhJSktMTU5PRldYWVpbXF1eX1RlZmdoaWprbG1ub2R1dnd4eXp7fH1+f3OEhYaHiImKi4yNjo&#xA;+DlJWWl5iZmpucnZ6fkqOkpaanqKmqq6ytrq+v/aAAwDAQACEQMRAD8AD5uHXuxV2KuxV2KuxV2K&#xA;uxV2KuxV2KuxV2KuxV2KuxV2KuxV2KuxV2KuxV2KuxV2KuxV2KuxV2KuxV2Kpt/0yn/R/wD8ycj/&#xA;ABfBl0SnJMXYq7FXYq7FXYq7FXYq7FXYq7FXYq7FXYq7FXYq7FXYq7FXYq7FXYq7FXYq7FXYq7FX&#xA;Yq7FXYq7FU2/6ZT/AKP/APmTkf4vgy6JTkmLsVdirsVdirsVdirsVdirsVdirsVdirsVdirsVdir&#xA;sVdirsVdirsVdirsVdirsVdirsVdirsVdiqbf9Mp/wBH/wDzJyP8XwZdEpyTF2Kqck8Ef95Iqf6x&#xA;A/XiSAtIaTW9Hj+3ewA+HqKT9wOQOSPeGXAe5D/4o0EyLGLtWdyFUKrtUnp0ByPjQ70+HLuTC4uY&#xA;YE5SGlegHU/LJzmI82CXSa1JX93GAP8AKqf1UzHOoPQLS0azc13RCPYH+uD8xJNKv6bQROxiPqKp&#xA;KqDsxA2Fe1cmNQFpjk/n+5EhUWXpFdmQvU1+lMqOqPc3jAO9T/x/d/8ALOP+DH/NGP5o9yfADv8A&#xA;H93/AMs4/wCDH/NGP5o9y+AHf4/u/wDlnH/Bj/mjH80e5fADv8f3f/LOP+DH/NGP5o9y+AHf4/u/&#xA;+Wcf8GP+aMfzR7l8AO/x/d/8s4/4Mf8ANGP5o9y+AHf4/u/+Wcf8GP8AmjH80e5fADv8f3f/ACzj&#xA;/gx/zRj+aPcvgBsfmDdD/j1U/wCz/wCbcfzR7l8Ad64fmHcd7JT/ALM/0x/NnuR4HmuH5iSd7Ef8&#xA;jT/zTh/N+S+B5rh+Yp76f/yW/wCbMfzfkvgebv8AlYv/AGr/APkt/wA2Y/m/JfA83f8AKxf+1f8A&#xA;8lv+bMfzfkvgebv+Vi/9q/8A5Lf82Y/m/JfA824PzAaSVUktViQ9XLk0+gLiNV5KcCKbzvbgfCkT&#xA;n3kdf+ZTZP8AMj8f2MfBWnz9ar9u2JHf03DfrVMH5ody+AUTb+etDlIEhlg8S6VH/CFskNTEoOGS&#xA;cWepWF4tbW4SbxCkVHzHUZdGYPItZiRzROSQm3/TKf8AR/8A8ycj/F8GXR4pL5i1yT7V9MKfysU/&#xA;4jTNacsu9zOCPchZL28k/vJ5H/1nY/rOQMieqaCjgS7FWUflfZ293+YWgR3IBtoryO5nDAFfTtv3&#xA;78geo4xmuKss81+YJtf1261J0EUUjkW1ugCrHENkQAbdOvid8tcKRspJPcQW6c5nCL4n+GKACeSW&#xA;SeZbFWoiSOP5gAB+JyPE2jCUdY6jZXqVilVZgCTA/wAL0HcV+FvkpJwiTGWIh13ptld0+sISR+2h&#xA;4uB7Hf8AHEi0QmQgdd/L/XdMsbfVbeJtQ0S8JW21CBCQHBo0UqbmORfA7H9ksN8hwlyhIEWxuWGW&#xA;J+EqNG/8rAqfuOJFMgVuBWR+V/L1lqtvNJJKRLE3Fo6VHEiobYj3zJw4hINOTIYss07yh5Yget1Z&#xA;/Wl8JHm6/KKWH9eWnSjvYeOzDTLb8pUCjUvKkUigUP1c3CH23kupK5A6U97IZwmZ0/8A5x4n4+t5&#xA;UuoiK1KSzKo+fC6Un7sj+Vl5J8cJ3oP5I/kv5o0977S7G8t4Y5WhatxIG5BVbo7S7AOMpnjMTRbI&#xA;yEhspal/zjB+WEKF31bULHYUMlxbcOu5+OEH/hsgytiWqfkX+Utrzp57EZH2VrBcMPmIiCfww0xM&#xA;x3vPvMPlf8ttNivY7PzDqF3ewK/1UHTwkEzgfD+89YlVbx4/RjSiQLBcDJG6ZYwXXqerL6XDjTpv&#xA;Wvj8snCILGUqa1KxhtWjEUvqcwa9NqfLGcQFjK0HkGTsVZJpXkye/iW49YwWz7ozJVmHiBUbfPMi&#xA;GnMt2mWWk/f8v/LzwhUnu4JqbzMYplr/AMYwkJ/4fLDpO4sRn8mHaz5f1DSpaTrzhP8Ad3CVKNXt&#xA;7H2P6sx545R5t0Zg8kuSR43DxsUdd1ZTQj5EZWCyZp5X83SzSpY6i3J3+GC4OxJ/lf59jmbgz3sX&#xA;GyYuoejf9Mp/0f8A/MnMn+L4NXR4Jmpc52Ko3S9NN5I3IlYk+0R1JPYZOEOJjKVM1t/IuiHgbj1u&#xA;JA5iNwHB70JDD8My/wAsCHH8Ys80fyT+V2mWN/rWianqMWs21heJDY6i8BDGe3eFuDRxRgnhI1N6&#xA;+2USwSi2HKCC8x1PU4rGKp+KVv7uP+J9sgTTTCHExS5up7mUyTMWY/cB4AZXbliIHJSxSr2Vle3c&#xA;wjtImll6/B29yeg+nJRiTyQZAc3pWg6XJa2yNqKpcXa9AfiQDsWG3Jvnt7HM3Hp/5zhyIvZOZ7m4&#xA;uGUzSNJwHFAx2VR0VR0VR2AzIAA5MCUh816ZFe6RMxUetbqZYn7jiKkfSMqzw4otmKVF5nmtcxOv&#xA;KV+LHVknkdRbAUuYmcR80JoQrEGjDqNvwyzHMxNhryCwzeTXYHJa1X1IT9h2I3H+xqPxzK/M+TiE&#xA;KTaxdHoqr9BP8cidRJaUW1K9b/dlPkAP4ZE5pd6qsWua1FAbeK/uI7dm5tCkrqhYgAtxBArRRlZN&#xA;802UG7u7FnYsx6sTUn78CFuKuxVRls7Sb+9hR69yor9+NMhIhL7ny3ZyAmEtC3YfaX7jv+OR4WwZ&#xA;j1SO+0q7szWReUfaRd1+nwyJDdGYKEwM2QeUdAGo3f1m4WtnbncHo79Qvy7n+3MjBi4jZ5NWWdDz&#xA;eigACg6ZsHEdiqncW8NxC8EyB4pBxdT0IOAgEUVBp5VrGnPp2ozWjbhG/dse6HdT92avJDhlTnQl&#xA;YtBgkEEGhG4IyDJ9HfoH/kDn+KfrSfVfq36Q4UPL6x6Xo+j4U9fatenvmV+Z+bR4PyfOOYre7FWQ&#xA;+XAPqch7mQj/AIUZk4eTTk5vQ0bkoYdCAfvzPHJxS3iqU6h5e0+8uhPLbRStxoeTSLXf/itkynJg&#xA;EmyGQxR+naH5Jh4/XvLFvd8RRgt5fRcjTqaSGn0ZUdL5tnjoq8sfJTxiPT/KlnYCtfVee6upAfYz&#xA;Pxp7FTko6UDmxlnPRQgt7eBOEESQoTXhGoRa/JQBmQIgcmkknmqYVdiqncqGt5VPQowP0jAeSh49&#xA;modgmGhaRPql8sMa8kX4pdwvw/MkdcnCBlyYTlQZ0miahURRwgkbKqsh6eFDlnBIdHERkfk3zZKv&#xA;KHSLqcHp6MTyHx6IGOROyeErv8D+df8AqX9S/wCkOf8A5owWvAe5Sfyl5qRir6NfKw6qbaYEf8Lh&#xA;teE9ynJ5Z8yRryk0q8Rf5mt5QPxXG0cJU/0HrX/Vvuf+RMn9MVoqL6dqCMVe2lVh1UowI/DFaWSW&#xA;tzGvKSJ0X+ZlIH44oUsVaKhgVYVB2IO4OKpf/gl7u4EkEggtyR6iuDWnf09t/pyUMBkfJvGbbdmV&#xA;lZ29lax21uvGKMUA7nxJ9zmwjEAUGgmzavhQ7FXYqwf8wrYLdWlyBvIjRsf9Qgj/AInmFqxuC5OA&#xA;7EMSzEb30F+lLT/oVX9E+t/uSpT6vRuVP0l9a60p/vP8fXpk/DlzpjxhgV15H0OZKQo9s/Zkctv7&#xA;hy2ZstNE8nGGaTCNZ0i40q9NtMQ4IDRyDYMp2r7dMwsmMxNFyYS4haaeXCPqUg7+of8AiIy7Dya8&#xA;nN6BD/cp/qj9WZ4cUr8VdirsVdirsVdirsVcV5Dj/Nt9+J5KHjWad2DM/wAvoQBczd3+H6Fof+Ns&#xA;y9LzLjZzvTMszWhZ68P+/F+8Y2FpGW+t6jDX6tfzR06+nMy/8RORoFNkJlB5483xbprN23+vM0nX&#xA;/XLYDij3J45d6Oi/M/z3GKLqrGv80UL9P9ZDkfAh3J8WXeik/N7zurVN1E48Ghjp+AGR/LQT40lT&#xA;/lcXnT/fsH/Ikf1x/LQT40lsn5v+dmFFuIU91hT/AI2rj+WgvjSQVx+Z3nmcENqjoD2jjijp9KoD&#xA;khgh3MTll3pFe6xq18xa8vJrgt19SRm/AnJiAHIMTIlCZJDsVdirsVdirFfzBjrpttJ/LNxr/rKT&#xA;/wAa5i6oekN2Dmwqytzc3kFuOs0ipt/lGmYURZpySaD3L0Yv8HejxHpfXeHDtx9ClPuzaV6q8nCv&#xA;b4pTLLFFG0kriONd2diAAPcnJk0xAecebdYg1PUVNvvBAvBH/mNalvlmuz5BI7OZihQVfLhH1aUd&#xA;+f8AAYcPJGTm9Ch/uU/1R+rNgHEKG1u8fSjai44RNeIZIEkYB2QGgfjWoVv2WOx3p0yjLn4TQZCB&#xA;q0KmuTq1TDE6/wArc6f8Ky5UdRJCofMU9QUtbdDv0V26+zu4yHjS70qLa9qRYkNGoJ2UQxUH3qcf&#xA;Fl3oaGtXvMs/CTalCgUfcnDD40u9Uws/M1qjgXmlxTRd/Sllik+hmaVf+Ex8eSdmV/8AOgal5a1S&#xA;/wBHe9i1zT7aS7Gk3UsXGRIV5yelIsfxUQE+PtTH8zIdzZGEZPLD+YydV04g9qz1/wCZYw/mj3M/&#xA;AHewvMRvZ55GUCyU/wAysT/wdP4ZmaXm4mb6kx1iQm4RB+wtfpOHUHdrDHJfLumuPhVoz4qxP/Eq&#xA;5i8IbRlkl1x5cuoT6ltIJeJqFPwtt+BwcLYMwPNL5bq9VikpIZdirKKj7xjxFsACl9YmpQNxH+SA&#xA;v6qYLKaa9eb/AH433nGytLheXgFBPIAOg5t/XHiK0GxfXoNRcSV/12/rh4j3rQX/AKU1P/lrm/5G&#xA;P/XHjl3o4R3Nrq2qKareTg+Ikcfxw8cu8rwjuVodS8wTGkV3dyH/ACZJD+o4+JLvKDGI7kbEfN1N&#xA;ri4AP8039WyXHPvLAmDUk/m+MVae4I/yZOX/ABEnHxJ95UGCG/xFr6fAbyUEdQx3/HB40+9n4ce5&#xA;l3knU7u+tbn61K00kbijN1AYdPwzM00zIG3HzRAOzvPy10WM/wAs6H/hWH8cdV9PxXB9TFvKMIl8&#xA;wWgPRSzn/YoSPxzFwC5hvyn0l7H/ANMp/wBH/wDzJzYfxfBxejwu5v726I+s3Ek1OnqMWp8qnNWZ&#xA;E8y5oAHJQyKU+8tn91OPBlP3g5kYerVkeqaG+mWkE+sasnqaZpFt9auIenrMCqQwV/4sldV+Vcys&#xA;0+GLRjjcnjvmDXtS1/WLrVtSk9W7un5OeiqOiog/ZRFoqjsM1rmKEGp39uAIpmCjYKfiA+hqjDbE&#xA;wBVx5g1cdJh9McZ/WuNlHhx7mv09qpNfX/4RP+aceIo8KKpH5i1JWqxRx/Ky7f8AC0x4ivhRVR5o&#xA;vh1hhPzD/wAHw8RR4MW4/NeoxyCREiVlNRQN/FjjxL4ISbItrsVZ95IBFjHUdUen/Iw5maXm4eX6&#xA;kRqLcryU+BA+4UyGU+osEI8kcalnYIo6sxoPxytICGOraaDQ3CfQa/qwWGXBLuQl/Jot7HxedFkH&#xA;2JB1H9mA0WcRKPRjUqcJGTkG4mnJTUH3GQcgFbil2KuxVGWWk3l3QovGP/fjbD6PHCAwlkAT608v&#xA;2UABkHryeLfZ/wCB/rkhFollJTJVVVCqAFHQDYZJqbxV2KoS/wBNt7yMiQUkA+CQdR/UYCGcZkN+&#xA;RUktr7ULSTZ+KN8wpIqP+CzI0vMhnmNgFG+fmI0WID9q4UH/AIBz/DLNV9PxRg5pB5FWuuV/lic/&#xA;qH8cx9N9Tbm+l61/0yn/AEf/APMnM7+L4ON0eCZqXOdiqdeWjvcDxCH9eX4erVkZ7rtlqk/liD0Y&#xA;WbS2u4m1CcU4KYIyYo2qa/vDKdv8n2y3U9A1QNAliut6eby2qgrPFunuO65jkLjnR3YllblOxV2K&#xA;uxV2KuxV2KuxV6J5QQrplka/bgkYf9JEg/hmXpebiZvqavP965v9c/ryGT6i1sT8yzu14sVfgRAa&#xA;e575TJycI2SjItzsVdirsVdirsVTI+YNS24sqgbUCin45LiLX4UXL5h1MGpdW9io/hTHiK+FFF2/&#xA;mhqgXEIp3aM/wP8AXHiYHD3Jza3ttdJygcNTqvQj5jJAtMokc1fCxdiqM0W3h+vyXG4m9Lh12K8g&#xA;dx88yNPzKSdqUPPyV0COT+W6jX/go5T/AMa5LVfSPe2YOaQeQhXW3PhA5/4ZRlGl+pszfS9Y/wCm&#xA;U/6P/wDmTmd/F8HH6PBM1LnOxVN/LZ/0iUeKA/ccuw82vI9W1G4kX8vVgFfTl1KN3I6VS2YAH/gs&#xA;u1HMe5xunxYflDFj+u6Qatd261B3mQf8SH8chIORiydCkWRb3Yq7FXAFiFAqTsAPHFWSaf5et0iD&#xA;3Y9SVtylSFX2265MRcaeU9Gr/wAuwNGXtPgkG/pkkq339MTFY5j1Y4QQaHYjqMg5L0byi/LS7EVH&#xA;w28g/wCnmQ7/AH5l6XmXFzc29TjKXj+DUYfTgzCpNTDfMi01EH+aNT+JH8Mx5OVh5JVkW12KuxV2&#xA;KuxV2KuxV2KuxVfDNLDIJImKOvQjFBFsr0nVEvYiGos6fbUdx4jLAbcXJDhR+FrRukml4PdSP45d&#xA;g+pSq+dYEk8nXMjfahvLVkPzSZSPlvk9XyDdg5linkH/AI7Uv/MO3/E0ynS/UzzfS9X/AOmU/wCj&#xA;/wD5k5nfxfBx+jwTNS5zsVTPy8aXzDxjI/EHLcPNhk5PcNE0Qa/5I1jTbZlbVbVrbULG15D1JliS&#xA;RJhGv2moj9u/HL9T0ceMbBec5Q1uxVItV8v8iZrMUJ3aHp/wP9MiYt8MvQpA6OjFXUqw6qRQjIOQ&#xA;1iqfaBpTAi8nWn++VP8AxL+mSiGjLPoE/wAm47sVYPdur3czr9lpGK/IknKi50eTN/I0ivZBRWsY&#xA;ZT8+fL/jbMvS8y42bmidc1nSY7o2s8hiuYgCGKkqQwrSq1yeeUSa6sI4yRYYf5hnt554pIZFkHAg&#xA;8TWlDX+OYcnIxAgbpVkW12KuxV2KuxV2KuxV2KuxV2KqtpcyW1wk0f2lO48R3GIKJRsUzWCZJoUl&#xA;Q1RwCPpy1wiKTDSRW7HsD+rLsH1MSiPOJH+C74V3N1akD5CXJ6vkG/BzLEfIX/Haf/jA/wDxJcp0&#xA;31tmb6Xq/wD0yn/R/wD8yczv4vg43R4Jmpc52KphoJpqKDxVh+FcsxfUwnyZX5ynu7S30y/tJ3tr&#xA;m3f91NEzJIrMoIZXUgj7PbMjVcg1YOZSv/G097IZNXjEty28l7CqrJIadZEHFGY/zDiepbkcxRJn&#xA;PEDyTa0KXqF7JhcqoLOIqllUdSybOo9yKZIFolAh2FgpT2ttOKTRrJ4EjcfI40kSI5KMeladG3JI&#xA;F5DoTv8ArrgpkZk9UXhYOxVK9d1Jba3MKH9/KKD/ACVPU5GRbcULNsWyDlM48g/7zSfNv+Ncy9Lz&#xA;Li5uaR+dP+Ugn/1Y/wDiAyvUfWW3D9KR5Q2uxV2KuxV2KuxV2KuxV2KuxV2KuxVkflm65wSW7HeM&#xA;8k/1W6/jk4lxs0d7ZRpH+9R/1TmRg+poLXnSQjy1cRdmkiav+qxH/G2T1fIN+DmxjyEf9zb+8D/8&#xA;SXKNN9bZm+l6x/0yn/R//wAycz/4vg43R4Jmpc52KpjoEMsmpJ6alvTV3enZQpqcnj+pjPkyfz2T&#xA;+ibIdjID9yHMrVcg04OZYPmE5C6OSSKRZInKSIQyOpIYEdCCOmKsr038ydZhpHq1ta69B+0L+Mme&#xA;h6/6VEYrivhycgeGG2JgCn0fmj8s9Sj/AHsGo+Xrs/ylNQtK/T6E61/2WHiazhHRDXJ0pavaatZ3&#xA;kAFRIshhPyMdwIZK/JT88lxNRxEIX63a8eXrR8fHkKfrw2w4Sl1/5gtoVK25E0vYj7I+nv8ARkTJ&#xA;sjiJ5sallkmkaSRizsasxyDkgUtxSzjyD/vNJ82/41zL0vMuLm5pH50/5SCf/Vj/AOIDK9R9ZbcP&#xA;0pHlDa7FXYq7FXYq7FXYq7FXYq7FXYq7FUx0Cb09SQV2kBQ/dUfiMMebXlFxZ1pH+9R/1TmVg+pw&#xA;yo+dif0JIOxKk/Q65PV8g34OaRfl4qnV7okVK2rFfY+rGP45Rp/rbM30vU/+mU/6P/8AmTmf/F8H&#xA;G6PBM1LnOxVkPkmEyX161aelZTPTxqVT/jbJ4/qYz5Jr58r+jrEdqkn/AIED+OZWq5BowcywnMJy&#xA;XYq7FXYq7FXYq7FXYq7FWceQf95pPm3/ABrmXpeZcXNzSPzp/wApBP8A6sf/ABAZXqPrLbh+lI8o&#xA;bXYq7FXYq7FXYq7FXYq7FXYq7FXYqiNPNL+2NaD1Ur8uQwx5sZci9C0n/er6MysH1OCUF5/ZhpsI&#xA;BIDSUYDuKV3yzVcg3YOaWfl0K6ref8wbf8nosxtP9Ybsv0l6j/0yn/R//wAyc2H8XwcXo8EzUuc7&#xA;FWffk7pcOpatr0EtaR6HezKw34tEY2B/hk8f1BjPkVPz4lNPtx/JX9aDMvVDYNGHmwXMFyXYq7FX&#xA;Yq7FXYq7FXYq7FWceQf95pPm3/GuZel5lxc3NI/On/KQT/6sf/EBleo+stuH6UjyhtdirsVdirsV&#xA;dirsVdirsVdirsVdiqtZf72Qf8ZE/wCJDJR5hB5PRdNHG8YeG345k4vqcAoPz4AdMj9m2+8ZZqvp&#xA;bsPNC/lRbPPrGqFSB6OmTytXuBJENvvzFwfWG/J9Jejf9Mp/0f8A/MnNj/F8HE6PBM1LnOxV6n+Q&#xA;CldS82zn7C+XLyM+PKSSLj/xHJ4vqHvYz5FL/PUJfRDIBvFIpJ78TtT7yMzdV9LjYfqeeZr3Ldir&#xA;sVdirsVdirsVdirsVZx5B/3mk+bf8a5l6XmXFzc0j86f8pDP/qx/8QGV6j6y24fpSqbT72GISyws&#xA;kZ7n38fDKaZiQKhgZOxV2KuxV2KuxV2KuxV2KuxV2KonSgTqdmAKkzxgD/ZjJQ+oMZci9EsxTUJR&#xA;4Mf+JZkw+v4uCUF56/45Q+f/ABsuW6n6W3DzX/knF6mt66tOVNDvGp/qNG1fopmHi+oORP6Szj/p&#xA;lP8Ao/8A+ZObL+L4OJ0eCZqXOdir1r8golMHnSap5JozIB2o7gn/AIhlmL6gwn9JQHnFQfLl2f5f&#xA;TI/5GqP45m6n6HGw/U80zXOY7FXYq7FXYq7FXYq7FXYqzjyD/vNJ82/41zL0vMuLm5q2saLH+mf0&#xA;lI4bmAEip0KADkTXHUQ9VsRP00pXMKzwSQt0dSPvyliDRYNlTnOxV2KuxV2KuxV2KuxV2KuxV2Ko&#xA;/QE563YjwnjO3+SwP8MsxfUGM/pLP7X/AI6U3+u3/EsyI/X8XBKC88gnSh8/+NlyzU/S24eaM/IC&#xA;L1fNGtRb/vNBv1267hBtmDD6g5MuRZd/0yn/AEf/APMnNp/F8HD6PBM1LnOxV7J/zj+sf6D8+SMB&#xA;yXTYlVj4MZdvpIGWYvqDCf0lKfNq8vL14PZD9zqcz8/0FxcX1B5jmsc12KuxV2KuxV2KuxV2KuxV&#xA;nHkH/eaT5t/xrmXpeZcXNzTXWW/fovgtfvJ/pktQd2oJfmOrA3ILsR0JOVOeGsVdirsVdirsVdir&#xA;sVdirsVdiqbeU4+fmGzHgzN/wKMf4ZbgHrDXl+ks3szXUZT4sf8AiWXQ+v4uGUP51idtHeQD4I/t&#xA;n/WZQPxy7Uj0tuE7ph/zjcUPn27hZuJn0q7jX5ngf1A5r483KLJv+mU/6P8A/mTm1/i+DhdHgmal&#xA;zm1VmrxFaCpp4DFXtH5CAf4M/MM03FvYAH5m4y3D9YYZPpKV+YIw+iXyntC7bf5I5fwzPzfSXEx/&#xA;UHlWatznYq7FXYq7FXYq7FXYq7FWceQf95pPm3/GuZel5lxc3NMtXNbv5KMc/wBTUEFlKsFlt7iL&#xA;+9ieP/WUj9eVOcCCsxS7FXYqnPmDRxp5QKtB8Kk+JMSV/wCGDZdlx8LXCdpNlLY7FXYq7FXYq7FU&#xA;/wDI8fLXkb+SN2/Dj/HMjTD1tWb6WW2BreufEk/jk8f1uIW/NylvLt4B4IfukU5kZ/oLPF9Qd/zj&#xA;rKIvzOs2JoGhkTpX+8KpT6eVM1ocwsx9F/8ADfo/t/pHh7V9KmbS/V8HC6PBpbS5iJ5xsAOppUfe&#xA;Ns1ZiXNtYZGKBBsvcDufE+ONpe3fkNGg/L3z9IB8bJaKT7KJSP8AiRyzD9YYZPpKUawpbSb1R1a3&#xA;lH3oc2OT6T7nDhzDybNS57sVdirsVdirsVdiqN0fTG1O/SzWQRFwx5kV+ypPTbJ44cRpjKVC0HIj&#xA;RyNG4oyEqw9xscgQyZv5B/3mk+bf8a5l6XmXFzc0x1b/AHsP+qMc/wBTUEHlKtEAggioPUHFUo1T&#xA;QYZUaW1UJKNzGPst9HY5ExboZa5saIpseuQcldG5jkVwASpDAHoaGu+IKo3VtbvtUkV7kgcRxCpU&#xA;LsSakEnffLMmQy5sYwEeSAytk7FXYq7FXYq7FWUfl+n+5K5l/kh4/wDBMD/xrmVpeZaM/JkWlmtz&#xA;X/Prji+pxiq+a/8AlH7z/VX/AImMyc/0Fni+oJZ+R901v+ZGkkEASzRRMT4PPGNvn0zXRcwvUfQT&#xA;6v6FTw/TfCvelKZsb+5w/wBaWeYba2stWnjsmS40q5C3NiSqyQyW06iWI8XBVhxbuOuDGBOINJlc&#xA;S8s85eXYrKQX1mnC1lbjJFUkI532rU8W/D7sxc+Hh3HJvxZL2el/kP8A+S68+f6tt+qTIYfrDLJ9&#xA;JS64iE1vLEQSJEZCB1+IUzZS5Fw483j2ahz3Yq7FXYq7FXYq7FU68mV/xHagHqJa/REx/hl2A+sN&#xA;eX6So+aLb6vr12gFFZ/UH/PQBj+JwZhUynGbiGSeQf8AeaT5t/xrl2l5lozc0y1cUu/moxz/AFNQ&#xA;QWUq7FXYqw7WYlj1OdV6VDf8EAx/XlZ5uZjNxChaLG91CsgrGzqHFafCSK74x5sjyV9Y0yXTdQlt&#xA;ZNwprG/8yH7JyWSHCaRCVi0HkGTsVdirsVdirsVZf5CXjDqUvgqAfc5OZem5SLj5+idaX/vT/n45&#xA;HF9TjlW81/8AKP3n+qv/ABMZlZ/oLPF9QYz+V9y1v590SVSFAvICxbpRZVbf6VzXw5uXJ7h6Uf6R&#xA;9Kn7v/EfHj7cqUzO6f5rjdfi8s8oazfy6ZDpGoRSq1jyFlLIrAGF2LmKpA+w5Zl/1j4ZVpZEbM84&#xA;6plrVqt1pN3ARUvE3Ef5Sjkv/DAZk5I3EhpgaKdfkP8A+S68+f6tt+qTNfh+sOXk+koWEAyoD0LA&#xA;Gu3fNmXCDxfNO7B2KuxV2KuxV2KuxVM/LEjp5gsOAqzzLEN6f3p9P/jbJ4zUgxmNimfn6Hhq8Ug6&#xA;SQivzViP1Uy7VD1NeA7Jl5B/3mk+bf8AGuS0vMtebmmmsD/Sl90H6zh1H1NQQGUK7FXYqwzVJxPq&#xA;E8i7qWoD4hRxH6srLmwFBC4GSY6jrdxqNtDHdIrTwbJcjZip7MOhyyeQyG7CMKOyXZWzdirsVdir&#xA;sVdirNPJa8dEv5P5n4V+Sj/mrMvD9BcbPzCa6X/vT/n45HF9TQVbzX/yj95/qr/xMZlZ/oLPF9QY&#xA;l+XdtcXXnXSLa24m4muEWEOeKl61AJ96ZroGi5chYe9f9Lb/AMGX/jfM/p/muN1+LCMvanEAih6Y&#xA;qivyIkI8jfmFb02ijs25eJYzj/jTNZh+sObk+koXNm4TyfXbX6preoWlKfV7maKlKU4SFenbpmnd&#xA;ggsVdirsVdirsVdiqa+ViF8xaaxpRbqBt+nwyqd8MUFPPzFj4y2LHZiJVI7/AAlf65l6vo0YOqv5&#xA;B/3mk+bf8a4NLzLHNzTbWh++jP8Ak/xyWo5hqCXZjq7FUs1vUhawGJD+/lFB/kr3b+mRJbccLLFc&#xA;g5TsVXSRmMhW+1+0vcex98JCrcCuxV2KuxV2KuxVm3lUBfLE5HV5z+pB/DMvH/dH3uLm+pM9L/3p&#xA;+79eRxfU0lEeZxXQL3/U/URmXm+gs8f1BiX5aXH1f8xPLMtQANUswxboFadFY/cc1bmveP8Apbf+&#xA;DL/xvmx6f5ridfiwjL2p2Kt/kbMR5e/MKGo4va2zkd6pJKP+N81mL6w5k/pWSf3bfI5sy4bzTzkw&#xA;fzXq04+zc3Utwnb4Z2Mq9fZ81Bdgk+BXYq7FXYq7FXYqj9CFdThHvX7jXJRQWYfmtEsd0qoKRx3M&#xA;6KPAV2G/yzK1P0how8yoeQf95pPm3/GuDS8yxzc041sfFCfZv4ZPU9GkJTJLFEvKR1RfFiAPxzGZ&#xA;AWlF/wCY4UUpaD1JP9+EUUfLxyJk2xwnqx6WWSWRpJGLu25Y9cg5AFLcUro3ZG5L9odD4HxHviCq&#xA;3FXYq7FXYq7FXYq7FWb+XjTyun+VO3+f4ZlD+7+LiZfqTLTP96Pu/WMGL6moorzIvLQr0daxmn35&#xA;l5vpLPH9QYD5SmMHmrRpgORivrZ+PjxmU0zVua+gfXP1r6xTf/EPqce1a1pmyrb/ADXDv72HZc1u&#xA;xVB/k5P6dx55tTQM+mO9O/7u6Rdv+Rma3H/efFzJfQipP7tvkf1Zsi4byzXpXk1SQupV0SKMqeo9&#xA;OJU/41zUy5ueOSX5FLsVdirsVdirsVTTyzGZdZt4x9pyVFfEjbJQYyZd+azq83Nd1a7mIPsSTmVq&#xA;fpDTh5lC+Qf95pPm3/GuDS8yxzc0b5zDfosleoB6fNcnquQYYvqedEkmp3OYLmuxV2KuxVMtF0C9&#xA;1aVlgokUdPUmb7Ir226nLMeIz5MJzEU1vPIOpRRl7eZLgjqlODH5VqPxy6WlkOTAZwxuaGaGVopk&#xA;aORDRkYUIPyOYxFc24G1mBXYq7FXYq7FWaaC3/OuQL4zSH7v9vMgH92Pe4mX6k003/ej7v8AiQw4&#xA;vqaijtdXlpNyvWqU+8jMzL9JZQ5vOvLf/KRaX/zFwf8AJ1c1TnPcfrP+4H6zv/x0/Up3/u+WbWt/&#xA;g4N7fFIsmxdiqT+RnOn+d/MVufh+vabdKvuGaO4/5l5gVWX4uVdwTjM9xXm3nq5F1538w3I3E+pX&#xA;kgr4NO5zUF2ASPArsVdirsVdirsVTfylL6PmCzmpX03D0PfjvlmIXJhPkyH8wiPqlmO5kY0+S5la&#xA;vkGnBzKl+X0xYXUVNowGB8eZ/wCbcr0p3Kc8erIPMNoLnR7pQtZFiZo/GoFafTTMrNC4lpgaIeWZ&#xA;q3OV9PgjuL+2gkJEc0qRuRsaMwByUBZARI0Gda95b0WLR7mSK3WKSGMukik1qo2rXrXM7LhiInZx&#xA;YZDbz7Ne5b0rybbpFoEDAfFMXkc+J5ED8FGbLTioBw8p9Sd5c1pZrWgWWqw8ZV4TqP3c6j4l+fiP&#xA;bK8mISDOEzF5zqmlXmmXJguVoeqOPsuPFTmunAxNFy4yBGyDyDJ2KuxV2Kss8uSctGVf5J5PxVDl&#xA;wPpDi5uaeab/AL0fd/xIZPF9TSUx1YV0+YHoeI/4YZm5OSY83nHlqi+Y9LLD4VvICwPgJFJr9Gau&#xA;IshzpHZ7T/0yn/R//wAyc2n8XwcLolOSYuxVBiw4a/aarGeLRxTwXA/mSWF0X7mf/OmVTx3ISZxn&#xA;QIRmWsHlnmSOSPX7/wBT7bzvIf8AnoeY/Bs1eUVIudA2AluVsnYq7FXYq7FXYqzLyVoIe3fUZzQT&#xA;DhbgEVorfE3Q91oPpzM0+L+IuPmn0X/mJ/c2P+tJ+pcOr5BGDqo/l3/fX3+rH+tshpfqLLPyZtmc&#xA;4zzzzN5XuLKeS6tYzJYueVF3MdeoI/l8DmvzYTE2OTlY8l7Hmx3MduRVxqupXEPoz3UssW3wMxI2&#xA;6dckZyIoliIgLtJsIr+9S2kuFtg+yuwrU/yjpucOOPEaullKhb0/S7BbCwhs1cyLECA5ABNST2+e&#xA;bOEeEU4UpWbRWSQ7FUJqel2mpWrW9ynJTujD7St4qcjOAkKKYyIOzzXWtEvNKufSmHKJv7qYD4WH&#xA;8D4jNbkxmJ3cyExJL8rZuxV2Ksk8ryA2s0fdZOX/AAQA/wCNcnHk42Ybsl0v/ej7v1jLsX1NBTe6&#xA;gE9vJCTTmpUHwJGx+jM6QsKDRYD5ItGl8wRSOpKW6ytL/kn02VCf+ejKM12GNyDmZD6S9Z/6ZT/o&#xA;/wD+ZObD+L4OL0SnJMXYq7FXYqw/zvoM8zrqNqhkIXjcIoqaDo9PwOYmpxE+oN+GfQsKzCcl2Kux&#xA;V2KuxV2KvQfIc8smjNG/2IZWWM+xAYj72ObDSn0uJmG6A/MUiunjv++2/wCAyvV9GeDqs/Lv++vv&#xA;9WP9bZHS/UU5+TLNSvHs7Ca6SL1jCvP0weNQOu9D0G+Zk5ULceIs0w2f8wNSbaC3ijH+Vyc/rX9W&#xA;YZ1UugcgYAxq4neeeSdwA8jFmCigqd9hmMTZtuApTwJdirN/Knmv1eGn6g/737ME7fteCsfHwPfM&#xA;3BnvYuNlxdQy7MtodirsVUbuztryBoLmMSxN1U/rHgcEogiikEjkw7UvIMylpNPnDJ19KWoYewZQ&#xA;a/dmHPS9zfHP3pE/l7WEYq1uQR4so/WcxjAhs8WK39A6r/vj/h0/rg4SvixTXQLC/tZZVmi4rIBQ&#xA;gqd1PSgJ8clEFqyyB5Mu0+yljAlcUZiKL3A98y8eIjdoKZ5lKkOj6fc6Zrl+/p0tdR5pDIRseJjm&#xA;cL/qkgZjQhWQt0pXEM0/6ZT/AKP/APmTl/8AF8GvolOSYuxVJb7y79a1u31T6xw9Dh+54VrwJP2u&#xA;QpWvhlMsNyErbBkqNJ1lzW7FUr1Hy1o1+S80ASU7mWP4Gr702P0jK54Yy6M45CEhufy8Xc2t4R/K&#xA;kq1+9lI/4jmPLSdxbRn7wgJfIWtIpKvBJ4KrMCf+CUD8crOmkzGaKEPk7zGDT6pX3EkX/NWR/Lz7&#xA;k+LHvXxeS/MLvxaBYh/M8iEf8KWOEaefcvjRTOy/L6cvW9ukCA/ZhBYkf6zBafccsjpT1LCWfuZh&#xA;Z2dtZ2yW9ugSJBRVH6z75mRiAKDjk2w/8xP76x/1ZP1rmJq+Yb8HVR/L7/jp3P8Axh/43GR0v1FO&#xA;fkztlVlKsAVIoQdwQcznGYVrHkSYSNLpjBo2Nfq7mhHsrHYj55hZNKf4XIhm70ik8t67GaNZSk/5&#xA;I5D71rlBwz7m3xI97k8t665oLKUf6w4/rpiMM+5fEj3o238j67LT1FjgH+W4P/EOWWDTTLE5opvZ&#xA;/l9ApDXd0z+KRAL/AMMeX6stjpR1LWc/cyyGIRRJECzBAFDMeTGniT1zLApoJX4q7FXYq7FWiARQ&#xA;io8Diqmba3PWJD/sRkeAdyr1jjT7KhfkAMkAAq7FXYq2XcoqEkopLKvYFgASPnxGNKmv/TKf9H//&#xA;ADJyP8XwZdERZeQ/ON5T0dIuADShlX0Rv7y8BkTmiOqjHI9E+svyY84T0M5trQdxJIWP/JNXH45W&#xA;dTFmMMkysvyTnmlKy6kViQlZJRAVBI/33yYFt+poB4V7VnV9wZjB5tX35GaslTY6lBOOwmR4T/wv&#xA;q5IasdQg4Cx++/KzzvaVP1D6wg/bgkR6/Jah/wAMsGogerA4pJLJ5Y8yROUk0q8Vh1Bgk/5pyzxI&#xA;97DhPcs/w75g/wCrZd/8iJP+aceOPevCe53+HfMH/Vsu/wDkRJ/zTjxx714T3O/w75g/6tl3/wAi&#xA;JP8AmnHjj3rwnud/h3zB/wBWy7/5ESf8048ce9eE9zv8O+YP+rZd/wDIiT/mnHjj3rwnud/h3zB/&#xA;1bLv/kRJ/wA048ce9eE9zDvPvlDzTPcWbwaPfSkI4YJbTNTcUrRe+YeqIJFORhFBS8ieUfNcGo3B&#xA;m0W/iBhoC9tMoJ5DxXBpiATacwsM2/w75g/6tl3/AMiJP+aczeOPe43Ce53+HfMH/Vsu/wDkRJ/z&#xA;Tjxx714T3O/w75g/6tl3/wAiJP8AmnHjj3rwnud/h3zB/wBWy7/5ESf8048ce9eE9zv8O+YP+rZd&#xA;/wDIiT/mnHjj3rwnud/h3zB/1bLv/kRJ/wA048ce9eE9zv8ADvmD/q2Xf/IiT/mnHjj3rwnud/h3&#xA;zB/1bLv/AJESf8048ce9eE9zv8O+YP8Aq2Xf/IiT/mnHjj3rwnud/h3zB/1bLv8A5ESf8048ce9e&#xA;E9zv8O+YP+rZd/8AIiT/AJpx44968J7nf4d8wf8AVsu/+REn/NOPHHvXhPcoy6TqsNfWs546bHnG&#xA;60+8YeId60UKQVJBFCNiD1BwoXRxSSuEjQu56KoJP3DFWTeXvy480azOg+qPZWhI53VypRQviqtR&#xA;n+j7xlU88Ys44yUs/Lvyb5t82W2rPd2T6Rc2HoG2iu4ZYln9X1OdGcDdPTHY9d6ZRHVd4bZYO5Pv&#xA;8DebP0T+iv0bN9c+vcuNBw4+lTn6leHGveuXeLG7vo18Bqn/2Q==</xapGImg:image>
    </rdf:li>
   </rdf:Alt>
  </xap:Thumbnails>
 </rdf:Description>

 <rdf:Description rdf:about=''
  xmlns:xapRights='http://ns.adobe.com/xap/1.0/rights/'>
  <xapRights:Marked>True</xapRights:Marked>
  <xapRights:WebStatement>http://creativecommons.org/licenses/by-sa/2.0/</xapRights:WebStatement>
 </rdf:Description>

 <rdf:Description rdf:about=''
  xmlns:dc='http://purl.org/dc/elements/1.1/'>
  <dc:rights>
   <rdf:Alt>
    <rdf:li xml:lang='x-default'>This work is licensed to the public under the Creative Commons Attribution-ShareAlike License.</rdf:li>
   </rdf:Alt>
  </dc:rights>
  <dc:description>
   <rdf:Alt>
    <rdf:li xml:lang='x-default'>Prepararatory work for the series &quot;Canto&quot;.&#xD;Not part of the finished series.&#xD;http://www.robmyers.org/art/Canto&#xD;Contains elements from &quot;Remix Broad Street&quot; by Tom Chance.&#xD;http://www.remixreading.org/node/213&#xD;</rdf:li>
   </rdf:Alt>
  </dc:description>
  <dc:title>
   <rdf:Alt>
    <rdf:li xml:lang='x-default'>a</rdf:li>
   </rdf:Alt>
  </dc:title>
  <dc:creator>
   <rdf:Seq>
    <rdf:li>Rob Myers, Tom Chance</rdf:li>
   </rdf:Seq>
  </dc:creator>
  <dc:subject>
   <rdf:Bag>
    <rdf:li>Abstract digital art</rdf:li>
   </rdf:Bag>
  </dc:subject>
  <dc:format>image/svg+xml</dc:format>
 </rdf:Description>

 <rdf:Description rdf:about=''
  xmlns:cc='http://web.resource.org/cc/'>
  <cc:license>http://creativecommons.org/licenses/by-sa/2.0/</cc:license>
 </rdf:Description>

</rdf:RDF>
</x:xmpmeta>
                                                                                                                                                                                                                                                                                                                                                                                                                                                                                                                                                                                                                                                                                                                                                                                                                                                                                                                                                                                                                                                                                                                                                                                                                                                                                                                                                                                                                                                                                                                                                                                                                                                                                                                                                                                                                                                                                                                                                                                                                                                                                                                                <?xpacket end='w'?>
			</metadata>
		<g id="Layer_1">
			<rect style="fill:#FFFFFF;" width="98.529" height="100"/> 
			<polygon style="fill:#667DA0;" points="0,0 0,13.235 69.118,10.904 93.34,13.035 98.529,17.646 98.529,0 "/>
			<polygon style="fill:#53637B;" points="29.412,10.294 29.412,11.029 67.647,11.029 55.147,10.294 "/>
			<path style="fill:#4A6464;" d="M15.441,19.853h0.735c3.015-2.844,11.387-9.12,12.5-2.206l3.677-2.205
				C26.686,8.126,13.375,8.684,15.441,19.853z"/>
			<path style="fill:#2E2E2E;" d="M27.941,11.029v0.735c7.603,5.199,9.559,4.417,9.559,14.706h-3.677l0.735,2.94l-17.647-0.735
				c-0.839-5.037-5.87,1.986-5.882,5.147h0.735l0.735-2.206h1.471c1.57,4.617,8.278,11.794,13.927,9.821
				c2.641-0.923,5.396-9.588,9.081-4.439c2.435,3.401-3.042,8.722-6.1,9.466c-5.206,1.267-15.45-3.402-19.85-6.023
				c0.277,13.413,0.81,27.082,2.081,40.44c0.321,3.377-1.292,10.195,1.304,12.792c3.311,3.312,27.17,4.902,20.88-2.498v-0.734
				c3.878-3.389,1.471-17.71,1.471-22.795H37.5L38.971,100h3.676c0-19.098-0.735-38.211-0.735-57.354
				c0-7.959-1.86-17.596,2.941-24.265c-2.64-1.562-2.963-4.574,0.75-5.009c6.021-0.704,13.559,0.727,19.837,0.598v0.735h-2.205
				v0.735l15.441,5.882c1.631-5.302,7.013-11.428,12.057-4.332c1.899,2.674,1.484,7.755,1.789,10.95
				c2.058,21.627-2.701,45.78,2.33,66.911c3.299-7.788,1.855-16.232,1.5-24.265c-0.551-12.449-0.029-25.038-0.029-37.5
				c0.001-5.978,4.626-15.673-1.69-19.725c-4.716-3.025-14.913-2.332-20.368-2.334H27.941z"/>
			<polygon style="fill:#505E73;" points="80.882,11.029 80.882,11.765 86.765,11.765 "/>
			<path style="fill:#2E2E2E;" d="M0,13.235v9.559c5.704,0.436,5.219,4.816,0,5.882v39.706c11.381,1.772,1.776,17.49,8.823,22.06
				c-2.567-17.991,0-38.37,0-56.618c0-7.141-4.255-18.083,5.883-16.912l0.735-5.146L0,13.235 M16.176,19.853l13.971-0.735
				C27.316,11.82,20.409,13.822,16.176,19.853z"/>
			<polygon style="fill:#444D5B;" points="42.647,13.235 42.647,13.971 49.265,13.971 "/>
			<path style="fill:#667DA0;" d="M9.559,16.911L8.823,69.117v21.324C3.129,84.864,10.749,69.47,0,69.117L2.206,75H0v25l8.823-1.471
				L16.912,100h22.059c0-10.268,1.456-22.454-1.471-32.354h-0.735c0.001,6.532,3.386,17.611-1.471,22.795v0.734
				c4.271,7.929-17.802,5.625-20.88,1.973c-2.382-2.827-1.896-10.871-1.914-14.473c-0.058-12.056-1.471-23.986-1.471-36.029
				c0-3.981-1.425-11.353,1.705-14.387c4.528-4.391,18.793-1.789,24.766-1.789l-0.003-5.148c-0.157-12.607-9.024-1.089-16.174-0.812
				C16.747,20.688,14.25,16.967,9.559,16.911 M41.912,13.971c0.949,5.685,8.44,3.439,12.5,2.205v-1.47L41.912,13.971z"/>
			<path style="fill:#4A6464;" d="M42.647,17.646v0.735h2.206c-4.656,4.81-2.941,12.821-2.941,19.118v48.529h0.735V21.323
				l35.293,0.735c-3.471-4.672-9.081-6.127-14.705-6.617v-0.735h2.205L42.647,17.646z"/>
			<rect x="70.589" y="13.971" style="fill:#4C596C;" width="2.94" height="1.471"/> 
			<polygon style="fill:#414955;" points="81.618,13.971 81.618,14.706 88.235,14.706 "/>
			<path style="fill:#667DA0;" d="M42.647,21.323V100h38.235c3.604,0,10.73,1.396,13.236-1.471h0.734h0.736l2.94,1.471V21.323
				h-0.735c-2.406,6.426-1.471,13.825-1.471,20.588c0,17.253,3.281,36.07-0.734,52.941c-3.188-6.612-2.207-14.901-2.207-22.059
				c0-12.011-0.734-23.984-0.734-36.029c0-4.754,1.574-18.565-3.051-21.304c-8.586-5.083-8.523,4.961-13.875,6.364
				C66.038,24.362,52.521,22.103,42.647,21.323z"/>
			<path style="fill:#4C596D;" d="M8.823,51.471h0.735v-34.56H12.5c-2.366-0.921-4.889,0.004-4.954,2.945
				C7.32,30.006,8.823,41.042,8.823,51.471z"/>
			<polygon style="fill:#53627A;" points="16.912,19.853 16.912,20.588 24.265,20.588 "/>
			<path style="fill:#667DA0;" d="M0,22.794v5.882C5.792,28.023,6.087,22.994,0,22.794z"/>
			<path style="fill:#4A6464;" d="M45.588,25c-1.271,4.298-2.742,14.492,2.941,15.441c-0.432-9.913-1.28-9.588,8.823-9.56
				C55.006,26.607,50.037,25.918,45.588,25z"/>
			<path style="fill:#2E2E2E;" d="M47.059,25v0.735c4.192,0.567,7.55,1.837,10.294,5.146c-10.319-0.092-9.684-0.977-8.823,9.56
				l-3.676-0.735v18.382h0.735C50.605,52.936,50,62.217,50,65.441c12.331,1.958,6.532,16.083-3.677,16.176
				c0.003,4.433-0.114,7.681,4.412,9.559v0.735l-4.412,0.735c1.111,6.396,12.51,3.602,16.912,2.206l-5.146-5.146l2.205-0.735
				c-0.263-2.075-0.096-5.788,2.908-5.845c3.514-0.067,9.039,6.542,11.798,8.478c3.437,2.41,7.774,1.778,11.765,1.778
				c-3.27-13.733,1.331-30.604,0.707-44.853c-0.517-11.761-6.37-18.401-18.354-16.177v-0.735c7.35-3.056,14.104-7.182,19.853,0.735
				h0.735l-0.735-6.617L47.059,25z"/>
			<polygon style="fill:#434C59;" points="52.94,25 52.94,25.735 58.823,25.735 "/>
			<path style="fill:#4A6464;" d="M13.971,26.471v0.735l2.941,1.47l17.647,0.735C32.387,24.01,19.037,26.471,13.971,26.471
				 M69.118,31.617v0.735c25.036-3.164,18.686,32.383,17.58,48.529c-0.294,4.304-1.186,8.265,0.066,12.5H77.94
				c2.516,1.056,9.791,1.963,11.322-1.054c2.578-5.081,0.443-16.057,0.443-21.74V44.853c0-3.813,0.856-8.888-0.546-12.496
				c-2.217-5.703-8.581-5.607-13.425-3.901C73.401,29.277,71.25,30.378,69.118,31.617 M12.5,31.617
				c-4.067,9.6,2.438,11.322,10.294,13.268c3.199,0.792,6.205,2.831,9.529,1.37c2.83-1.244,8.227-7.502,4.205-10.205
				c-4.664-3.135-5.568,3.642-8.63,5.037c-5.275,2.405-11.912-5.585-13.927-9.47H12.5z"/>
			<polygon style="fill:#57777F;" points="89.706,37.5 89.706,93.382 90.44,93.382 90.44,55.146 "/>
			<polygon style="fill:#4A5668;" points="92.647,40.441 92.647,61.765 93.382,61.765 "/>
			<polygon style="fill:#454E5D;" points="11.029,44.853 11.029,53.676 11.765,53.676 "/>
			<path style="fill:#4A6464;" d="M45.588,85.294h0.735v-3.677C56.924,81.587,62.646,66.589,50,65.441
				c0-2.486,0.704-6.307-0.441-8.576c-1.354-2.685-3.709,0.233-4.016,1.973C44.095,67.043,45.588,76.928,45.588,85.294z"/>
			<polygon style="fill:#505F75;" points="96.323,61.765 96.323,74.265 97.059,74.265 "/>
			<polygon style="fill:#667DA0;" points="63.235,63.235 62.5,66.911 63.971,66.911 "/>
			<polygon style="fill:#4E5B6F;" points="63.971,63.235 63.971,66.176 64.706,66.176 "/>
			<path style="fill:#63789A;" d="M3.676,66.911l2.206-1.47L3.676,66.911z"/>
			<polygon style="fill:#454F5E;" points="0,68.382 0,69.117 3.676,69.117 "/>
			<path style="fill:#667DA0;" d="M62.5,69.853c0.048,2.201-0.04,3.195,2.206,3.677L62.5,69.853z"/>
			<polygon style="fill:#2E2E2E;" points="0,71.323 0,75 2.206,75 "/>
			<polygon style="fill:#505E74;" points="36.765,75 36.765,88.971 37.5,88.971 "/>
			<polygon style="fill:#4E5B6F;" points="93.382,75.735 93.382,88.235 94.118,88.235 "/>
			<path style="fill:#667DA0;" d="M61.765,79.411l2.206-2.205L61.765,79.411z"/>
			<polygon style="fill:#434C59;" points="12.5,78.676 12.5,84.559 13.235,84.559 "/>
			<polygon style="fill:#667DA0;" points="53.677,85.294 52.94,86.029 52.94,87.5 53.677,88.235 55.147,88.235 55.882,87.5 
				55.882,86.029 55.147,85.294 "/>
			<polygon style="fill:#475160;" points="95.589,88.971 95.589,94.117 96.323,94.117 "/>
			<path style="fill:#2E2E2E;" d="M7.353,94.117v1.471h1.47v-1.471H7.353 M6.618,100l2.206-1.471L6.618,100 M94.118,98.529V100
				h1.471v-1.471H94.118z"/>
		</g>
	</svg>
