<?xml version="1.0" encoding="iso-8859-1"?>
<!-- Generator: Adobe Illustrator 11 Build 196, SVG Export Plug-In . SVG Version: 6.0.0 Build 78)  -->
<!DOCTYPE svg PUBLIC "-//W3C//DTD SVG 1.0//EN"    "http://www.w3.org/TR/2001/REC-SVG-20010904/DTD/svg10.dtd" [
	<!ENTITY ns_flows "http://ns.adobe.com/Flows/1.0/">
	<!ENTITY ns_svg "http://www.w3.org/2000/svg">
	<!ENTITY ns_xlink "http://www.w3.org/1999/xlink">
]>
<svg  xmlns="&ns_svg;" xmlns:xlink="&ns_xlink;" xmlns:a="http://ns.adobe.com/AdobeSVGViewerExtensions/3.0/"
	 width="74.643" height="100.869" viewBox="0 0 74.643 100.869" style="overflow:visible;enable-background:new 0 0 74.643 100.869"
	 xml:space="preserve">
	<metadata>
<?xpacket begin='﻿' id='W5M0MpCehiHzreSzNTczkc9d'?><x:xmpmeta xmlns:x='adobe:ns:meta/' x:xmptk='XMP toolkit 3.0-29, framework 1.6'>
<rdf:RDF xmlns:rdf='http://www.w3.org/1999/02/22-rdf-syntax-ns#' xmlns:iX='http://ns.adobe.com/iX/1.0/'>

 <rdf:Description rdf:about=''
  xmlns:pdf='http://ns.adobe.com/pdf/1.3/'>
 </rdf:Description>

 <rdf:Description rdf:about=''
  xmlns:photoshop='http://ns.adobe.com/photoshop/1.0/'>
  <photoshop:DateCreated>2004-10-21T00:00:00Z</photoshop:DateCreated>
  <photoshop:City>Peterborough</photoshop:City>
  <photoshop:State>Cambridgeshire</photoshop:State>
  <photoshop:Country>England</photoshop:Country>
 </rdf:Description>

 <rdf:Description rdf:about=''
  xmlns:tiff='http://ns.adobe.com/tiff/1.0/'>
 </rdf:Description>

 <rdf:Description rdf:about=''
  xmlns:xap='http://ns.adobe.com/xap/1.0/'
  xmlns:xapGImg='http://ns.adobe.com/xap/1.0/g/img/'>
  <xap:CreateDate>2004-11-23T20:19:06Z</xap:CreateDate>
  <xap:ModifyDate>2005-05-10T21:52:10Z</xap:ModifyDate>
  <xap:CreatorTool>Illustrator</xap:CreatorTool>
  <xap:Thumbnails>
   <rdf:Alt>
    <rdf:li rdf:parseType='Resource'>
     <xapGImg:format>JPEG</xapGImg:format>
     <xapGImg:width>192</xapGImg:width>
     <xapGImg:height>256</xapGImg:height>
     <xapGImg:image>/9j/4AAQSkZJRgABAgEASABIAAD/7QAsUGhvdG9zaG9wIDMuMAA4QklNA+0AAAAAABAASAAAAAEA&#xA;AQBIAAAAAQAB/+4ADkFkb2JlAGTAAAAAAf/bAIQABgQEBAUEBgUFBgkGBQYJCwgGBggLDAoKCwoK&#xA;DBAMDAwMDAwQDA4PEA8ODBMTFBQTExwbGxscHx8fHx8fHx8fHwEHBwcNDA0YEBAYGhURFRofHx8f&#xA;Hx8fHx8fHx8fHx8fHx8fHx8fHx8fHx8fHx8fHx8fHx8fHx8fHx8fHx8fHx8f/8AAEQgBAADAAwER&#xA;AAIRAQMRAf/EAaIAAAAHAQEBAQEAAAAAAAAAAAQFAwIGAQAHCAkKCwEAAgIDAQEBAQEAAAAAAAAA&#xA;AQACAwQFBgcICQoLEAACAQMDAgQCBgcDBAIGAnMBAgMRBAAFIRIxQVEGE2EicYEUMpGhBxWxQiPB&#xA;UtHhMxZi8CRygvElQzRTkqKyY3PCNUQnk6OzNhdUZHTD0uIIJoMJChgZhJRFRqS0VtNVKBry4/PE&#xA;1OT0ZXWFlaW1xdXl9WZ2hpamtsbW5vY3R1dnd4eXp7fH1+f3OEhYaHiImKi4yNjo+Ck5SVlpeYmZ&#xA;qbnJ2en5KjpKWmp6ipqqusra6voRAAICAQIDBQUEBQYECAMDbQEAAhEDBCESMUEFURNhIgZxgZEy&#xA;obHwFMHR4SNCFVJicvEzJDRDghaSUyWiY7LCB3PSNeJEgxdUkwgJChgZJjZFGidkdFU38qOzwygp&#xA;0+PzhJSktMTU5PRldYWVpbXF1eX1RlZmdoaWprbG1ub2R1dnd4eXp7fH1+f3OEhYaHiImKi4yNjo&#xA;+DlJWWl5iZmpucnZ6fkqOkpaanqKmqq6ytrq+v/aAAwDAQACEQMRAD8A77pn5l+Srq1up4tbtriC&#xA;zjkmmkDgSpHCpZ/UhIWRSoU/s79sKHz556/5ya83apdzW/lmmjaWrFYpuKyXUi9OTM4ZUr1ooqP5&#xA;jgS8v1Lzh5s1Ry+o6ze3bH/f1xK48dgWoPoxVKCa7nriq6OSSJw8blHHRlJBFduoxVN7Dzr5x04r&#xA;9Q1zULULSgiupkG3agalNumKsu0f/nIT81dMKg6sL6Jf91XkUctfm4Cy/wDD4q9J8sf85ZWzskXm&#xA;bRjDWga709ua79/RlIIA9pDirONb/NbSdR8q+YL3yxqqTSR6XLe6fcIKSRTRKRJG0cgqrL8DgMu9&#xA;T2GT4fTbG96fOf8Ayvb82f8AqYpv+RVv/wBU8gyXxfnp+bDSop8wzULAH91B3P8AxjwhSz3XvzR/&#xA;MCDR7qaDWZI5Y05I4SLYgg/yHM7LhiIkgOLjyEnd5/8A8r2/Nn/qYpv+RVv/ANU8wHKd/wAr2/Nn&#xA;/qYpv+RVv/1TxV3/ACvb82f+pim/5FW//VPFXf8AK9vzZ/6mKb/kVb/9U8Vd/wAr2/Nn/qYpv+RV&#xA;v/1TxVNvKf51fmbeeZdMgvtfmewa5ja9QRQVNujBpgKRg1MYNN8lGJJoIJoW9K1383PNWoTOLKQa&#xA;ba1+COIBnp/lSMK1/wBWmZ8NNEc93FlmJYhqP5natZXPo3nmK8inIUmMTz7BgCtQhotRvjI4xsaU&#xA;CZRtr568zyRCa3127likFVf6xI4PyqxyYhA8gGJlIdUafzI88RxPw1aYmhIqEY1p7qcjPDGjsmOS&#xA;V83mn/K9vzZ/6mKb/kVb/wDVPNa5j2b/AJxu8/8Am/zVe67H5g1J79LSK3a3DpGvEu0ganBV68Ri&#xA;r5l1L/jo3X/GaT/iRxVD4q7FXYq7FXYq7FXYqjdP1i/0+K6itZOC3kTQz7dUdWRh9KuRkhIgEd6D&#xA;G0FkUr4P76P/AFh+vCOaC9W1iL1dJvI/5oJAPnxNOmbXILiXChzDybNS5zsVdirsVdirL/y+slaW&#xA;5vWFSgEUZ923b9QzL0seZcfOej0jy9a2k+qxm9/3gtkku73/AIwW0bTSD6VjIzKyy4YktMI2aeJ6&#xA;xqdxquq3mpXNPXvJnnkA6AyMWovgBWgHhmqc5k35eXcjT3NgSSpUzRL1+JR8f/CLX/Y5k6adSppz&#xA;RsWz7SrZ7rUbeBPtu44/Mb/wzMy/Sfc48PqDxDNU5z6C/wCcRv8Ajo+Zf+MNr/xKXFXgupf8dG6/&#xA;4zSf8SOKofFXYq7FXYq7FXYq7FXYq7FV8H99H/rD9eEc0F63egG3KnYOVQ/JmC/xzbS5OCHkJBBI&#xA;OxGxGahz3Yq7FXYq7FWffl/x/RM/831g1+XBKZn6X6fi4ufmyTUb1rLyx5hmTaRrD0F3ptcXEML/&#xA;APCSNh1R9KMH1PHc17lsl/L6Zo/MdsqsFNw62xJ/luD6L0/2MhyeM0WMxs9g8g26XHm7ToZG4I7v&#xA;ybwAjYnrmwzfQXEx/UHz1msc19Bf84jf8dHzL/xhtf8AiUuKvBdS/wCOjdf8ZpP+JHFVi2lw1s10&#xA;EPoIwQyduTbgD7sPCatF70pYEuxV2KuxV2Ksn0PyVNewLc3khghfeONR8bL477LmTi01iy0zzVsE&#xA;4k8iaGsRLSzoFFS5ddgOpPw0y46aLX40mBTCITOISTEGPpluvGu1fozBLlBuD++j/wBYfrxHNBer&#xA;6o/Cyd/5WQ/c65tZ8nBjzeW6lH6Wo3UXThNItPkxGauYolzo8kPkUuxV2KuxVmH5e3iiS6s2O7BZ&#xA;UHy+Fv1jMzSS5hx846sg82H/AJ1nUfdIv+T8eWar6fiwwfU8vzXuWj/L8gi17TZSSojuoWLDqAsi&#xA;mu2EK9s8rXQtNajuSaejDcuCKE1FvIR1982eb6S4WP6nhmpxejqN1Fx4enNIvClOPFiKU9s1bmve&#xA;v+cRv+Oj5l/4w2v/ABKXFXjlh5euNW1m66x2kc7+tN/sj8K+/wCrLsWIzPk15MnCn3nG1t7Ty5Fb&#xA;26COKOVAqj5NmTqIgQoNOI3JgWYDlOxVdHGXNBsBuzHoB4nCArckgI9OPaMb79WPif8APbElCM0G&#xA;yW91e1tnFUZ6uPFVHIj6QMnijxSARM0LeqsyopZiFVRUk7AAZtHBYV5r81xTxPp+nvyRtp5x0I/l&#xA;X28TmFnz3sHIxYq3LEMxHIcCQQRsRuDir128t/rVo0Stx9ShDdehBzbyFhwAaLzPzHEYtcvEO59Q&#xA;sT/rAN/HNZmFSLmYz6Ql2Vs3Yq7FXYqidNv5rC+iu4vtRGpXsQdiD8xkoSMTbGUbFM713UbXUPKF&#xA;3cWzckcRAr3VvWjJVh4jM3NISx2HHxxIlRYRBourz8TFZTMr/ZfgwU1/yiKZhjHI8g5BkB1RVhp1&#xA;1p/mCygvo/TcujleSn4SfFSR2wiBEqKDIEWHqEc5gLSg0ojqfkylT+BzZTFguHHm8l1wg61qBBqD&#xA;czGo2r+8PjmqLnh7r/ziN/x0fMv/ABhtf+JS4FeFXtxdLqF0kUjqPWkoqsR+0ewwglBAVG03zDMl&#xA;Htrp06/GsnHbvvtk+GR70XEJdlbJ2KrjI3AJ0UGpA7nxONqqQWN5cKzQQPIiCruqkqoG+56DJCJP&#xA;JBIC7T9QubC5FzbECVQQpIrTkKdDjCZibCyiCKKpfazql9tdXLyL14Vov/ArQYZZJS5lEYAckHkG&#xA;TsVdir16xf1LK3k/njRvvUHNvE7BwDzee+dY+HmCZv8Afixt/wAIF/41zX6getysP0pHlDa7FXYq&#xA;7FXYqr2WoXtlL6tpM0L9+J2NPEdD9OSjIjkgxB5pm3nLzCycfrIHiwRAf+I5Z+Yn3sPCih9Nmurz&#xA;WYZJpWlmqWLuSxoiluv0ZGBJlumQoPTbhuVnI3jGx+9c2Z5OGObzPXtMuLW5E7VeG7HqpL/lNuyk&#xA;+IOazJAg33uZCVvb/wDnEb/jo+Zf+MNr/wASlytmlur2i2erX1oiiNYLiWMIBQDg5Xp9GbaFUHAl&#xA;zS699QWF5JHu8NvPMoIqP3UTPvT/AFcGU1EphzDyDNU5zsVZB5S8urqczXFyD9ThNCvTm/Xj8h3z&#xA;IwYuI2eTVlyVyZnrXpWmg3giURosLoiqAAOQ4igHzzMybQLjw3kHlmatzXYq7FXYq7FXqflyb1dC&#xA;sm8IlT/gPh/hm0wm4Bwcg9RYn5/j46tDJ2eAD6VZv65iaoepyMHJjGYzc7FXYq7FXYqiNPsZL67S&#xA;1jdEkkqEMhIUkCtKgHrkox4jSJGhaJvPLutWYJmtH4AVLoPUUAdyU5U+nJSxSHMMRMFGeTLFbrWf&#xA;iYqsMTuadTWkdN/9fJ6eNyRlNRejLGqxiP7SheO+9RSm+bGnDUrixs7i3NtNCrwH/dZGw+VOn0YD&#xA;EEUUiRG7Nf8AnGext7HzV5utbcEQxxWXEE1PxB26/M5rMsRGRAczHKxaXeeokj84auEIZXuXkBWh&#xA;B9Q8+1f5s2GE3EOJkHqKU29v69pqwIqqaTqch9uFhMR+NMGc+gpxfUHieaxzXYq9T8uWYtNFtIgK&#xA;MyCR/Hk/xH7q0zaYY1EOFkNyKF86S+n5fnXoZGRB/wAEG/hkdQfQnCPU82zWuY7FXYq7FXYq9C8i&#xA;XPq6KYid4JWWns1GH4k5sNMbi4mYepLvzEi+Oxl8RIp+jiR+vK9WOTPB1Yy+k6jHaC7lgaO3ZQ6O&#xA;448lJoGUHdlr3G2YdN/ELpCYpdirsVdirccjxusiMVdCGVh1BG4OIKvUfL+tRarYrKCBcJRbiPwb&#xA;x+R7ZtMWTiDhThwlMBDCJWmEaiZhRpKDkQOxPXJ0ObC1+FWHeb9U1zTdQQ21yyWs6VReKEBl2YAk&#xA;E+B+nMPUSlGWx2cjFEEPVP8AnFG7uLvWfNFxcP6kzw2nNyAK0MgHSnYZiGRJst4FMJ8vSc9Pcf77&#xA;nnX/AJKsf45sdOfQHEzfUyzQLf1dM81PT+48vapJ99uU/wCN8jqj6U4fqeA5r3Ldir2ONAkaoOig&#xA;KPoFM3ADr2MfmBLx0y3i7vNy+hVP/NWY2qPpDdgG7A8wHKdirsVdirsVZV+X956d/cWpO06B1/1o&#xA;z/RjmVpZbkNGcbW9G0OPRx5j0q71W2jubW1uEd1lUOoUkBjxb4TTrvmTmgDEtMJUWMeYtUn17U72&#xA;/vTye+dmdeyq2yovgFWirmBS8Ru3nNxC8E8kL/ajYqSOhp3GVuYDazFLsVdirsVROn6jd6fcrcWr&#xA;lJBsR2YeDDuMlCZibCJRBG7NNN896fMqreo1vL3ZQXQ/KnxfhmbDVA89nGlhPRk4NRXMlpSLznp3&#xA;1vRXkVay2p9VaDfiNnFfDjv9GUamFxvubcMqLO/+cRv+Oj5l/wCMNr/xKXNc5bBvKjgwXyd1u5WP&#xA;yJp/xrmw0v0uLn5s/wBBiYeS/PVypIKaLNFUeEqtUfSEyOrOwTg5l875guS7FXsaNyRW/mAP35uH&#xA;XsL/ADDlrLZQ/wAqu5H+sQB/xHMPVnkHIwDmxDMNyHYq7FXYq7FUdod59T1e1uCaKsgDn/Jb4W/A&#xA;5PFKpAsZiw9Qvm42kp/ySPv2zZZT6S4LHs16WO+ZrTjKl0o+GT4JD/lAbV+Y/VkJBycMtqSTItzs&#xA;VdirsVdirI/JWjfW7/65Kv8Ao9oQVr0aXqo/2PX7syNPjs30DVmnQp6FmwcRAa5qENhpc88qhxx4&#xA;LE3R2bYKfbx9shlkIxJZQjZZZ/ziN/x0fMv/ABhtf+JS5qnOee+UZg11qcQ/3XMxf/ZO1KfcczdK&#xA;diHGzh6FNqH6K/J3zldDaS/a1sI/fmxDj/kXIxyOrO4Tg6vn3MRyHYq9b0uX1dNtJf54Y2+9Rm2g&#xA;biHAkNywfz5Lz1pU7RQqtPckt/HMHVH1OThHpY5mO3OxV2KuxV2KuxV6jFdfWvL8VwTVpIULn/K2&#xA;5fjmxlK8duDIUUrzDQhtStPrVlJCAC5FY+n2huOvSvTAQzhKiwvK3MdiqL07SdQ1GQpaQmTj9ptg&#xA;q/NjQZOEDLkxlIDmv1bSLjS50guJI2ldQ5WMk8QdviqBvjPGYmisZcSByDJ6X5WudIOmxWthKHeN&#xA;eUykcXLH7TEH3zZYDHhoOHlBuynWXNbBfP2oGS8hsVPwQL6kg/y36fcv68wdVPenJwR2t6v/AM4j&#xA;f8dHzL/xhtf+JS5it7y/yhJTzFqcX83Nv+Blp/xtmVpT6i0Z+TK/zI1D6t+WOlaYDR9S1a4u2A7p&#xA;aQRxCvtynP8AmMGqPqTg5PIsxm52KvT/ACpN6vl+zbuqlD/sGK/wzZ4DcA4WUeosG82S+r5gvG7K&#xA;yoP9ioX+GYOc3MuTiHpCU5U2OxV2KuxV2KuxV6F5cdJPKMaqamMSK/ff1C36iMzcZvE4mUepSzHa&#xA;3YqxLXrT0NQdgKJN+8X5n7X45WQ5eOVhdoWjjVLr6v6npElRzpUAE0JI8AN8MY2aTOfC9Kgt7LTb&#xA;L04V9K2gUsTtWiipZiAKnbc5tIxEQ4ZJkXlmpX0l9fTXcn2pWJA8F6KPoGaucuI250Y0KQ2RSq2l&#xA;3PaXMdxA3CWM1U/wPscMZEGwgi3rVncLc2kNwuyzIsgHhyFc20TYtwSKNPLdbuTc6vdzVqGlYL/q&#xA;qeK/gM1eQ3IlzYCgHuv/ADiN/wAdHzL/AMYbX/iUuQZPJvLE3p+brlP9/GdPubn/AMa5kaY+tqzf&#xA;SjvzQ1D1ZtGsFPw2dmzOvhLPcSOT9MYjyOoPrKcX0sIylsdir0DyFNz0eSM9YpmAHsyg/rrmw0p9&#xA;Li5xuwjVJfW1O7l6h5pGHyLGmYMzci5ERsENkWTsVdirsVdirsVZ35KUny7dA95ZKf8AItczcA/d&#xA;lxc/1Lsx2p2KpZ5gtPXsTIorJB8Y/wBX9r+v0ZGQbcUqKl5Dr+lX9kP6jlmnHqZ5+TMPMCSPol6s&#xA;e7mJth4AVP4ZnZR6S0Q+oPKs1TnOxV2KvVNGrDoNmzfs26Ma7fsVzaY9oD3ODP6i8rJJJJ3J3JzV&#xA;uc+gv+cRv+Oj5l/4w2v/ABKXFXjWkXMNt5v9aZ1jiE8wZ3NFHIOoqT7nLMMqkCwyC4obzRfpf69d&#xA;XEZDJVI1YEEERIsYII7Hhgym5EpgKASvIMnYqy/yFc+lBqQP2Y1SUfQGr+oZmaWVAuPnHJiBJJJO&#xA;5O5OYbkOxV2KuxV2KuxV2KvTPKtmYPL9ujCjzK0jf7Mkr/wtM2WGNQcPKbkgMwmDsVaKqwKsAynY&#xA;g7gjFUJ5Ptja6vdwH9kqFPipVyDt7ZPT/W35TcQWaZsHHYB5r8rmyZ7+0A+psayJ0MZY02/yanMD&#xA;Ph4dxycrFkvYsbEbGNpP2VYKfmwJH/Ecx6bmo0Z3VF+0xCj5nbAFetzxLFpskS/ZjhZV+QWmbYio&#xA;uAObyPNS576C/wCcRv8Ajo+Zf+MNr/xKXFXgupf8dG6/4zSf8SOKofFXYq7FUZp+q3NjHcpCFIuo&#xA;zFIWBJCkUqtCN98nCZjddWMogoPIMnYq7FXYq7FXYqm3lrRH1W/CsKWsJDXDe3Zf9lTLcOPiPk15&#xA;J8IenAAAACgGwAzZuGlulafYaiusWivIutWUAvrOEFfTmt43ZbpaEcuca0kFD9kNttmskaNNohcb&#xA;SrFrdiqK0tV/SCEAciDU9zRTTLMP1BU+zPQxT8wbrhYW1sOs0hcn2jFKH6XGYuqlsA34BvbE7VY2&#xA;0m+DModWhdFJAJoXU0+hsxY/SW88w1onD9MWRdgiLMjMzEAAKwO5PywY/qCz5F6Td6lpzWsyrdwl&#xA;mRgB6idSD75spTFc3DETbynNU5z6C/5xG/46PmX/AIw2v/EpcVeC6l/x0br/AIzSf8SOKofFXYq7&#xA;FXYq7FUTYafPey8IxRR9tz0AwgWxlMRZHbaFp8KjknrP3Z9/w6ZMRcaWUlHQ21nFXja25r15wxP/&#xA;AMSU40ECZ70t1zQ7KaP6xp0H1aZf7y1VmaNh4x8yzq3ipY17U2BiYtsM3exfIt7JPId6YdXa2JPC&#xA;6jICjpzT4gT/ALHlmRppVKu9pzCw9BzYOKx3zbfyeXdc8ua3piLFfRRPKzUqshW4kBVwdiGQlW8R&#xA;tmu1AqTl4fpV9Wishcrc6fX9G30a3VjyNSsUlf3bHu0Tho2P8ynIAtE40UFhYKtrOYJ1lA5ca7dO&#xA;opkoyo2qcWV/9akdBHw4LzJ5V7geA8cysebiNIpg/nq5Mut+lQhbeNU9iW+Mkf8ABAZjamVycvCP&#xA;Sx3MdtdirsVdir6C/wCcRv8Ajo+Zf+MNr/xKXFXgupf8dG6/4zSf8SOKofFXYq7FXYqvggknmSGM&#xA;VdzQYoJoMzsrSK0t1hj6D7Tdye5ywBw5Ss2r4WLsVdiqRa7pBdhc2yVdiFkjXuSaAj6euRIb8U+h&#xA;b0/yz5ls763uhZk+jIrkCWIVAO4+13G2WxwzBumcskSKt6JmwcRin5lmM2ujlQOY+so5pvs0bAV/&#xA;2WYGq+pysH0pb5W1Qy2UmkTGpiZrmyJ7VH76P6QoceHE92yiJTljYtNcm4rsVRukycbwL/OpX/jb&#xA;+GW4PqVOmAZSrCqsKMD0I98zqQgptC0ab+8soST1IQKfvFDkDiiejITPe8tukVLqZFFFV2Cj2BOa&#xA;uXNzRyUsCXYq+gv+cRv+Oj5l/wCMNr/xKXFXgupf8dG6/wCM0n/EjiqHxV2KuxV2Kp15cS1RpLia&#xA;aNHHwIruqnxJoxGSi05bOwTwX9iTQXERPs6/1yVtHCe5VSWN/sOG+RB/VhRS7FDsVVLeea3njnhY&#xA;pNCyyRuOqspqCPkcVT+2mE0CSD9obj3HXNjCVi0KuSVjH5lE/onRhx2+sXtG8TwttvozB1X1D3OV&#xA;g5MDhmkhlSWM8ZI2DI3WhBqOuYrczWzu47u3WeMUDdVrXie4ywFwpxo0rYWKL0oj6/HXwf8A4gcs&#xA;xfUFT3M9DsVeW+ZNOksNZmhf/dixXKAdkuoluEH0LIBmplzLnjklmRS7FX0F/wA4jf8AHR8y/wDG&#xA;G1/4lLirwXUv+Ojdf8ZpP+JHFUPirsVdirKNF8nxajowu2maO4kLeiNuFFPH4hSvUHvmVj0/FG2i&#xA;eWjTHLq1ntbiS3nXhLEeLrmNKJBotwNqWBLgSDUGh8cVRltq+oW5HGUso/Yf4h+P8MNsDjBT7Tdc&#xA;guyI5B6U56KTs3yP8MkJNE8ZCZ5JqTbRZKxyRn9khh9P+1mXpzsQgplmQrGfzJ5nRtHpuiXF5UeB&#xA;dLen38D92YWr5hycHIsAzEb038uXbx3f1fqkwJp4MorX7hkolqzR2tk2TcVWszS7h/1wPvOTx/UF&#xA;ZFmwQsmbjDI3gpP4YnkoYf8AmZGhn8vXSkE3WjQM5FOsE89rvT2txmpnzc6PJhuRZOxV9Bf84jf8&#xA;dHzL/wAYbX/iUuKsD/N7QfL+ieZZGtNOa1tdSeS4tLdpH5i3DmMTqGrRZpEdkB7Dwplh4Rsw3Lz6&#xA;5iSOSkb+pEw5Rv0JB8R2I75AimQKlgS7FXpfk4g+XLT29Sv/ACNbNlp/oDh5fqLHvzAtVS+trkCh&#xA;mQq3uYyN/ubMfVR3BbcB2piuYre7FXYqqRW9y6mSKJ2VerqpIFN+oxRbJtE1I3cBjkP7+L7R/mHY&#xA;/wBcmC42SFFkejH/AEhx4p/EZlafm1FOMy0Mb/MEM2h2pA+GO6IY+8kZp/ybOYer6ORg6vPsw3IR&#xA;uikjVIKeJ6f6pwjmwyfSWYZY4apbEC5iJ6B1J+/JQ5hWSZsUKN4SLScjqI2/4icEuSRzYd56ufW0&#xA;zy5HWptrSeLttW8lkp/yUzWZObmw5MRytk7FX0F/ziN/x0fMv/GG1/4lLirD/wDnJW4kl/Na9jc1&#xA;W3traOP2UxCT/iTnFXluKuxV2KvQ/Ik3PQyn++pXWnzAb/jbNhpj6XEzD1Jd+Yv/AEr/APnt/wAa&#xA;ZXq+jPB1YbmG5DsVVrqzuLSQR3CcHI5AVB2qR2J8MaQJA8mT6BGqaXCw6yFmPzDFf+NcnHk42X6k&#xA;kJOmayabRq24/wCK33/AYORbvqi9K8vaZLLpd/qSisVtLbws3b9+JT/zKzK059Ti1siczGLHvPqM&#xA;fLavUcVvIVI71MUxH6sxNX0cjB1ed5hOQi9IkCalbsa0LcdvFhxH68IYz5FmWWOEuQ0dT4EHCOas&#xA;mzZIUbwVtJx/xW3/ABE4Jckjm838ySStPAjMTGiERr2FWJOa3LzczHySjKmbsVfQX/OI3/HR8y/8&#xA;YbX/AIlLirz388NQOp+d/wBJts95aQNINtnhBt3pTsWhJGTyQ4TTGErDz/IMnYqntn5O1K8sIry3&#xA;kiZZQT6bEqwoSPAjtl8dPIiw1HKAaZL5P07UdPW6gu4TGjFGiaqkE0IboT7Zk6eEo2C05ZA8kn/M&#xA;GYG/tYe6RFj/ALNqf8a5TqzuA2YBsxXMVvXRLykRf5iB95xQWQeaIAbeGcUqjFDtuQwr19uP45OT&#xA;RhPRMNJi9LTbdfFA/wDwfxfxwjk15PqKUeaIaTwzD9tSp/2Jr/xtkZNuE7Uzz8qtcku9A80aPJ0W&#xA;0s7uEn+e2uBG/wBLJP8AhluA+sJyRqJR2bFxWP8An0L/AIZBr8X12Gg9vSnrmLq+Qb8HMvOswXJR&#xA;mjKH1ixRhVWuIgQKdC48cUHkzHLXBdirJ1NVB8RXNmENOodGU9GBB+nFXnPmm1lhuo4XUiaNnidR&#xA;15KQKffmty9HMxqum+RNavV5ytDYKRVfrRcE70+xGkrr/sgMY4JnopyxDWs+Rtb0y2e8HpX1lFT1&#xA;rm0LMsdTSro6xyKtSByKca7VrkJ45R5sozB5PYf+cRv+Oj5l/wCMNr/xKXIMnnv5laeZV+vIPit5&#xA;XSQjrwdtq/Jv15m6mGwLjYZb08/zCcl2KvT/ACp/yj9n/qt/xM5s8H0Bwsv1FNaipFdx1GWsHmvn&#xA;C49bX7ihqsQWMf7FRX/hic1uoNzLmYhUUlylsV9PXlfW6+MiV/4IYQxnyLL762+s2csFaF12PuDy&#xA;FfpGTIcSEqNr7aNoraKJjVo0VCR/kgDCESNlK/M6Vs4n7iSn3qf6ZGTbh5o38sLv0NYuY/U4C4tp&#xA;o2Wv2h6EjAU7/Eq5Zg5tmXkzPNi4iQeeFD+XXB/YmjkFPEck/VIcxtV9I97dg5vOcwHKcCQQQaEd&#xA;DiqJh1O/h+xO4HgTyH3GuG2JgD0ZJol7Pd2jSTEF1crUCmwAP8cmC42SIB2ZnbNyt4j4ov6s2UDs&#xA;GpVySr9Z+p3/AJim1aG2WASogCGjFXVFR3U0FDJxq3uTlUMVM5TtZlrBXsb2ayukuYaFk2ZHAZHU&#xA;ijI6nZlYbMD1GCUQRRSDRt7X+VfkLyjocd15h8u+vFHr6RyS2cjq8MHBmJjioiuArMy/EzdM1U48&#xA;JpzomxbwzWLWO7+uW0n2JjIh9qk7/Rm0MbFOCDRt4/c28ltcSW8opJExRh7g0zVEUac4G1PAl6f5&#xA;U/5R+z/1W/4mc2eD6A4WX6igvNoW29HUVqJY1aPkpIPUFdx71yGfb1MsW+zz+aaSaV5ZWLSSEs7H&#xA;cknMAm3LAW4FRujLy1O3H+UT9wJwjmwyfSWYZY4bsVSrzKR+j195Fp9xyMm3DzQ/kaF319JVNPQj&#xA;kdvcMvp0/wCHyzTC5tuY+l6LmxcRJfOKI3ly7LdV9Mp8/UUfqJzH1X0/FtwfU80zXuW7FXYqyXyw&#xA;w+pSL3EpP3qP6ZOLjZubN9PblZRH2p9xIzY4j6Q0InLFdirsVdir2v8AJLUjP5eu7Bmq1lPyQeCT&#xA;CoH/AASscwdVH1W5WA7PGbv/AHrm/wCMjfrOZw5OKXm/nuCCPWg8f25oleUf5QJWv3KM1+pAEnKw&#xA;n0sdzHbnp/lT/lH7P/Vb/iZzZ4PoDhZfqKI1qx+vaVc21Ks6Ex/66/Ev4jJZI8USEQlRt5Rmqc52&#xA;Kpl5eXlqaH+VWP4U/jhjza8v0sryxxHYqknmiQCCCLuzFv8AgRT/AI2yMm/CN098i6YLfTWvWoZL&#xA;s/D7IhIA+k1zM00KF97HNKzTJsyWlKPNxUeWr6oqSI+J8D6yb/dlGp+htw/U8xzXOW7FXYqidP1C&#xA;aylLx0KtQOh6EDCDTGUQXpHlu9F5pMUwFN2BA7Gu4zYac3Fw5xo0mmXsXYq7FXYq9M/Iy6K6xqdr&#xA;XaW3WWn/ABjfj/zMzF1Y2DfgO5ecXhAupyTQB3JJ+ZzKHJoLyLWr83+qXF1X4Xakf+ouy/gM1WSX&#xA;FIlzoRoUgsgyeleXLm3tvLVpLcSrFGFarOQB9tvHNlhkBAW4eQXIoDUvPtlFVLCM3D9pHqqfd9o/&#xA;hlc9UByZRwHqweeUzTSSsArSMXKrsAWNaAeGYRNlyQFmBKb+WFreyN/LGfxYZKLTm5MmybjOxVie&#xA;vXYuL9gpqkQ4A+/f8crkXLxRoJ95G1tll/Rc7VR6tbE9m6sv09cytNk/hLXmh1Ztma46T+by3+HL&#xA;0L3EdfkJUP8ADKdR9BbMX1PMs1rmOxV2KuxVn35f3Ak0q4g/agmDE/5Mq/D+MbZm6SXMONnj1ZPm&#xA;W0OxV2KuxVnv5LS8PODrWnq2kqU8aMjU/wCFzH1X0tuH6nl3n3UP0bDf2rn0r53MRgb4ZFEm9Sp+&#xA;IfAaj6McuQCGxXHAmTy7Ne5arb2l1ctxt4XmbwRS36sIiTyQSAma+WfMs6KPqshVBRFdlWg60AZh&#xA;TLfBmejDxIhU/wAF+YP98L/yMT+uH8vNHjRabyZ5hAqLcN7CRP4kY/l59yfGihpfLWvRfaspT/qD&#xA;n/xDlkDhmOiRkj3promjarYGSW/sp7RZQBC08Txh6btx5AVpUVpgiKa8x5JtknHSbV9cjiRoLVg8&#xA;rbNIOi/I+ORMm7HivcsbyDkqlrcPbXMVwn24nV1+amuGJo2giw9gVgyhh0IqPpzbuAl3mME6FfUF&#xA;T6THbwGVZ/oLPF9QeWZrHNROm6fNqF7HZwsqyy8uJckL8KljWgPhkoQMjQYylQtdqul3GmXZtZ2R&#xA;pAoasZJFD8wuGcDE0VjKxaEyDJkv5e6xBpnmSJ7yNp9MnRodRgQgSNC1DWMnbmjAOtdqih2JyeMk&#xA;HZjMCt2fNfaVc3Uq6Y072yUKtcxpE9D2Ko8o/HNlCduHKNLsmxdirsVZv+Tv/KaRf8YJv1DKNT9D&#xA;bh+p4L+Y2ptqnn3zDfE8lm1C49M/8VrIUj6/5CjNc5aV6HZxXurW1tN/dSP8YHcAE0+mmTxRuQDG&#xA;ZoW9TgghgiWKFFjjXZUUUA+7NqABycEm2O6z52tbOVre0j+szIaO5NIwfCo3bMbJqQNhu3Qwk80o&#xA;T8wdUD1e3gZP5VDg/eWP6sqGql3M/ADJdD8zWOq/u1BhuQKmBjWo8VPfMnHmE/e0zxmKcZawaKo1&#xA;OSq4BqAwDD7jUYDEHmqt+Y82i3/5ZRS6fYwadq2n3sS6j9XUR/WLaVHUOabmkvCq9Ad8wM+LhPk5&#xA;WIg+94rmO3OxVwBYgAVJ2AxV7FEnCJE/lUL9wpm4AdeUJroY6Lf8dz9Xk+7ga/hlWb6Czx/UHlGa&#xA;xzUXpWovp1/FeIgkaLlRG2B5KV7fPJwnwm2Mo2KXazqsmqXpupEEbFQvFSSPh+eOSfEbWEeEUgsg&#xA;yXRSvFIsiGjqag4QaUhlmk+brG1dRKhKzACVgDWMj27jfMqGcAtEsRLMre5t7mFZreRZYm+y6moz&#xA;MBB3DjEUq4VdirN/yd/5TSL/AIwTfqGUan6G3D9T5nuJmnuJZmFGldnI92Nc1zlut7iW3njniPGS&#xA;Jg6H3BrhBo2gi3oQ1i51fy9NLpsR+ut+5aOoHFjTkQxIH2TUHNh4hnD083F4OGW/JjkHkPWpN5Gi&#xA;hHfkxJ/4UEfjmONLJtOaKYwfl4mxuL0nxWNKfiSf1ZYNJ3lic/kmlj5N0ezmjmQyvLGQysz0oR/q&#xA;Bctjp4g21yykp7lzW7FUB5ghafQr+AEgPCSQO/pkSqP+CQZXmjcSzxmpPKc1bmuxVMfL1r9a1qzi&#xA;pVfUDsP8lPjP6ssxRuQYZDUS9UzaOEgNdBOi3wGx9CQ/QFJOQy/Sfcyh9QeU5qnOdirsVdirsVZr&#xA;ovkVE4zaowduotkPwj/WYdfkMzcem6yceebuZbFFFFGscSBI1FFRRQAewGZYFOOSvxV2Ks7/ACZQ&#xA;N5xqeqWsrD51UfxzH1P0tuH6ny/mvctHaRo95qlz6NuKBd5ZW+yg9/4DJ48ZkaDGcxEPTPKegWtt&#xA;f6foEVyFudVnMcc02ymX0yRsoNASoUe5zN9OIONvMosgg0OxHUZkNTsVdirsVdiqldcfqs3L7PBu&#xA;XyocEuSjm8fzUOwdirJ/IFtz1SacjaGKg/1nIH6gcydKPVbTnOzN1vrVrxrJZA1yieo8Y34qTQVP&#xA;Tv0zN4xdONwmrdfW5ubG4tg3EzxPGGO9Oala/jhkLBCxNG2Gf8q9vf8Alrj/AOBbML8rLvDk+OHf&#xA;8q9vf+WuP/gWx/Ky7wvjhINW01tNvns3kWR4wpZlBA+IBqb+xzHnDhNNkZWLQeRZOxV7Lm4de7FX&#xA;Yq7FXoX5IpXzVdOVqEsZKHwJli/hXMbVfT8W7BzfLGYDlPS/KNglrokDUpJcD1pG7nl9n/haZssE&#xA;ai4eWVySbzZq93p3mbTLy2PGbTvSu7c9KSpLyB++MZj6o+oBtwDZnV/NbT3s89qa2s7tLbnbeKQ8&#xA;kO3ipGZkDcQ48hRUMkh2KuxV2KpZ5kvVs9FupCaM6GKP/Wf4dvl1yvNKolnjFyeW5q3NdiqY6Rr1&#xA;9pSXC2oStwFDO4JK8a0K7gftdwcshlMbphKAlzTXyLcFtdmaVy0k0L/ExqWbmrHr1Oxy3TH1sMw9&#xA;LP8AM9xXYq7FXlnmWX1devW8JCv/AAA4/wAM1mY3MubjHpCW5Uzdir2XNw692KuxV2KvS/yMjrre&#xA;oyV+zbBaf60gP/GuYur5Bvwc3y/qGmX4v7kLay8fVelI2pTkfbMFyXqGk2V0ul2aiCSiwRgfC3ZB&#xA;7ZtYEcIcGXMo/wD5U7qvnfTb28051t9U0301ghnBRJ0fmWTn+yy8RxNKb7065i6utm/B1Y5Npv5k&#xA;+W4I7PVPK14y2yiP6wiO8ZC7KBLEssew22ORx6gxFUmeGzaGTzdKGK3Gk3cTKaMqoWII6ihCZaNW&#xA;OoYHAe9PdKkn1O0e7t7O5WGN/TdpImUBqA0ruO+XQyxlyapQIVcsYq89hqEGmT6o9pP9QtwpmuFi&#xA;dkHNgi7gd2YDISyRjzLIQJ5PNfMmoarq06qlnPHaRH90hjapP8zbdcwM2XjPk5WPHwpL+jdR/wCW&#xA;Wb/kW39MpbHfo3Uf+WWb/kW39MVd+jdR/wCWWb/kW39MVTnyhY38fmG1L28qqfUBJRgN42p28ctw&#xA;Gphryj0l6hDo2rzf3NjcS7V+CJ22+gZsjId7icJR0PkrzdL9jRrwdvihdP8AiQGROWPengl3I2H8&#xA;s/PM1OGlOK/zvEn/ABN1yJzw70+FLueCalYak+o3Tm1mq00hPwN1LH2zXSNklzIighv0bqP/ACyz&#xA;f8i2/pkUu/Ruo/8ALLN/yLb+mKvYvql3/vmT/gT/AEzcWHX076pd/wC+ZP8AgT/TGwtO+qXf++ZP&#xA;+BP9MbC076pd/wC+ZP8AgT/TGwtPUPyNgljvNXMkbIfThALAj9p69cxNWdg5GDq//9k=</xapGImg:image>
    </rdf:li>
   </rdf:Alt>
  </xap:Thumbnails>
 </rdf:Description>

 <rdf:Description rdf:about=''
  xmlns:xapRights='http://ns.adobe.com/xap/1.0/rights/'>
  <xapRights:Marked>True</xapRights:Marked>
  <xapRights:WebStatement>http://creativecommons.org/licenses/by-sa/2.0/</xapRights:WebStatement>
 </rdf:Description>

 <rdf:Description rdf:about=''
  xmlns:dc='http://purl.org/dc/elements/1.1/'>
  <dc:rights>
   <rdf:Alt>
    <rdf:li xml:lang='x-default'>This work is licensed to the public under the Creative Commons Attribution-ShareAlike License.</rdf:li>
   </rdf:Alt>
  </dc:rights>
  <dc:description>
   <rdf:Alt>
    <rdf:li xml:lang='x-default'>Prepararatory work for the series &quot;Canto&quot;.&#xD;Not part of the finished series.&#xD;http://www.robmyers.org/art/Canto&#xD;Contains elements from &quot;Remix Broad Street&quot; by Tom Chance.&#xD;http://www.remixreading.org/node/213&#xD;</rdf:li>
   </rdf:Alt>
  </dc:description>
  <dc:title>
   <rdf:Alt>
    <rdf:li xml:lang='x-default'>b</rdf:li>
   </rdf:Alt>
  </dc:title>
  <dc:creator>
   <rdf:Seq>
    <rdf:li>Rob Myers, Tom Chance</rdf:li>
   </rdf:Seq>
  </dc:creator>
  <dc:subject>
   <rdf:Bag>
    <rdf:li>Abstract digital art</rdf:li>
   </rdf:Bag>
  </dc:subject>
  <dc:format>image/svg+xml</dc:format>
 </rdf:Description>

 <rdf:Description rdf:about=''
  xmlns:cc='http://web.resource.org/cc/'>
  <cc:license>http://creativecommons.org/licenses/by-sa/2.0/</cc:license>
 </rdf:Description>

</rdf:RDF>
</x:xmpmeta>
                                                                                                                                                                                                                                                                                                                                                                                                                                                                                                                                                                                                                                                                                                                                                                                                                                                                                                                                                                                                                                                                                                                                                                                                                                                                                                                                                                                                                                                                                                                                                                                                                                                                                                                                                                                                                                                                                                                                                                                                                                                                                                                                <?xpacket end='w'?>
			</metadata>
		<g id="Layer_1">
			<rect x="0.146" y="0.759" style="fill:#FFFFFF;" width="73.949" height="100"/> 
			<path style="fill:#667DA0;" d="M0.146,0.759L2.667,3.28L0.146,0.759z"/>
			<path style="fill:#2E2E2E;" d="M2.667,3.28L0.146,2.44v16.807l5.882-0.84L5.877,31.852l-2.37,11.765h-0.84L0.987,25.129h-0.84
				v35.294l4.202,2.521l-1.681-1.681h-0.84c-2.142,4.103-0.261,12.294,2.521,15.966v0.841c-5.56,5.897-4.202,15.215-4.202,22.688
				h3.361c0.049-4.148,0.73-6.016,4.202-8.402v-1.682c-7.425-7.576,13.908-5.882,17.647-5.882V65.466h0.84l1.681,5.882h0.84
				l0.84-8.403h1.681c2.76,7.559,4.028,18.176-4.202,22.689c0.977,5.262,1.967,10.547-2.521,14.285v0.84h15.966l-0.84-7.562
				l-2.521,2.521h-0.84c0.893-6.154,5.163-11.762-0.84-16.807V78.07c3.8-3.847,0.102-16.977-4.393-19.913
				c-3.907-2.554-9.66-1.936-14.094-1.936c4.249-7.199,12.428-13.57,15.966-2.521l5.042-0.84l-1.681-5.882
				c3.623-2.56,2.773-8.588,2.28-12.605C37.156,22.934,34.6,12.49,34.6,0.759h-6.723v3.361C25.054-0.068,3.837-2.179,2.667,3.28z"/>
			<path style="fill:#667DA0;" d="M26.197,0.759l0.84,3.361h0.84L26.197,0.759 M34.6,0.759c0,7.322-0.267,15.503,1.159,22.689
				c1.404,7.079,6.354,17.305,0.522,23.53l1.681,5.882H34.6c0.336,7.709,5.274,18.286,0.84,25.21v0.841
				c4.982,6.199,1.328,10.082,0.84,16.807h0.84l2.521-2.521l0.84,7.562l10.925-0.84v-6.723h-7.563l-2.666-60.504L37.121,0.759H34.6z
				"/>
			<path style="fill:#2E2E2E;" d="M37.121,0.759l2.521,25.21l3.361-1.681l8.403,20.168h0.841c0.003-5.148-0.159-9.969,5.882-10.924
				c-2.757,4.042-4.376,7.347,0.841,10.084l-1.682,6.723c9.4,0.339,6.723,13.632,6.723,20.167c3.895-2.521,5.864-3.798,9.244,0h0.84
				V0.759h-5.041l0.84,19.328h3.361v2.521h-3.361l2.521,6.723c-4.235,5.306-3.361,11.183-3.361,17.647h-3.361
				c0.207-4.771,4.116-12.338-2.521-13.446l3.361-5.882l-7.562-6.723l5.882,1.681c1.233-5.18,2.015-14.122-0.503-19.06
				c-3.365-6.6-5.379,4.384-5.379,6.453v5.884l5.041-0.84v0.84c-9.537,3.366-8.792-8.479-7.562-15.126H37.121z"/>
			<path style="fill:#667DA0;" d="M64.011,15.885v-0.84l-5.041,0.84c0-2.931-1.559-12.895,2.629-13.511
				c6.88-1.013,4.293,16.901,3.253,20.234l-5.882-1.681c1.615,3.516,3.633,6.064,7.562,6.723l-3.361,5.882
				c6.073,1.849,2.622,8.569,2.521,13.446h3.361c0-6.744-0.16-11.71,3.361-17.647l-2.521-6.723h3.361v-2.521
				c-6.705-2.035-4.201-13.63-4.201-19.328c-3.078,0-10.324-1.345-12.455,1.348C52.368,7.454,56.082,19.677,64.011,15.885z"/>
			<polygon style="fill:#4D5258;" points="64.852,3.28 64.852,9.163 65.693,9.163 "/>
			<path style="fill:#495464;" d="M37.121,6.642v7.563h0.84L37.121,6.642 M69.054,9.163v10.084h0.84L69.054,9.163z"/>
			<path style="fill:#667DA0;" d="M21.155,16.726c3.628-0.564,6.433-2.315,7.563-5.882C23.848,9.841,21.526,11.818,21.155,16.726
				 M0.987,15.885h4.202v-4.202L0.987,15.885 M13.592,16.726l4.202-4.202L13.592,16.726z"/>
			<polygon style="fill:#4E5C70;" points="65.693,12.524 65.693,20.087 66.533,20.087 "/>
			<path style="fill:#667DA0;" d="M0.146,19.247l2.521,24.37h0.84l2.521-25.21L0.146,19.247 M14.432,45.297h0.84l3.361-26.891
				C8.396,20.034,14.432,38.084,14.432,45.297z"/>
			<path style="fill:#4A6464;" d="M41.323,47.818h0.841v-2.521h0.84l6.371,13.446l1.182,12.052l4.212-0.288
				c0.002,2.812-0.721,6.316,2.521,6.723v3.361h0.841l-2.521-31.932h-2.521V36.053h-0.84v8.403h-0.841l-8.403-20.168
				C38.175,27.018,41.323,42.225,41.323,47.818z"/>
			<polygon style="fill:#4A5668;" points="0.987,29.331 0.987,33.532 1.827,33.532 "/>
			<path style="fill:#667DA0;" d="M53.087,48.659h2.521c0.88,8.842,0.873,18.061,2.037,26.891c0.477,3.613-0.034,7.115,3.845,8.402
				c0.054,2.516-0.046,3.652,2.521,4.202l-4.201,2.521v10.084h14.285c0-8.799,4.247-42.302-10.924-29.411V51.179l-5.883-0.839
				l1.682-6.723c-4.518-3.591-2.945-5.586-0.841-10.084C50.818,34.102,53.087,43.126,53.087,48.659z"/>
			<polygon style="fill:#5A6C88;" points="61.491,42.776 61.491,46.978 62.332,46.978 "/>
			<path style="fill:#2E2E2E;" d="M42.164,45.297l1.68,47.899h7.563l-0.841,7.562h9.244V90.675l4.201-2.521
				c-4.256-2.167-6.033-6.345-6.723-10.925c-3.249-0.424-2.521-4.005-2.521-6.723l-4.548-1.01l-0.683-10.754L42.164,45.297z"/>
			<path style="fill:#4A6464;" d="M16.953,56.222c10.135,0.001,15.695,1.325,18.487,11.765
				C40.942,54.87,24.601,36.888,16.953,56.222z"/>
			<path style="fill:#4B5769;" d="M63.171,53.7c0,4.543-1.887,14.529,1.681,17.647L63.171,53.7z"/>
			<path style="fill:#667DA0;" d="M14.432,68.827l-4.202-0.841v14.286l5.882-2.521l-2.521-7.562l2.521,0.84
				c0.633-3.408,2.412-10.791-0.02-13.763C11.464,53.608,14.166,67.701,14.432,68.827z"/>
			<path style="fill:#566780;" d="M0.146,62.944l1.681-1.681h0.84l1.681,1.681C3.175,60.302,0.834,59.731,0.146,62.944z"/>
			<path style="fill:#4A6464;" d="M29.558,62.944l-0.84,8.403h-0.84l-1.681-5.882h-0.84l-1.681,19.327v0.841
				c11.728,0.969,11.182-15.213,7.563-22.689H29.558z"/>
			<path style="fill:#4A5669;" d="M13.592,66.306l-0.84,2.521L13.592,66.306z"/>
			<polygon style="fill:#667DA0;" points="0.146,67.146 0.146,84.793 1.827,84.793 4.348,78.07 4.348,77.229 "/>
			<polygon style="fill:#4A5669;" points="36.281,67.986 36.281,72.188 37.121,72.188 "/>
			<polygon style="fill:#475262;" points="14.432,73.028 14.432,75.55 16.113,73.028 "/>
			<rect x="49.726" y="83.952" style="fill:#667DA0;" width="1.681" height="2.521"/> 
			<polygon style="fill:#4B5769;" points="58.97,83.952 58.97,84.793 60.65,87.313 61.491,87.313 61.491,83.952 "/>
			<path style="fill:#667DA0;" d="M7.709,90.675v1.682c-4.024,1.914-4.187,4.194-4.202,8.402h4.202l0.84-7.562h0.84l0.84,5.883
				c4.534,0.61,10.665,3.257,15.001,0.689c4.267-2.525,3.829-12.303-0.765-14.225c-3.861-1.615-12.624-1.675-16.633-0.484
				C4.386,86.085,5.477,89.224,7.709,90.675z"/>
			<path style="fill:#2E2E2E;" d="M8.55,90.675l10.084-1.68C15.969,84.884,9.389,85.646,8.55,90.675 M8.55,93.196
				c-3.569,7.554,2.459,7.562,8.403,7.562v-0.84l-6.723-0.84L8.55,93.196z"/>
		</g>
	</svg>
