<?xml version="1.0" encoding="iso-8859-1"?>
<!-- Generator: Adobe Illustrator 11 Build 196, SVG Export Plug-In . SVG Version: 6.0.0 Build 78)  -->
<!DOCTYPE svg PUBLIC "-//W3C//DTD SVG 1.0//EN"    "http://www.w3.org/TR/2001/REC-SVG-20010904/DTD/svg10.dtd" [
	<!ENTITY ns_flows "http://ns.adobe.com/Flows/1.0/">
	<!ENTITY ns_svg "http://www.w3.org/2000/svg">
	<!ENTITY ns_xlink "http://www.w3.org/1999/xlink">
]>
<svg  xmlns="&ns_svg;" xmlns:xlink="&ns_xlink;" xmlns:a="http://ns.adobe.com/AdobeSVGViewerExtensions/3.0/"
	 width="404.958" height="1025.232" viewBox="0 0 404.958 1025.232"
	 style="overflow:visible;enable-background:new 0 0 404.958 1025.232" xml:space="preserve">
	
		<sodipodi:namedview  id="base" pagecolor="#ffffff" bordercolor="#666666" borderopacity="1.0" inkscape:pageopacity="0.0" inkscape:pageshadow="2" inkscape:zoom="0.43415836" inkscape:cx="305.25953" inkscape:cy="404.32963" inkscape:current-layer="layer1" inkscape:window-width="640" inkscape:window-height="536" inkscape:window-x="93" inkscape:window-y="42">
		</sodipodi:namedview>
	<metadata  id="metadata4">
		<rdf:RDF  id="RDF5">
			<cc:Work  rdf:about="" id="Work6">
				<dc:format  id="format7">image/svg+xml</dc:format>
				<dc:type  id="type9" rdf:resource="http://purl.org/dc/dcmitype/StillImage"></dc:type>
			</cc:Work>
		</rdf:RDF>
<?xpacket begin='﻿' id='W5M0MpCehiHzreSzNTczkc9d'?><x:xmpmeta xmlns:x='adobe:ns:meta/' x:xmptk='XMP toolkit 3.0-29, framework 1.6'>
<rdf:RDF xmlns:rdf='http://www.w3.org/1999/02/22-rdf-syntax-ns#' xmlns:iX='http://ns.adobe.com/iX/1.0/'>

 <rdf:Description rdf:about=''
  xmlns:pdf='http://ns.adobe.com/pdf/1.3/'>
 </rdf:Description>

 <rdf:Description rdf:about=''
  xmlns:photoshop='http://ns.adobe.com/photoshop/1.0/'>
  <photoshop:DateCreated>2004-10-21T00:00:00Z</photoshop:DateCreated>
  <photoshop:City>Peterborough</photoshop:City>
  <photoshop:State>Cambridgeshire</photoshop:State>
  <photoshop:Country>England</photoshop:Country>
 </rdf:Description>

 <rdf:Description rdf:about=''
  xmlns:tiff='http://ns.adobe.com/tiff/1.0/'>
 </rdf:Description>

 <rdf:Description rdf:about=''
  xmlns:xap='http://ns.adobe.com/xap/1.0/'
  xmlns:xapGImg='http://ns.adobe.com/xap/1.0/g/img/'>
  <xap:CreateDate>2004-11-23T20:19:06Z</xap:CreateDate>
  <xap:ModifyDate>2005-05-10T21:49:14Z</xap:ModifyDate>
  <xap:CreatorTool>Illustrator</xap:CreatorTool>
  <xap:Thumbnails>
   <rdf:Alt>
    <rdf:li rdf:parseType='Resource'>
     <xapGImg:format>JPEG</xapGImg:format>
     <xapGImg:width>104</xapGImg:width>
     <xapGImg:height>256</xapGImg:height>
     <xapGImg:image>/9j/4AAQSkZJRgABAgEASABIAAD/7QAsUGhvdG9zaG9wIDMuMAA4QklNA+0AAAAAABAASAAAAAEA&#xA;AQBIAAAAAQAB/+4ADkFkb2JlAGTAAAAAAf/bAIQABgQEBAUEBgUFBgkGBQYJCwgGBggLDAoKCwoK&#xA;DBAMDAwMDAwQDA4PEA8ODBMTFBQTExwbGxscHx8fHx8fHx8fHwEHBwcNDA0YEBAYGhURFRofHx8f&#xA;Hx8fHx8fHx8fHx8fHx8fHx8fHx8fHx8fHx8fHx8fHx8fHx8fHx8fHx8fHx8f/8AAEQgBAABoAwER&#xA;AAIRAQMRAf/EAaIAAAAHAQEBAQEAAAAAAAAAAAQFAwIGAQAHCAkKCwEAAgIDAQEBAQEAAAAAAAAA&#xA;AQACAwQFBgcICQoLEAACAQMDAgQCBgcDBAIGAnMBAgMRBAAFIRIxQVEGE2EicYEUMpGhBxWxQiPB&#xA;UtHhMxZi8CRygvElQzRTkqKyY3PCNUQnk6OzNhdUZHTD0uIIJoMJChgZhJRFRqS0VtNVKBry4/PE&#xA;1OT0ZXWFlaW1xdXl9WZ2hpamtsbW5vY3R1dnd4eXp7fH1+f3OEhYaHiImKi4yNjo+Ck5SVlpeYmZ&#xA;qbnJ2en5KjpKWmp6ipqqusra6voRAAICAQIDBQUEBQYECAMDbQEAAhEDBCESMUEFURNhIgZxgZEy&#xA;obHwFMHR4SNCFVJicvEzJDRDghaSUyWiY7LCB3PSNeJEgxdUkwgJChgZJjZFGidkdFU38qOzwygp&#xA;0+PzhJSktMTU5PRldYWVpbXF1eX1RlZmdoaWprbG1ub2R1dnd4eXp7fH1+f3OEhYaHiImKi4yNjo&#xA;+DlJWWl5iZmpucnZ6fkqOkpaanqKmqq6ytrq+v/aAAwDAQACEQMRAD8A9U4q7FXYq7FUn8266mhe&#xA;XL/VDTnbxH0Qehlb4Yx/wbDDEWWvNk4IkvPvyV88S3aP5c1CRpJ4w01jM1SWStXjY/5NeQ9q+Ay3&#xA;JHq4Wiz36S9Zyl2LsVdirsVdirsVdirsVdirsVdiryL8/Nc4W+naJG28rG7uB/krVI/vJf7suxDq&#xA;67tCewilH5B28L+Y9QnahlitOMY9nkXkf+Fw5eTV2ePUfc9z5LyC1HIgkDvQdf15Q7ZvFXYq7FXY&#xA;q7FXYq7FXYq7FUBpWqx6gb1VHF7K6ktZR/lIAwP0o64SGEJ3fkXzr+aGrnU/O+pyA1it5PqsXgBA&#xA;ODU+bhjmTAUHS6qfFkKr+VfmKPQ/OFtJO3C0vAbS4Y9FEhBRj8nVanwrgyCwnSZOCfkUZ598/alc&#xA;+eX1DSLt4Y9NP1aykjOxCn94xG6sHevXqKYwhtuy1GoJyXE8noXkn84tJ1cR2WslNP1I0USk0t5T&#xA;7MfsH2bb37ZVLGRyc3BrBLaWxejZW5rsVdirsVdiry//AJXZ/wBqb/p5/wCvWbL+T/6X2ftYcbv+&#xA;V2f9qb/p5/69Y/yf/S+z9q8bv+V2f9qb/p5/69Y/yf8A0vs/avGkHl781n02+125bTvWF9dG5Cet&#xA;xEfw8eNfTPLZRvtkPyl3v9Li4clGfveXTTSTTSTSHlJIxd28WY1JyDqCbWYodirsVZd5V/NDzT5d&#xA;jFvFKt5YgUW1ueTqn/GNgQy/KtPbImALlYdVKG3MM80f89UnfjfacF23ML0NadlYGo/2WTGljIek&#xA;79xdli1MZsZ/6Gt/79f/AKf/APs2zCcl6/5F82J5r8t2utLbfVPrFawc/U4kdufFK/dkpRpWQZFX&#xA;x/5w1K9sba3e0lMTO5DEAGoA9wc3GsySgBRa4hijeZtdbreP9HEfqGa46nJ3s+EKL63rD9b2f6JG&#xA;H6jkTnn3laCZTSzPcaUpkY80R3qx+I7Gp8ckSbDr4mo5PeU8y11bsVYzrWoXYv3jSVo0ioFCkjel&#xA;amnzzHySNu40mGPACRdr7DzDNGQl1+8T+cfaH9cMcvexzaEHeOxZBDPFPGJImDoehGXg26ycDE0V&#xA;QEg1GxwsUl1Hy9HJWS0oj9TH+yfl4ZTLH3Ofg1pG0tw+lfyCSeL8vYIJqBo5nAUEGgZVbenuxwZu&#xA;n9V2cJAiw9Hylk+NfPxH1W0HcyMafIZtO0OQYQYXmrZuxVP54mS50qfb02VIx86D/mrLyORdbDeG&#xA;T3lPMtdY7FWL+YYDHqHqdpVDfSPhP6sx8o3dzoZ3Cu5LMrcxEWV/cWcnOJtj9pD9k/PJRkQ1ZcMZ&#xA;iiymw1G3vY6xmkg+3Geo/szIjIF02bBLGd+SKyTQybyR561Tyrf+pATNp8rD63ZE/C4G3Jf5XHY/&#xA;fkZRtyMGc4z5Po/RdZ0/WdMg1LT5PVtp1qp6EHoVYdmU7EZjEU7qExIWHyJ+YyKhtkX7KySgfIUz&#xA;Y6/lFYsKzWs3Yqm+pzia2tLuCtIW9Mk/zAAj9WWzNgEODp4cMpQl13T60uorqBZozsw3HcHuDl0T&#xA;YdZlxmEqKtha0p8xRRyWqb/vlb92nVmB6gDK8o2c7QyIke5jkkUsdPURkr05Aj9eUEO1jIHkVuBk&#xA;jNFDNq9moNOUyBqGlVLDkPuyzCLmB5sZxEhRZO1/bjUZ7JjwkicqlejDtQ+OZEyBIxdPn0phuN4o&#xA;jFxHqv5C63cx6te6KxLWs8JukXsssbKpI/1lbf5DKso6uw0EzZi8o/M5DHcRoTUpPOtfkQMy9d9M&#xA;XZRYNmtZuxVkWj2qXGjvDJ9mR2oe4O1Dl8BcXVarIYZQR0St49S0ychCyV6MoqrD6dsroxLmCWPN&#xA;HdMrOXXbulWEEXeQoAT8gcsiZFxMscMPMppBBBCxAPKYj43Y1c/PLAAHDnOUvd9i+4t4biJopV5I&#xA;33j3GJFsYTMTYYffWj2ly8Lb03VvFT0OY0o0XfYcgnGwraGwGs2RP+/kH3sBk8H1j3szyRHmpeHm&#xA;C7A8VO3uinJ6sfvCseT2/wAh/lRp/mr8vtJ1mO+ls9RuElWYuoliYwzvEDx+BhUJ/NkI5SHDy6GM&#xA;jY2eleQfy40/yks0wnN5qNwvCS5K8AsdQeCLVu4qTXfIznbZp9MMfmXzZ+ZBMiRzV5VuHJbx5VNf&#xA;wzO1e+OJ/HJujzYJmuZuxVlPl7/jmr/rNmRi5Om1394mWWOGketay6MbW2ajDaWQdQfAZVkn0Dst&#xA;JpQRxSSEO4fmGIeteVd6/PKHZUKplukXjXdkruayIeDnxI7/AHZlQlYdJqsXBOhySzzQiiS3f9oh&#xA;gfkCCP15Xlcvs87EJfpBA1ayJ2AuIiT/ALMZHD9Y94dgUw85LTXZT/MiH/hafwy/Wj94UR5PqP8A&#xA;IX/yU+hf9HX/AFGTZiMnoGKvjvzdW58uw3FQ3xxylh0PJSK/8Nm01AvDH4fcwHNguatm7FWVaB/x&#xA;zI/m36zmTj5Ol1v94VbVL36pZvIP7w/DGP8AKP8ATDOVBr0+LjnXRh5JJJJqTuTmK75NtO0CSdRL&#xA;cMY4zuqj7RH8Mtjjvm4OfWiJqO5T60sre0jKQrxB3Ykkkn6cujEB1uTLKZssf8w3IlvvTU1WFeJ/&#xA;1jucoynd2mhx1C+9Bae3G/tm/llQ/cwwY/qHvcwp356SmsRt2aBT9zMMytePX8GMeT6a/IKRX/Kn&#xA;RlHWNrpW+f1uVv1NmEyehYq+Q5bY3Xk5IhRm+qRstPFFDAfP4aZuK4sFeX3NfV57mnbHYqyvQRTS&#xA;4j4lj/wxGZOPk6TWf3hSrzHcmS7WAH4YRuP8pt/1UyvKd3N0OOo33oTSYUl1GBH3UtUg9+IJp+GQ&#xA;gLLfqZGOMkMwzKdChdSvls7VpDu52jXxb+zIylQb8GE5JV0YezMzFmNWY1JPcnMV3oFNwtwmRq04&#xA;sDX5HCDulk/n4f6XaHfeNh7bNmd2gPUPcxg+jf8AnHv/AMlbpv8Axluf+T75gMnpGKvk7y6S2h2d&#xA;f99gfQNs3ml/uw1S5sOn8p6o+pz29vCRArnhM+ycTuu/fbwzXS0k+MgDZnxI0+Q7gIOV5GJD0Xia&#xA;E+Fa/wAMs/IHvDE5AEVYWU9lapazgCWMsGoajdiQR8wchwGOxdPqz+8P46MQupTNcyy/zsSPkTtm&#xA;ITZdzjjwxAbtJXiuYpIxV1YEL479PpxjzXJDiiR3s4dGRirCjKaEZmEUaeflEg0WN61aancXDSGI&#xA;mCMER0IOw6mle+Y+QEl2elyY4xq9yk2VOwdirLPPYLJp8v8AMr1Pb9g5sdf/AAlhF9E/849Orflf&#xA;YAGpSa5DDwPrMf1HNczek4q+TfLgpodn/wAYx+s5u9J/dhrlzRN5epAOI+KU9F8Pnk8uYR97i59Q&#xA;IbdUrSeRrlJHapDD7q5hCZMgS66OQmYJ72tWJEtwe4Bp/wADjqPqLPN/e/F5/mud4itKmtoNRt5r&#xA;kEwxOHYKKn4dxsad8sxSAkCeSCz+8EVxBFfQVMcqg1IIJB6GhzZ54iQEw6vWYv4ggHXkjKejAj78&#xA;xHABosFIIND1GYb0jsVZb5vHPRtMlp2H/DID/DNjrN4RLCPN9A/845f+S0h/5i7j/iQzXM3qGKvk&#xA;bSrn6v5fsqf3jRDgP45tsOXhwjv/AGuJqc3APNDMzMxZjUnck5jE26Ykk2WsCr7xlnkkI6OKfeKZ&#xA;PLLiJLbknc+IMBZSrFSKEGhHuMwHfA2q2lu1xdQ26/aldUH+yNMlCPEQEvVvRj9D0QKRheAHgAKD&#xA;OgMRVNEo8QopAwIJB6g0zVEOiIphV/C8N7NG6lSGJAPgd1P0g5iTFF6DEbiD5KGRbGYeZAX8p6bI&#xA;d2Hokn5xHNlqd8MT7vuYDm9+/wCccSD+WkND0u7gH7xmtZvUMVfGelzPJptrzp8EYRQPAEgZlQPp&#xA;DpNZK8h8kTknFdiqtcW7wlQ37Sg/T3GWZMZi25cRhV9WN63o8hka6t15Bt5UHWviP45i5IdQ52k1&#xA;QrhkqeS9NefUvrbD9zagmvi7CgH0dcv0WO530DsJFnU8yQxl2Ow6DxPhm1nMRFloyTERZSAkkknq&#xA;dzmqJdITaR+bdJFm9vcerJK9xy5iQ1C8aUVfYVwarDw0b5u/w7RA7gx/MNtZnrA9TyVasR9hIPwA&#xA;XNpm3wD4MBze5/8AONP/AJLqX/toT/8AEI81bN6xir480TTWfy/YzRGryJIXUnwmdRT6FzYYcJlA&#xA;EOt1WmMpcUVU2lyDQxN9AJ/VicUu5wThmOhRNpp8rSBpV4ou9D1OW4sBJs8m/BppE3Lkjb229eEg&#xA;fbXdf6ZlZsfEPNzNRi44+aSkEEgihHUZrXUELoZpYAREeAY8mAA3Pjko5DHk2RzTjyLpJpZTWRix&#xA;7VwSmZc2M5ylzK2RxbWU184BjgBKg9Gfoq/8F1yUY0DI8g5Gm05kbPJLvMN3JqPlmxv5FCyNMwKr&#xA;WgHxr3/1BjqJmeKMj3u3GxYpmvZs3vAJPIq07Qxdf8l1/pm1nvp/gGHV7f8A840/+S6l/wC2hP8A&#xA;8QjzVM3rGKvkzyv/AMo1p3+pL/1ESZutH/dhrlzTPMpi7FWmZUUsxCqoqzHYADviSrBNW81vLfMb&#xA;SNPq6/CGYGr0/aNCPozTZ9RxS2GzDJpYz3PNQ/xPLT+4WvjyNP1ZV4rj/wAnjvVdPur7U529aYWt&#xA;hD8VzKvw0XsAxqatk8QMzvtEc26OkhHpZUfMWvJfcLSzX07CDZB05EbA08PDDqM/F6Y/SHJiKRN7&#xA;Kq+SdPj/AGnmeg9leSpycz+4iPP9ajmxzMJkzi2HqeRT2pDJ1/yXb+mbWO+n+DDq9n/5xgJPkC/q&#xA;emqzU/6R7fNUzev4q+S/KxJ8t6fUUoklPf8AfyZudEf3bXLmrXWuaRauyT3UauuzIDyYH3C1OXTz&#xA;wjzKKKXT+dtFj/u/Vm8OK0H/AAxXKJa7GO8p4SkGvebJNRt/q1vGYISaykmrMOw26DMPUaszFDYM&#xA;hGmP5hsnYquM0piEXI+kDyCdqnvTxw2apVuBVWW6mlgggc/urcMsS+HJixP3nJGZIA7lUsir0aCz&#xA;eDyo1s9Q/wBVfkD1BdCSPorm7jCsNf0Wvq9Y/wCcX/8AlAb/AP7as3/UNb5pGx7Bir5Q8uR8fK+k&#xA;N/vyGVv+nqZf+Nc2+gPo+LXLmt1Hy/pWoSercQ/vehkQlWNPGnXLsmnhPcjdAKHj8peX4+tvzPi7&#xA;v/UDIDSYx0UzVU8taCDVbRD8yx/WckNNj7l4l3+HND/5Y4/uP9cP5bH3LZd/hzQ/+WOP7j/XH8tj&#xA;7lsrT5X0Emv1Nd/dv64PyuPuXiLX+F9B/wCWRf8Agn/rj+Vx9y8Rabyp5fbraD6HkH6mx/KY+5PE&#xA;VS18uaLayiWG1USLurMWeh8RyLYY6bHE2AiyjrhOdvKn8yMPvGWyFgoZ9/zi67HybqiE/CuosQPc&#xA;wRA/qGc63PZsVfLehxgeRvL0lftJdLT/AFbqQ/8AG2bXQH0n3sJpZdX8sjkRsVjGwpsT71wZc5J2&#xA;5OnzamUjsaCEJJNSanKHGtwJBqDQ+IxBUGkTDqFzHSrc18G3/HLoZ5DzciGqnHzTG2vYZ9h8L90P&#xA;8MzMeYS97n4tRGfvRGWt7sVdirsVdirO/wDnGFOHlXWE/l1Jhv12hjGc4RRbnsuBXytplwh/LjRA&#xA;oIeL66jMeh5T1FP+CzYaQ1jk4+plUCkuVuidirsVdirYJBBBoR0IwgpBpfe+Z5LCJGktjMp2Mitx&#xA;39xQ5kHWGI3Fu20ubjFHmg18/wBuT8dm4HiHBP6hgHaA7nL4EVF550d/tpNGe9VBH4McmNdDzRwl&#xA;Fxea9Bk6XQU+DK6/rFMtGrxnqvCU1RldQymqsAVPiDmQCxZ7/wA42My6Z5ktzssWpEgd6lKH/iIz&#xA;nsoqR97aHsmQS+RtGlZ/JVlD+zGJW+lp2r+CjNjpx+5l7/1OJrPoKFyp0rsVdirsVdiqncwJcQPC&#xA;/wBlxT5eB+jARYZwmYyBDCpY2ileNvtISp+YNMxSHoIysWFuBk7FXqGhy+ro9m/f0UB+ajif1Zv8&#xA;BuA9zUeb07/nHdOEXmkUpXUFP/BIT/HNNqBUz72wcnsGUpfJehxK2kGIAKnqTqoHQD1X6DNto43j&#xA;IacsbBCBdWRirbFTQj5ZjEUadFKJBotYGLsVdirqitO/hil2KGJ64gXU5qd+J+9RmNk5u80ZvGEB&#xA;kHJdir0TyfL6mgwDvGzof+CJ/jm60ZvGGuXN63+QDFbnzXBQALc20lR/xZCf+ac1uqFZCzjyev5j&#xA;pfKelRCGCaJTVY7m5QE9aLO4zcaH6Pi1y5sL1zU7y0168ET/AAFlJRt1+wMwdTMjIWuenhMbqH+J&#xA;r2n93HXxo39cq8UtP5CHeVGTXtTkNFcJXsij+NcHiFmNHjHRZ6OtXO5WZwf5qgfjQYKkWXFhh/NW&#xA;PpOpIKmB9v5d/wBVcHAWQ1OM9UVpWrXEFwsFwxaJjxPPqh+nJwmQaLTqdNGUeKPND6rKs2qStX4Q&#xA;wWv+qAp/VkZmy26aPDjCNvvLjope1YuB1jb7X0HvkpYu5x8OuB2lskpBBoeuVOwZx5DkJ024j/km&#xA;qP8AZKP6ZtdAfSR5sJPfvyW0RLXT9T1ZZg51KWNHhCU9M2ylalqnlyDjsKZi60VkKY8npGYjJ8s2&#xA;0bRSXsTfbjvbxWp4i5kGbjQ/3fxa5c3n/miFm8x3UcalmYpRRuSTGpzA1Y/en8dE8QAsq1j5cWge&#xA;7ap/30p/Wf6ZCOLvdfm13SHzTiK2trdf3UaxgDcgAfectAAcGWSUuZtBza/p0T8QzSeJQVH3kj8M&#xA;icgb4aLIRfJGW1zBcxCSFgyn7wfAjJA2488ZgaKhqOmQXkZDALKPsSdx8/bBKALbg1BxnyYlNFJF&#xA;K8cgo6khh75jEO7jIEWOTOcy3nGNeYrRYrpZkFFmBLD/ACh1/XlGWNF2+hycUaPRPfIDf6PeL4Oh&#xA;+8H+mZ/Z/IuXN9Ifk5NHJ5XuEU/FDeSI/wAzHG/6mGY+uP7z4JjyZ3mGyfLVSNR1nlsF1O+67bfW&#xA;HzcaL+7a5lIZ4bdtRnvEX95MQOR6gKoXb7sxshBmZB0+o1Bma/hWyyxxRtJI3FFFWJyBNNEYmRoM&#xA;ZvdQvdSkMcCN6I6RqCSfdqZjykZcnb4sMMQuR3UP0NqdK+g33j+uDgLZ+ax97raa90y4DMjIDsyM&#xA;CAwxBMSuSEM0atktrqVncRh0kAPdGIDD6Dl4kC6jJgnA0Qx/XHgm1GsLBqqquw3HL/aplOSiXaaM&#xA;Sjj3ZVmQ6VIvNDrS3T9r4jT22ynK7Ls8cymnkD+5vf8AWj/U2ZvZ/Iuwm9+/I57n6lrkTxstuLuO&#xA;SGQj4WZ7dFcA+3piuY+tH7wpjyenZiMnyrr2pR3N7qcsKPGl1qN9KhcFS0ct1JKjUPirjNjEGGPh&#xA;PMl1+uyUKHVJsqdUleoK17epYgkQxj1bgj8FyuW5pzcJ8OBn1OwTGGGKGMRxKEQdAMsApxJSMjZb&#xA;9ROXHkOX8td/uxRR5tTQxTRmOVQ6HqDiRaYzMTYYff2htbuSGtQpqp8QdxmLIUXfYcnHEF2nxGW+&#xA;gTxcE/IGp/DGIsrnlwwJ8mZMyqpZjRVFST2AzKdABezD9SvDd3by/sD4Yx/kj/OuYs5WXfafFwRp&#xA;kv5fk0vx2/df8b5sOz/4vh+lnN9Hfkz/AMcK+/5iv+Za5DX/AFD3Jg9BzAZPkbWOKa5q1rG5e3sr&#xA;+7trZiakxRzuEqf9XMzxTMWXT64+uvJC4uElemPy1PUSftclA+S1H9MrhzLm6gVjg3r9xcQ2Y9El&#xA;Q7cXcdQKfxxyEgI0UIynuxhGdXDISHBqpHWuY7uCBW7OIi5iQv8AbKjl86b5mB52VWa5MX1+RX1J&#xA;wP2FVT86V/jmPkO7uNFGsaM8uWLAm8kFBQrFX8T/AAyWKPVo12b+AfFT1zVxLW1t2rGD+8cftEdh&#xA;7YMk72DLSabh9UuaTZU7Bl35fkVvh3PpEfRzzZdn/wAXwYTfQX5HXBey1yA/7qvI2H+zt0/5pynW&#xA;/WmL07MNk+QL1uet60w3Q6leFGHRh6zGoOZOLk6fXD1/BTybhJFdyNp2s/WSD6FwPj/AH7uuUyPD&#xA;K3ZYo+Li4f4op1+5uIf2ZInHzBGXc3A3ie4hQh0uwhk9SOFQ43BNTT5VrkRABslqJyFEtajqMVnF&#xA;U/FM20cfcn+mMpUuDAch8kps9HLE3mpNwSvMoxoTXf4vD5ZXGHUudl1VejG1qGqyXCPb2KlbdF+N&#xA;wKfCP1DBKd7BcOmETxT+opNlTsHYqyzyB/fXv+rH+ts2PZ/MsJvoH8j7FoU1279Tkt1LbgR8acTH&#xA;GwJ5V3rXwyvXRqd96YvUcwmT5Ov0hljkngA4LPPUr0NZWDH/AIIZsxG8USOjrtdjsX3JblDq1G8s&#xA;4buExSjY7gjqD4jBKNtuLKYGwkL2usaYxMDF4fFRyX6VNaZTUo8nZDJizfVzUX1/UyCvMKfEKK/j&#xA;g8Qsxosfc6yvVjb1RE91ft0ZqkL8huTjGXxK5cRIq+GCOTTdSv3El/IY4huIh1+gdB9OS4DLm451&#xA;GPEKgLPe7Wnt7OyWyt1CGXdgOvEdz8zhyUBQXSCWSfHLokGUOzdirKvILH6zdr2KKfuJ/rmw7P5l&#xA;hN9F/kq5NlqidlkiI+ZVh/DD2hzCwek5rmb5K8uSCfTJgaFI7q4hA61HISV/5K5tdCbgQ1zFqF3b&#xA;NBLTqh3Q+2V5cfCXSZ8RgfJQyppdiqx4IJDV41Y+LAH9eNMxMjkW0jjQURQo8AKfqxpBkTzUb6+h&#xA;s4TJId/2E7sfbBKVM8OEzNBiN1cy3M7TSGrMfoA7AZik2Xe48YgKClgZuxVlPkH/AHsuv+Ma/wDE&#xA;s2HZ/wBRYTfRX5K/7y6t/rw/qfD2hzCwel5rmb5B/LC1vNQs9UsrSCS6uYnguI4YlLsIyHSVgqgn&#xA;r6dczdFkEZEE0GMgyq58uayUZZ9NuVUfa5QyCh+kbZspShIVYaZ4xIUUju/L+pwMf9HkK9aFGDAf&#xA;IjMOeAjlu63JpJDluEuaORTRlIPuDlRiQ4xgRzDaQTP9lGPyBwiBPIJjjkeQRcGlStvKeA8Buf6Z&#xA;fDTE83Kx6Mn6tkJdeTLK5lMkl1OWPiUNPlRRhloYnqXZQAiKAQreQbTfjdyDwqqn+mQ/k8d7PjU2&#xA;/L9P2b4jxrFX/jYYP5P/AKX2LxqbeQJd+N6p8Kxkf8bHI/yee9eNM/LvlufSrmWaSZZFkThxUEb1&#xA;Brvl+m0xxkklBlb3T8lf95dW/wBeH9T5R2hzCYPS81zN/9k=</xapGImg:image>
    </rdf:li>
   </rdf:Alt>
  </xap:Thumbnails>
 </rdf:Description>

 <rdf:Description rdf:about=''
  xmlns:xapRights='http://ns.adobe.com/xap/1.0/rights/'>
  <xapRights:Marked>True</xapRights:Marked>
  <xapRights:WebStatement>http://creativecommons.org/licenses/by-sa/2.0/</xapRights:WebStatement>
 </rdf:Description>

 <rdf:Description rdf:about=''
  xmlns:dc='http://purl.org/dc/elements/1.1/'>
  <dc:rights>
   <rdf:Alt>
    <rdf:li xml:lang='x-default'>This work is licensed to the public under the Creative Commons Attribution-ShareAlike License.</rdf:li>
   </rdf:Alt>
  </dc:rights>
  <dc:description>
   <rdf:Alt>
    <rdf:li xml:lang='x-default'>Prepararatory work for the series &quot;Canto&quot;.&#xD;Not part of the finished series.&#xD;http://www.robmyers.org/art/Canto&#xD;Contains elements from &quot;Remix Broad Street&quot; by Tom Chance.&#xD;http://www.remixreading.org/node/213&#xD;</rdf:li>
   </rdf:Alt>
  </dc:description>
  <dc:title>
   <rdf:Alt>
    <rdf:li xml:lang='x-default'>rrblue1_1</rdf:li>
   </rdf:Alt>
  </dc:title>
  <dc:creator>
   <rdf:Seq>
    <rdf:li>Rob Myers, Tom Chance</rdf:li>
   </rdf:Seq>
  </dc:creator>
  <dc:subject>
   <rdf:Bag>
    <rdf:li>Abstract digital art</rdf:li>
   </rdf:Bag>
  </dc:subject>
  <dc:format>image/svg+xml</dc:format>
 </rdf:Description>

 <rdf:Description rdf:about=''
  xmlns:cc='http://web.resource.org/cc/'>
  <cc:license>http://creativecommons.org/licenses/by-sa/2.0/</cc:license>
 </rdf:Description>

</rdf:RDF>
</x:xmpmeta>
                                                                                                                                                                                                                                                                                                                                                                                                                                                                                                                                                                                                                                                                                                                                                                                                                                                                                                                                                                                                                                                                                                                                                                                                                                                                                                                                                                                                                                                                                                                                                                                                                                                                                                                                                                                                                                                                                                                                                                                                                                                                                                                                <?xpacket end='w'?>
			</metadata>
		<g id="layer1" inkscape:label="Layer 1" inkscape:groupmode="layer">
			<rect id="rect1092" x="248.92" y="763.341" style="fill:#FFFFFF;" width="141.125" height="128.58"/> 
			<g id="g2075">
				<rect id="rect2076" y="112.623" style="fill:#FFFFFF;" width="366.924" height="912.609"/> 
				<path id="path2077" style="fill:#8080BF;" d="M0,112.623C0,257.37,9.408,400.607,9.408,545.407
					c0,45.282,9.696,96.92,3.659,141.125c-6.093,44.609,1.115,88.033-4.966,131.717C5.979,833.5,24.368,852.989,0,855.882v18.817
					c25.383,3.316,13.221,45.799,4.704,61.153v4.704l17.604,79.84l90.591,4.836h254.024c0-229.874-10.285-461.957-32.129-691.513
					c-5.186-54.486-0.43-110.268-6.846-164.646c-1.6-13.548,0.695-42.429-10.904-51.615c-17.361-13.749-65.311-4.835-86.541-4.835H0
					z"/>
				<polygon id="path2078" style="fill:#404040;" points="319.883,112.623 334.417,333.72 362.221,752.391 366.924,752.391 
					357.516,112.623 "/>
				<polygon id="path2079" style="fill:#404080;" points="357.516,112.623 357.516,150.257 362.221,150.257 "/>
				<polygon id="path2080" style="fill:#8080BF;" points="362.221,112.623 362.221,211.411 366.924,211.411 "/>
				<path id="path2081" style="fill:#404040;" d="M18.817,136.145c0,74.474-9.611,176.161,23.521,244.616
					c9.041-3.528,18.667-9.284,28.247-11.056c68.154-12.599,36.286,87.111,50.512,118.556
					c20.572,45.473,56.793-10.899,62.969-32.232c4.579-15.818,7.842-31.52,13.51-47.042l-14.112-4.704l9.408-32.93l28.225,4.704
					l47.041,75.267l-14.111,4.705v4.704h18.816c0.021,31.831,16.029,75.062-9.408,98.787v-65.858h-9.408
					c-6.312,31.283-29.658,46.817-56.451,61.154l47.042-61.154l-4.705-4.704l-98.693,35.554L110.461,561.6l-72.828,12.032
					c13.025,20.012,35.513,9.992,56.45,9.479c55.415-1.359,109.255-0.071,164.646-0.071c15.551,0,49.332,6.318,60.312-7.542
					c14.822-18.714,5.547-68.463,5.547-91.245c0-86.35-9.375-172.45-9.408-258.729c-0.01-21.25,4.943-94.649-16.152-105.357
					c-23-11.673-67.477-2.376-92.045,0.522C145.878,127.898,80.328,134.875,18.817,136.145z"/>
				<rect id="path2082" x="103.492" y="183.186" style="fill:#8080BF;" width="9.408" height="9.408"/> 
				<polygon id="path2083" style="fill:#408080;" points="362.221,211.411 362.221,234.932 366.924,234.932 "/>
				<path style="fill:#404040;" d="M0,263.157v404.559l4.704,192.87h4.704l0.186-141.125L6.047,366.648L0,263.157 M47.042,474.845
					h4.704l9.408-65.858C34.681,423.236,35.107,450.011,47.042,474.845 M37.633,658.307l4.704,235.209l12.247,91.665l81.836,16.949
					l202.279,8.989L334,761.799l-12.252-93.956l-81.836-9.536H37.633 M362.221,790.023v37.634h4.703L362.221,790.023
					 M362.221,865.29v47.042h4.703L362.221,865.29 M4.704,869.994L0,1025.232h18.817L4.704,940.557v-4.704
					C17.531,917.079,18.547,888.266,4.704,869.994z"/>
			</g>
			<path style="fill:#408080;" d="M103.053,78.562l-4.705,136.421l9.409-4.704v4.704l-4.704,225.8h-4.705l-9.408-61.153
				c-28.55,14.811-94.061,68.287-80.032,107.14c7.765,21.505,55.327,27.164,72.275,15.036c12.116-8.669,16.076-29.203,21.87-42.205
				c9.693,20.361,18.708,45,38.072,58.317c31.161,21.428,94.862,2.403,110.965-30.114c15.836-31.979,2.191-74.41,1.496-108.174
				l-28.226-4.705c22.55-36.678,64.64-81.943,37.589-127.009c-6.648-11.078-18.504-26.618-32.889-26.621
				c-34.462-0.006-65.75,61.986-101.466,21.217C90.135,198.608,123.364,126.966,103.053,78.562 M239.473,294.953
				c-9.914,2.863-19.242,5.834-28.225,11.137c-78.1,46.101,46.283,110.244,8.566,165.586c-26.268,38.54-83.902,3.49-91.405-30.894
				c-10.961-50.233,8.414-113.507,36.291-155.233C192.723,243.603,231.262,240.424,239.473,294.953z"/>
			<path id="path2086" style="fill:#408080;" d="M251.563,922.156c-36.928,24.321-70.37,51.082-117.604,39.833
				c-86.219-20.535-81.623-113.107-18.816-156.399c12.119-8.354,30.841-22.165,46.243-15.183
				c19.645,8.904,38.419,48.531,65.144,39.023c23.152-8.238-3.461-43.097-13.093-51.133c-28.457-23.74-65.875-15.9-98.294-7.401
				C16.972,796.633-25.705,904.535,46.366,987.575C112.464,1063.733,230.649,1009.198,251.563,922.156z"/>
			<path style="fill:#408080;" d="M142.539,826.312c-6.457,0.212-12.777,1.124-18.522,2.449
				c-76.141,17.572-43.189,125.802,28.225,108.393c34.106-8.314,65.857-57.962,41.651-90.947
				C182.603,830.821,161.909,825.676,142.539,826.312z M147.341,862.671c21.991,3.345,22.095,36.431-1.666,41.652
				c-33.875,7.444-46.832-32.587-9.114-41.063C140.588,862.354,144.199,862.193,147.341,862.671z"/>
			<path id="path2088" style="fill:#408080;" d="M256.053,747.896c0,43.438,7.502,108.831-21.869,144.842
				c-18.65,22.866-48.54,33.984-67.51,57.438c51.286-14.809,105.469-61.112,130.174-108.196
				C317.387,802.835,299.223,760.021,256.053,747.896z"/>
			<path id="path2090" style="fill:#408080;" d="M224.838,770.771c40.895-97.459-82.849-191.657-173.967-154.541
				C19.036,629.197,17.7,711.715,39.51,735.191C83.101,782.112,201.434,689.404,224.838,770.771z"/>
			<path id="path2093" style="fill:#408080;" d="M163.607,0l19.177,28.374c-10.006,25.832-4.396,46.093,9.402,69.298l16.983-34.877
				c51.116,42.652,114.737,63.311,166.425,109.034c14.787,13.079,44.531,46.146,20,64.96c-14.072,10.793-34.123-4.48-45.322-12.826
				c-36.668-27.326-73.152-62.553-112.58-85.383c-39.341-22.78-44.849,8.784-34.771,41.452c3.751,12.157,8.204,23.99,12.957,35.772
				c-36.377,30.239-85.498,22.993-91.751-29.022C116.768,125.569,141.052,55.974,163.607,0z"/>
		</g>
	</svg>
