<?xml version="1.0" encoding="iso-8859-1"?>
<!-- Generator: Adobe Illustrator 11 Build 196, SVG Export Plug-In . SVG Version: 6.0.0 Build 78)  -->
<!DOCTYPE svg PUBLIC "-//W3C//DTD SVG 1.0//EN"    "http://www.w3.org/TR/2001/REC-SVG-20010904/DTD/svg10.dtd" [
	<!ENTITY ns_flows "http://ns.adobe.com/Flows/1.0/">
	<!ENTITY ns_svg "http://www.w3.org/2000/svg">
	<!ENTITY ns_xlink "http://www.w3.org/1999/xlink">
]>
<svg  xmlns="&ns_svg;" xmlns:xlink="&ns_xlink;" xmlns:a="http://ns.adobe.com/AdobeSVGViewerExtensions/3.0/"
	 width="2080.524" height="1309.846" viewBox="0 0 2080.524 1309.846"
	 style="overflow:visible;enable-background:new 0 0 2080.524 1309.846" xml:space="preserve">
	<metadata  id="metadata1097">
		<rdf:RDF  id="RDF1099">
			<cc:Work  rdf:about="" id="Work1100">
				<dc:format  id="format1101">image/svg+xml</dc:format>
				<dc:type  id="type1103" rdf:resource="http://purl.org/dc/dcmitype/StillImage"></dc:type>
			</cc:Work>
		</rdf:RDF>
<?xpacket begin='﻿' id='W5M0MpCehiHzreSzNTczkc9d'?><x:xmpmeta xmlns:x='adobe:ns:meta/' x:xmptk='XMP toolkit 3.0-29, framework 1.6'>
<rdf:RDF xmlns:rdf='http://www.w3.org/1999/02/22-rdf-syntax-ns#' xmlns:iX='http://ns.adobe.com/iX/1.0/'>

 <rdf:Description rdf:about=''
  xmlns:pdf='http://ns.adobe.com/pdf/1.3/'>
 </rdf:Description>

 <rdf:Description rdf:about=''
  xmlns:photoshop='http://ns.adobe.com/photoshop/1.0/'>
  <photoshop:DateCreated>2004-10-21T00:00:00Z</photoshop:DateCreated>
  <photoshop:City>Peterborough</photoshop:City>
  <photoshop:State>Cambridgeshire</photoshop:State>
  <photoshop:Country>England</photoshop:Country>
 </rdf:Description>

 <rdf:Description rdf:about=''
  xmlns:tiff='http://ns.adobe.com/tiff/1.0/'>
 </rdf:Description>

 <rdf:Description rdf:about=''
  xmlns:xap='http://ns.adobe.com/xap/1.0/'
  xmlns:xapGImg='http://ns.adobe.com/xap/1.0/g/img/'>
  <xap:CreateDate>2004-11-23T20:19:06Z</xap:CreateDate>
  <xap:ModifyDate>2005-05-10T21:48:50Z</xap:ModifyDate>
  <xap:CreatorTool>Illustrator</xap:CreatorTool>
  <xap:Thumbnails>
   <rdf:Alt>
    <rdf:li rdf:parseType='Resource'>
     <xapGImg:format>JPEG</xapGImg:format>
     <xapGImg:width>256</xapGImg:width>
     <xapGImg:height>164</xapGImg:height>
     <xapGImg:image>/9j/4AAQSkZJRgABAgEASABIAAD/7QAsUGhvdG9zaG9wIDMuMAA4QklNA+0AAAAAABAASAAAAAEA&#xA;AQBIAAAAAQAB/+4ADkFkb2JlAGTAAAAAAf/bAIQABgQEBAUEBgUFBgkGBQYJCwgGBggLDAoKCwoK&#xA;DBAMDAwMDAwQDA4PEA8ODBMTFBQTExwbGxscHx8fHx8fHx8fHwEHBwcNDA0YEBAYGhURFRofHx8f&#xA;Hx8fHx8fHx8fHx8fHx8fHx8fHx8fHx8fHx8fHx8fHx8fHx8fHx8fHx8fHx8f/8AAEQgApAEAAwER&#xA;AAIRAQMRAf/EAaIAAAAHAQEBAQEAAAAAAAAAAAQFAwIGAQAHCAkKCwEAAgIDAQEBAQEAAAAAAAAA&#xA;AQACAwQFBgcICQoLEAACAQMDAgQCBgcDBAIGAnMBAgMRBAAFIRIxQVEGE2EicYEUMpGhBxWxQiPB&#xA;UtHhMxZi8CRygvElQzRTkqKyY3PCNUQnk6OzNhdUZHTD0uIIJoMJChgZhJRFRqS0VtNVKBry4/PE&#xA;1OT0ZXWFlaW1xdXl9WZ2hpamtsbW5vY3R1dnd4eXp7fH1+f3OEhYaHiImKi4yNjo+Ck5SVlpeYmZ&#xA;qbnJ2en5KjpKWmp6ipqqusra6voRAAICAQIDBQUEBQYECAMDbQEAAhEDBCESMUEFURNhIgZxgZEy&#xA;obHwFMHR4SNCFVJicvEzJDRDghaSUyWiY7LCB3PSNeJEgxdUkwgJChgZJjZFGidkdFU38qOzwygp&#xA;0+PzhJSktMTU5PRldYWVpbXF1eX1RlZmdoaWprbG1ub2R1dnd4eXp7fH1+f3OEhYaHiImKi4yNjo&#xA;+DlJWWl5iZmpucnZ6fkqOkpaanqKmqq6ytrq+v/aAAwDAQACEQMRAD8A9U4q7FXYq7FXYq7FXYq7&#xA;FXYq8w1LzNdXP50aZpdtcmK1s45LeZa/C7SRGaRT8+KL8xloj6XAllJzgDo9HstQsb6JpbO4juI0&#xA;do2eNgwDoaMpp3ByohzoyB5IjFLsVdirsVY75+1m+0byxc6hYuI7iJo+LFQ2zOAdmqOmX6eAlOjy&#xA;QXgjf85I+aqfDufeOEf8anJ8eL+afmiih5P+ckvO5/u1iHuyxn9SDIHJj6R+1NFCT/8AORf5lyAi&#xA;O5t4f8pbdCf+GBH4ZWZDuH2q7Tv+cgPzLadkn1GORXSQITbQDi/ElD8KCtGpkoEHYhXrX5Jef/NH&#xA;mjQNbvtbmS4lsZFW2YRpGP7ssQRGFruBkK2tLy6f/nJX8xpiRHHYQliKCOBzT5c5HyKq9l+e35uz&#xA;zSiJLSZrY/voWgVSPYjmrfdlscE5XQ5ItFn/AJyj81iNR+iLH1R/eN++4n5LzqPvOV7KVRf+cpvM&#xA;VBy0S0J7kSSgfxx2QAev4+1MvKP/ADkB5017zZpOlvpljDYX1xHFM6RztIqO/EsrerxHhuuERtNh&#xA;7/kUuxV2KuxV2KuxV2KuxV2KuxV2KuxV2KsB/Mj8zv8ABt1bxyQRvBNGHMj86hizClEB/lzJxYoG&#xA;PFI1uglgN9/zkZHeQiGG2jDRyRTsy+p9i3kWZh8QH2glMPBi6EtWWRAHvH3sHvNbvrnW59aV2hvJ&#xA;rhrpXQkFHZuY4+HHJUOTpJTJkZea3yv54v8AR79p9GvjFNWksJ3SQDsyNsw9+2QuMtm4Ry4vVyZ/&#xA;d/8AOQ3mK3sldNGtri4Vv3nF5FXjTqFqx6++QnjAGznYdbGW0ti9k8taq+r+X9O1SRBG97bxzvGu&#xA;4UuoJAr4ZXIUac1M8irsVYn+agB8haqSKkLER7fvkGZGl/vB8fuRLk+Lcx0rpH5uW4qlafCuw2FM&#xA;JNqtwKitJTnqVun8zgfflmIXIIL33/nGpv8AnT/Ma/8AF1T/AMiMjey3u+eof75P9YfrwR5pZNr8&#xA;mlW19eSWk89tqaEElCeLl92HtT55n6gwjIkEibAMXJJNT1zXs3Yqz38tNRl0zzV5auKcrOW7gt7l&#xA;SdqzSsEb/YGrfhl4lIR25ci4+Lecvf8AofYOUOQ7FXYq7FXYq7FXYq7FXYq7FXYq7FXYq8C/5ygV&#xA;QumvXd1C0/1Wc/xzIB/dH+sjq8I04K07qa1aORUA6lipAHfKY82rOaAPmGW206TwJKhBVgDt2PcZ&#xA;kg2HR5IGMiCxO+tZra5d0DCLmTFKK08RRsxpCi7vDkE4gHnXJOtI1YzW7/WmCmNkT1DtXnWlf+By&#xA;6ErG7g6nR1vH5PdfyR85X8t03lq7YzWyxNLZOdzHwI5R1/lNajw/VHLHqz0OYk8JeyZS7J2KsP8A&#xA;zYZv8E3aBuIleJG9wXBA+8DL9N/eBB5PjEggkHYjqMoS7FXYqjNFYrrFiR/v+Mfe4GW4Prj7wg8n&#xA;v3/OOEfp+V/NMe/wT8d+u0LDKyl87I3F1brxINPliCqre3TXV5NcsOLTOz8etKmtPowzlxSJ71Cj&#xA;kVVILa5uGKwRPKw6hFLH8MlGJPIWrKPy/wDrWoecvLWnsR6MepWrNEAQeMcoZiT/AKtaYeIkUwjj&#xA;ESSOr7SyDN2KuxV2KuxV2KuxV2KsM/Mj8zLLyNFp73NjNfHUHkSNIWVSDGFO/LrXnigmmJj/AJyH&#xA;syvL9AXIP8pnirlnhlxjrcd82afl55/tvOmnXd5BZS2P1Of6u8UzKzFuCvX4e3xZWQ5MZAiwyvFL&#xA;sVeAf85PSMz2EVNo40kr/rvIv/GuXx/uj7wjq8M0cV1KAf5VfuBOVw5tOqP7sptqa2FgfXSINcSk&#xA;lUJPCvdiuWTqO7g6czy+kn0hVsria+0+cXkfFaGj0oGFK1FfCmGJsbsMsBjmOApNaAHSr8dwYW+5&#xA;iv8AxtkIfRL4O3fY/wCXOmabF5P0HUIrOCK+udLs2uLpIkSWQtAjNzdQCanffK7QIAGwN2U4GTsV&#xA;YV+b7cfJUp/5ebYffMoy7B9Y96DyfLd55N1SbUbpoRGluXLRO7UqG3oAAx2rTfMieimZGuSOJjtx&#xA;by287wTLxljYq6+BGYUokGiyRUujX8WnR6g0f+iydGB3FTQVHvlhwyEeLoi1LTm46hbN/LKh+5hk&#xA;cZ9Q96S+h/8AnHxSuhecFPUXbg19o2xyCpH3qHz3pemz6jeJawkAtUs56Ko6k4cWIzlQQTTNtP8A&#xA;J2lWrCSXldSjesn2a/6o/jXNrj0cI892BkxXzaAPMF2AKf3f/Jtc1+r/ALw/jozjyZBbaLpFtpMV&#xA;4089otxCjTSRuw+2tdwAdt8zI4IRhxWRYY2Uf+T9pBF+aWmfUSNRijJYEH0iqt8DMedK+mrcqDrm&#xA;CYAE8JsUyfXGUJdirsVdirsVdirsVdirxX/nJCSON/K7SUC+tdgE9iUjAycDu4+qiTjNPExBq/6U&#xA;9Qyf6IG6V2406cfHLalfk67jxeHVep77/wA47TxzaDrTRmqrf8eXiRBHXKshsuw0kDHGLes5ByXY&#xA;q8E/5yFtnutYa3Wpb9GQyRqPGO4mY09z0zLwR4oTHuYnm8T0rStRiu4LmS2kSGpPNlI2IIrvlUcU&#xA;huRs0aojwytuZ0udeUSDlEsgiC9ehp/xLATcmvHAxw7c6tMtfuZYrT0o0akmzyAHiq9KV6b5PIaD&#xA;iaLGJSs9Ep0wcrHU460/cK//AAEqHI4/pl7v0h25fZv5e/8AKA+Wv+2VY/8AUMmUpZBirsVYT+cA&#xA;r5Jl/wCYm1/5PLluD64+8IPJ4LaS3UmsagsjH0IRCsC9viUsx+dc3MCTOV8hTX0YR5sAHmC7A/yD&#xA;98anNVq/7w/jo2R5Mw0OwB8uwWtyC6zRkurE/ZfcD2oCM2WDH+6APVgTuwS4tJLHVPQYEGOQFCwo&#xA;StaqSPcZqZQMJ0zfQX5Crwh88L0HrRtT/WSU45xUz71HJ4t5DUfpOdu4gIH0uuZOg+s+5Emc5tmt&#xA;gHnW0ki1hpyp9O4VSr9qqOJFfHbNPrYETvvbI8mTaeL6XQNPFoUViqLKZRyX0wCG275nY+I448LE&#xA;80b+T8C2f5uRLGlIaypGBsBUqCB/q8swTCpTA5V+kMrfVmYbJ2KuxV2KuxV2KuxV2KsL/NLT/wAv&#xA;JdGg1HzvbtNp9lJxgZWuAVeag6W7KxrxHXFXmR1f/nGIx+mYrkpSnHnqlKeH95h4i1+FC7oMg8r/&#xA;AJofkX5UtJbPQpZrK3nk9aWMxXktX4ha1l5noo6YGy3qOg67puvaRbavpkhlsbsFoJGVkJCsVPws&#xA;ARupxVMMVeH/AJ3T+h5ut5Op/R0SqPczzf0zM0mThsuNqcvBG3mDTu5kZzVnFK/SD/DJmZN31dOc&#xA;hN31YfDDcjXUjjPGf6wODEA0JfZqGvzzFgDxiudu9xEGAPkynzPbKLa5VaBSokA6dDWn4Zl6qFEu&#xA;uEeDOKYzou66ivjZyfgyt/DMbD/F/VdoX2P+WkrSfl75bZuo021XbwSJVH4DKEslxV2KsI/OJ1Ty&#xA;TKWNAbq0X6WnUD8TluH64+8IPJ4tm/amI+aW0O31OO4mje4vKAvbqwEZ47KZNifoGa3VeHGdneTO&#xA;NoMebNRuJGmllW3tod1giHxSN+ytTU0/mPh9GV/m5HcmgE8KV6tdPPcwXDvznaGNpWoPt/R7UzHz&#xA;Tsg9aSH0H+R6cP8AG46Va3P/AAUEh/jktUKyFY8nhXkqdYtbCH/d0boPns//ABrlmhlWT3hEuT0D&#xA;Nw1pVrWpaNERZag4X1F58WQutKkb0B675j58sB6ZJAKQ+Xf0wssFyJGbR4i448hQKeQqVG/wnc1z&#xA;D03HYP8AAyNJ/wDkzqssv5l2qULRXdw03+oRU19gRt92Uxyk8X9JNPrTMVk7FXYq7FXYq7FXYq7F&#xA;XlH/ADkBqGm3vkGWxtbyCa7N5bgwpIjOPipUqCTtXDwlrOWIB35PnW9kg0iJIbZAblxVpmFSB0rl&#xA;sjw8nBxROcky+nuQcur/AFixaC6j9SUbxyigoffImdii3x03DPiiaHc+tfyT/wDJW6B/xil/5PyZ&#xA;W5bOMVeH/nfZ/WPNlvRuLJYQ0r03mn/pmXpcfHbi6rB4gHkwC30sKWMrBqggAdq998z4aaubjYtH&#xA;V8SRyXGmW2pGRpIvrdsSnMnoaUP+fbMKxCfSw1xjmx7DkubWI2urUhhJJdzJEoII+Bm4M4G3ToPf&#xA;JxyXIE9S3YdPMy45pB5eANzeR9edpOlR/q5j6fmR/RLsC+wPyv8A/JdeXP8Atn2//EBmOllGKuxV&#xA;gv50IX8kMi/aa+sAPmbuPLMP1j3hBeEX2l3VzKWTUJ4IjT91HxFPkwFc3WTEZH6iGsFLJPI9lK5k&#xA;ku53dt2dipJPuSMxzoYnckp4lv8AgLTv+Wib/hf6YPyEe8p424vIunJMrtNK6KQfTPEVp2JA6YRo&#xA;Ig8yjiet/ktyF552WvwmCxYD3MdwCf8AhRmHrR+8LKPJ83QTywTJNE3CWMhkYdiMxoyINhknz+cJ&#xA;JoitxaKZG48pYnaJjwNR0rmYdZY3DHhSvV9Vn1O7+szKqkKEVFrQKKnv88x82U5JWUgUqaFqc9jq&#xA;MDLKY4GkUTqT8JQmjEj2GSwZTCQ32Uh6R+Wa6cfzcsTY8eITlMUNVLlhWlNuhGX5uHjPD/NQH1Lm&#xA;CydirsVdirsVdirz7zB+dXlnSr6Wyghmv5YGKSyRcViDKaEBmNWofAU98sGMlw8mthE1zS3zD+aW&#xA;lar5WW7sIpWiivbePWLF/gkNq/JmAZSQVkKBeveh64RCi15NUJQsd+/ueXfmZ5m8u6rMt7oumDTr&#xA;W3jiWRQiRlyJlNSkdVFBsMkQQN2uMo5JkRFeksK1bSzfiO4t3BcLQV6MvUUP04Zw4tww02o8O4yS&#xA;x9Ga2gae8cIoHwRqaszdhlfBQsuYNUJy4YB9afkn/wCSt0D/AIxS/wDJ+TK3LZxirxX85Q/+MISh&#xA;of0bEBX7NTPNSuZ+g+o+5jJ5Xcr5ll5Rm9s7YGo/d8uVD/rd8yZnIduKIajkgOZSgeQ7tviF3Ga9&#xA;6McxvyBPUNgmC1/gbVBIHW6i5LQq3x1FOnbtj+Rn3heJH6L5TmsJZp55VkLRPGiR16sOtTTLsGkM&#xA;CST0UyfTf5TymX8t/LrUpSyjSn+oOP8ADNUzZZirsVYT+b9R5MMpFUhv9OeSvQKL2Ib/AH5PF9Q9&#xA;6C+Zda82apZapcWsIi9OIgLyUk7qD4++Z+fVzjMgUxEUD/jjWv5Yf+AP/NWU/np+SeEOHnjWa/Zh&#xA;PtwP/NWP56fkvCETb+fLzmont4ipIDFSy0HjuWyyOvl1ARwvcvyWgaS/82RrTlNa2AX5n62u+Q1w&#xA;9fwTHk8Q1b8vJtIujaajrulQXC1qnqXDUINCKpAw2OYkoEc2SD/wpZ0r/iLSqePK7/7J8iqOt/y4&#xA;ubm2FzBremPA1Srh7kV4kg9YPEZbHBOQsDZFrZfy9misheya5pa2pVWEnO5pR6cTT0K71GJwTEeK&#xA;tltM/wAvr3y/5X83W+rXeuWsltCfjS3jvHegdWIHO3QHZT3xxzAu+oUvb7n/AJyK/L23WNmF8wlH&#xA;JCLelV8fiZaj5ZWYkc0pnov53/l5q8jRwXs0TL19W3mA/wCCVXUfSclDHKXIWglFXn5xfltZx87n&#xA;W44z/vsxTmT5+mIy9PemM4GPNNoiy/NPyHew+tb6oDH0q8NxGfueNTkoYJy3ARaI/wCVieS/+rmn&#xA;/ASf805P8rk7l4ggJfzh/LSJlRtegZ3NFVFkkNa0pREYjKCKNJeWeX9TsfImqarYeYtEF/eMeNvM&#xA;6qaqKjb1Aw4SVryH45eRxci6bHIYiRKNlkf5ReSjeWmq6jq9mE03VI/q8FqwZQ8bMJCy/tBQQvBq&#xA;5HJLub9HgsEyGxXeb/8AnH+yutGnh8u3TpqEzpQX8v7hYwwZqelCz122rkJTJcnFpYwNi2E2/wDz&#xA;jj+ZlsvCHVdLVf5fVuCPuNucAkQznghM2Qp3H/ONP5jXD85tT0t2HSs1zt8h9XwEks4Y4xFAU93/&#xA;AC78uX3lvyZpmiXzxSXdkjrK8BZoyWkZxxLKjdG8MDNkeKvEfzvcp5iUqaH9HwAfTPOP45k6Y1xe&#xA;79IcfVSIxkh5Vk3RKsFxLC3JD817HJwyGJ2bMeWUDYULvzolrcmGWzbbcMrg1B6EVAy464A7h3WK&#xA;QnGwjtI8zWOqXBt4UkjlVS/xhaEAgbEE+OXYdVHIaDMxp9F/lRH6f5d6FH04W/GnydhmlI3bGWYF&#xA;dirC/wA4v/JfX/8AzEWH/UfBluH64+8IPJ8l+bFC+YLsDxQ/fGpyzV/3h/HRY8kpzGS7FXYq+pPy&#xA;HimddSvuQ9KeCzVk/a5L6rA18KSHM3Wb8J7wxi8R88zwTa5aXN3A4ileUyWx+BgS+6kkV6nfJZyD&#xA;wE9yhS88Fbews7OCNUgLs5CigBQUUbbb8zk9dsBEckRRHka8km06W1dfgtmHBvESVJH0H9eT0EyY&#xA;kdyyRt7YynysbQj99HaoCo/mjUGn3rl04Hwa60gHdi/lTQ49RlmluFrbRqUHu7im3+qN/uzA0mAT&#xA;JJ5MpGmWWWiiPRo7C4ZZHRWCycQeJYkgrWvSubCGCocJYE7pDo16+kaHevxRp7e7CyIT9oHitAR9&#xA;JGYeGZx4z3iTIiyyK6i0zT7efUPQQsoMjSUq7Ht8RqdzmbIQgDOmLFJ/PWqvyEUcUSn7JoWYD5k0&#xA;P/A5r5a6Z5UGfCEmvdU1G9P+lXDyiteJNFB9lFF/DMaeWUuZSAi/Klstz5m0qF15RNdw+sNv7sSA&#xA;uTXsFrkYxMjQS+5JrW1nKmeFJShqhdQ1D4io2yKCAXl/5u/mHreiahBo+kSC2doRPcXXEM/xsyqi&#xA;8gQPs1JpXLccAdy4Gs1Eonhixr8vPzE833HmywsbzUHu7S7k9KWKYK2xBoVNKgj55OcBTRp9TMzA&#xA;JsF7ySACSaAbknMd27eKuxV2KvF/z0UHVrcntYk/8DI5GZelF8Xuac8OKNPExr+m8QebVP7PE1/p&#xA;kfEDq/yWTuabWtuSWc7J3fhQfxx8TySNJ3yjaX6sU1Ce1+q/FJIjfCdj8NTQ1+RyufqIpytMDiEu&#xA;LkCu8pl4PMMMbgozB0YHY/ZJ/WMt0hrIHMsEWH17+WsMsPkbSI5IzGyxNRSQfhMjFTsT9paHKcoq&#xA;RHmyDJsrS7FWI/mvx/wJqAYgVktKV8frcR75bg+se8IPJ8j+bgf8Q3Xv6dP+Ra5ZrP7w/joseST5&#xA;jJdirsVfUX/OPzu2nXzbekbexIHcErLX8MzdX9MD5MYvDfPNzBd69brcvwRg0kpG9DIxP8Mlra4g&#xA;O4NcjIRJjzRF3bXmp6e1rbuzJK3P4RzDMTy3IBNK+GMuOUa6OBj1GUH1C/g6V28vaKYbHjPcA855&#xA;T9kFti1K702FMn4gxQqO5csaiEp8NsXm8xa3MSWvJBX+Q8P+I0zDlqMh6lyaCZeUoxdzSWstzMkZ&#xA;UukccjICwIrWh32y/RjiPCSWMiyKTyjpUn94Zn/1pGP68zTpIHnfzRxMTU6PYahf217atcxJIwt+&#xA;LspHFiAGoV7Hrmu9EJSEhYZ7p1qWs2up6KdP0uGWWZlQGEKxaNI2BqTvXoB1zKy5hkx8MAbYgUWJ&#xA;3NldWrhLmJoWYVVXBBIzXSgY8xTO1fSrCC+v0t3uFgialZHopO4HFRWnI123yWOAlKrpBZTqd/Ye&#xA;WZLeLS7dVuCVeWRvjcxqw+0x7vx7UHgBmblMcAqP1FiN32RmuZsP83eRl1XXNN1+2jgnvdPIWWzu&#xA;qiGeIEkAsFfiyliVPEjxycZUKcbNg4pCQ5hQtvI91e+dYvNGpw29kLONY7WxtWMhd15fvZnKRio5&#xA;7ADsN9t3i2pAwE5OM7UyvWGK6TespIYW8pBGxBCHIjm5E/pK/TARptoC3MiGOr+J4jf6cSseQROB&#xA;k7FXjn57Iq31jJ0MlpNGT22ccf8AiZzM0hA4vc1ZpiMbLw5LW306JVgh9a6f7PTkSOpJP2VyFCPJ&#xA;1RySyn1GoqUdzrcMhluoQ9v+0kfElR4ihqcFyHNmYYZCon1KayWU+tW01qwZirmagI/ZIB3774LB&#xA;kKZGM44ZCXlSIjMQ822VKBqfH8+LUy3F/ehv0V+Gfe+tfIMk0nk7S2mHFxFxA2+yrFUO3ioGU6j+&#xA;8Pvc0cmQZSl2KsP/ADa28g6kwrzVrYpTY8jcxD8a0yzESJCuaC+TfOaFddkJ6OiEfKlP4ZfrR+8R&#xA;HkkeYjJ2KuxV9M/kGJP0NqZp+7NjY0P+UI5q/rzN1H0w936mI6vJfMFhALmC7SRYZw5kmmIBYBVC&#xA;pQsCoHX6Rl2qA4gRzcTNqeDYC5KDa1O0RgR57hGNWCV4E+JJ4ocoOQnvLgz45fUQPx3ILVL2OLT5&#xA;BKOEkqlFiJBapFK7E9MhOWy6fETkFcgxTMZ3a6KaWGRZInaORTVWUkEH5jCCQbCo2XXtZmXg95KQ&#xA;ewbjX/gaZadRM9Sigm2maLDHGJbpBJO+5Vtwte1D1PjkoY+91Oo1ZJqJoIu1Sz07WLa5UrCk3OKZ&#xA;a0FCpIYDtuu+XYSITBbtJmlMEHdjmtahJqGoS3TAhHNIQeyLsMxs2QzkS7ABCMksTLyUo1Ay1FDQ&#xA;iqnfxyuiEp75nikudcikUEw3aRGBvFWAHU+5zJ1QJnffTGL7fzFZOxV2KrJlieJ1mCtEykSK9CpU&#xA;jcMDtSmKC8i8keZvN+v+W5LNr2DRtM0uJYrjXnWstAKIi8mVAwX7TfLuculEAuuwZZzjV8IHVlH5&#xA;U6/q2q6Vfw6jci+/R101tBqC/wC7kUVqT+14160O+RyAByNJklIG96PNnGVuU8R/5yAAXWdIIJJk&#xA;t5QRXYcHWlB78/wy/FLanX9ofSPe8h5n67KmwkMSmKvTYtX8aVyfVwK9APS/1KFi2oQxzSajIvAb&#xA;r028emCNjm2ZhCRAxhLLXjpwkvZlpLID6Fv+1Qnq3gMrHp3czJeWoDkOZU9Cmkm8w2sshq7y1J+j&#xA;Jac3kHvcwREY0H2N+XTyv5L0wyKVYI4AP8qyuFP0qAcGo/vD72Q5MkylLsVYX+cU3o/l9fvyCkz2&#xA;IqadDfQ16/5NcnjlwyB81L5s81+Xb7UbqO5tArcY+DKW4nYkjrt3zZavTSmbDCJYxL5e1uIkNZSk&#xA;j+Ref/Ea5gHT5B0LKwotpOqL9qznWvSsbj+GROKfcfktqbWV4teUEgp1qjD+GR4JdybfS3/OPZZt&#xA;Nuo3+y1tahlPsHA/A5man+7gxHN4prmtiBreVoeb3MfqenzpwANB+ya1p7YNRk3vvFuHPR8cibSK&#xA;bzHqDrxQJF/lKKmn+yJH4ZjHIWcdFjHmlskkkjl5GLuerManKyXKjEAUFSCyu5xWGJnH8wG339MI&#xA;iSwnljHmVV9I1JV5G3ag8KE/cMPAWA1OM9UVounSNfkzxlBAA5RwQasKpsfvycIG92rWZeGFDqya&#xA;5juI4m4rxlZeUYfYGo2Pyy8g06kRoji5MXfRdbuJuUkfORv2mkjH4lqDMYxk7mGfEBQIC5vLethN&#xA;40KjfiJ4T9wD4OEs/Hx94ctgk0Ek1/dGC4hiPo27oVZxGtEAY0XtTauXCAkCZHcDkzjMHlunPlvU&#xA;9amktbWWze5swBFGyQFmGwCgHYeHvmRgzT2BFxHkpD7QzXs3Yq7FWK+cfPmiaDJDps7GW+vSIxCh&#xA;H7tJDx9SQn7IFdvH8cnGBLj5tRGGx5liNp5Rkv8A8lIbSwr9bkU35Vf92uHLcDTqeAAHuBk+L1OO&#xA;MN4KHPmyT8obmwn8kWn1O3+riJ3jnUuHLyggtITRftVrSmw2yGTm3aMg4xTNMg5TxP8APSJZvMdh&#xA;CP742LOnySYg/wDE8y9LHisONqsXHGuryO6tEnAV+SSIfgdTxdT7HGUXUQyGB/Qgxpl16gZ71nUf&#xA;ZBUEg+IqaV+jI8B7278xGto0lOs3NsP9Ft/io3KeUnkzMNgOXemVTI5BzdLjl9UvgFPy83HW7I/8&#xA;WqPv2yWnP7we9zDyfZ3kBw/k7SyOgi47/wCSxH8MOpH7wrHkyDKEuxVCarpGmatZPY6nax3lnIQX&#xA;t5lDoSpqtQfAjFVCTy35dkp6ml2b06coIj1+a5YMs+8/NFKB8m+VCSf0Ta7/APFSj+GS8efeVoO/&#xA;wb5U/wCrTa/8il/pj+Yn3laDv8G+VP8Aq02v/Ipf6Y/mJ95Wgi9O0TSNNZ2sLOK1MoAkMSBeQHSt&#xA;PnkJ5JS5m00+R9Q0NINSma8kF5LyPplh8KICQF4mozJniIPq3dZq9RISobIeXStOlWjQIvug4n/h&#xA;aZEwDiR1OQdUouNJFhdRXBCzWYYc/UrRa7fHxBNPkMr4OEg9HZ6fUjJsdpLr/TJ7uM3VnOlxASeM&#xA;CFxwA7KJAOn35LJC94m/my8THA1yK/RNKuf0fd6lHcLbyWxZeMkauKooY15A06+GTwYjwmYNU3kg&#xA;pv5beyi08alf3AEs8rcnkNPiGw/AVy/TiPDxzPNonhEpWeiNvte8tyujzXZLKCD6YYlhWu54sMnk&#xA;yYZGyUZNMJ7lAz6/5Z5D0ZbgKBv8Ack+1fSzGlPH0J+Tjns/uKE/xFpbS8V9VY+0kiAfeFZ8r8UN&#xA;Z7Pn0IWeYTaXGjRXVrL60YuBGz8StDwLUod8ctGAIcrTabwzZKfX/my10a9jt/QeR4QjjiQFFNwP&#xA;wzPy6oY/TTkCNvrrNQ2OxV2KvINa/J7X9V86T6lc3kL6XdXXrSPzcTLCWr6YXjTkqDiprlwyAB1s&#xA;9HKWSydrRGmf8rQ8pxz6Bp+lLq2nxs/6LvGIHBXYkcjyApvUq1KHvSmJ4Tuyj4uP0gWOjMPy78s3&#xA;nl3y1HZXrq97LK9xcBDVVeSnwg7VoFFffK5ysuTpsRhGjzZJNPDCnOaRY06cnIUfecABLexnUvKH&#xA;k/zPqseszsL2eG3Nophn/diNnL7+mevL3yUJygbCCEFd/k75HudzbSxt/MkrV/4bllktRI82menh&#xA;LmFGL8l/I0S7wzv4s8tf4UwDOR0CIaXHHkEPP+V35WIoaf0VWtAXnjAr9OSOpl3D5N/Chv8AlW/5&#xA;Nwt65mtI2T4vV+swqQR35dsRqCDdR+S0yXTvNP5eaNYw6bD5h02KGBSI0kvrflQknu/icpnMyNlI&#xA;Tqz1vR762e6sL6C8t41LNLbSpMtAK9ULdsirBf8AoYT8rf8Aq5S/9I0//NGKqkH5+/llPPHBFqEr&#xA;SSsERfq0wqzGgG64YizSprP+bHkKBkV9T+OQ0VfRnH4lAPxy46aYNEMeMcm2/NTyYFJ+tSGgrQQy&#xA;V/4jk/yeTuXiCGvvzk8h2Vi95PdyiNBXj6Eock7BQCBv88hPTziLPJNpRp//ADkV+Wl3OIpZ7myB&#xA;oBLcQHhU+8RlI+kZQlPY/wA2/Ikus2WkQah693qDIlmYo3eKQyNxWkigr198kYkV5q+dtUnQXEcc&#xA;0ifWuA9WPmGavU/Pr1zYZyNu+nVa3GSbA2S2TU9PjNGuEr4A1/VXMczDix0+Q8gVfT73T7i8hj5x&#xA;zqzrzhahDLUVBB9slAiRpsjhnCQJHVLfOTSWGoW8FrW3i9P10EdV+KQsrdO3w/icr1G0yA7PFjG5&#xA;PUocanNc+Wr5X4+p60XqFQF5Bu5A7/Bk4zJxSHmGcMYjsOSlN8XlCA/yXhUfShOA/wByP6zPqk8f&#xA;pfF6nL7J48afa7Vr2zGFdWS3ArsVTtXr5JaMCpXUQ7U7KYONT9OWj6D7x+lHVR81Pz1+7Paq0+XB&#xA;aZLUm8hWPJ905Ql2KuxV2KuxV2KsN/NhXPk+UqKhZoi58BWn6yMy9F/eMZcnytrqeWoai3M0s0gM&#xA;kXpuPTTkfetN+2HP4Q5WfuUWkf6Qv/8Alpl/4Nv65hslF5Hkcu7F3PVmNSfpOKtYqmuk6NHeQtNK&#xA;5VQ3FVWldh13rlkIW4Wp1RxmgHajoMttGZom9WJd2BFGA8ffGWOlwawTNHYs+/5x31CWDzdqVoHI&#xA;hvNLuA0e9GeMq6nbuBy6+JytzXlmKropHilSVDR0YMp8CDUYQaVkuk3tzqFxeXN18Rl4cV/ZC/F8&#xA;IHgMyRkMySXWa81w15/oTzVZrs+WpJbaYxyovxScqMVQ0ajeJpmfklLwbB3czEbAJSPStSU6PYwS&#xA;OrMmoLGYiQWMT1YsV7jkxzEw5RwAf0m0hDadpem3/mG7t2bhZoZXjCkCoVqAAntQ1yGPFCeQj+Hd&#xA;Sdk78m6fb2H5p+W7e3dpIvrtq6uxBrycGu22V6jGISoJBUZZpIPzM9eYcDHcFoa7A8VPp0+ZAy+r&#xA;z1L8bI6MOmikhmeGQcZI2KOvgVNDmERRpkitGEh1azEez+tHQ/7IZPD9Y94QeScefp3l1mEMB+6t&#xA;kjWncBmO/wB+W6sfvCseSQRXLxwTQgApMF5V7FTUEZQJUCO9KcQwNL5NmYVPpXvOg8PTUH/iWZAF&#xA;4f8AO/Qx6pFmKydirsVTjTmL+W9WjJAETQSKO5LScT/DLof3cvh+lHVCa1IZdSllIoXEbEDxManI&#xA;5DclD7xytLsVdirsVdirsVYD+eiTf8qy1WaCQxXFu0E0TKaH4Z0DU/2BbCCQbCvk/RooLrUCLn4+&#xA;QZgDtyate305LGATu4urnKMLintzo1hNEVWJYnp8LoKUP0dcuMAXW49VOJ52xIihI8NsxneBE2Wm&#xA;3V4T6KjiNmdtlGSjElpy544+bJdKsJLKFo3kD8jyAAoAaUOZEI06nU5hkNgUt1bUYLa3eMkNM6kL&#xA;H8xSp9sE5ABOmwSnIHoyz/nHKxkl80axd9IrbSp1P+tK6BR9ytmNTu3lA48TWvLt4Yq112GKp3DO&#xA;dK04q/8AvZPusfdV7E/ry4HhHm66UPGybfSE308zan5Nnt6H1YahTv8AHwYSD+mZuO54CO7+1zuR&#xA;Yqv1VbJucb/WXYGKSo48R1+Hr9Oa/bh82SO8saYb/VEU7QRDnN7r04/7LofbLtLi45+QWRZZ5f5/&#xA;8rd8u8xRvrlpUf7MYdZ9aI8n1gdG0gzLMbG3MykFZfSTkCDUENSuxzGJJZIK88meT76Yz3uhafdT&#xA;HrLNaQSMf9kyE4FX2vlLyrZkG00axtyoopitoUoK124qMQVRD6Docjcn062ZvFoYyfxGEm1W/wCH&#xA;tA/6tlp/yIj/AOacCq1tpWl2rh7azggcdGjjRDuKdVAw2VauNI0m5fncWUEz7nlJEjHfruQcCqX+&#xA;HtA/6tlp/wAiI/8AmnFXf4e0D/q2Wn/IiP8A5pxVseX9BAIGm2oB6j0Y9/8AhcbVr/D2gf8AVstP&#xA;+REf/NOKphirsVdirsVdirsVeX/85G311a/ltJHA5Rbu7ggnpsTH8UhX6WjGKvliX6tGsD20rmal&#xA;Zarx4v8A5JBNcnKhVIIvYq8mt6jJF6ZloCKFgAGI+YxOQuPHSYwbpA5ByU80XVrSC29Cc+mQSQ1C&#xA;Qa/LLscwBTrdXppylxDdvVNfBHpWTHf7UtKfQtf14zydy6fRdZ/JL9L0u61W5kihNZFRpCW3JpQU&#xA;+ZJwYsRmaDsdg9d/5xrjmF15hl4sIXsWXmGHEspBoV61AbY/PI8J4b80vGI3jVXDx8yy0Q1I4nx2&#xA;65EEKr2k7wRvLFGplSn71tyoO1VHT6cINNOSAkQCdu5DO7yOXdiztuWO5ORbQABQZVovmmGw0YRT&#xA;RSO8ZZYWAXgT1Ck1FOu+bDBqhCFEMDRNMUCsQWA2HU/PNe2Kltcz206TwOUlQ1VhkoyMTYVn3lq4&#xA;Fz+aPlK6FAJ5rOSg7VkNR9BzI1cuKQPfFjF9eZisnYq7FXYq7FXYq7FXYq7FXYq7FXYq7FXYq7FX&#xA;Yq7FUg86+TNL84aG2janJNFbNIk3O2ZFkDR1pQukg7+GKsAT/nGH8v1apvdUceDTQU/CAYQVW/8A&#xA;Qr/kH/lv1X/kdbf9k+BXf9Cv+Qf+W/Vf+R1t/wBk+Ku/6Ff8g/8ALfqv/I62/wCyfFVdf+caPy7A&#xA;AM2oEjuZ46n7osVTGx/IPyJYEtZteQuwCu/rKxYD/XRqfRl2HOcd0gi0dov5WeWvKd7qutaO90j3&#xA;dpNFJZGRWtxyIkLInEENVKD4qAdsqtL5P0PSBqUt1DX95HCzQkHbmGFPoO4y/Bh4yR5MSULa0WC8&#xA;Vtj6Y2PiJFykdWvL9Uff+gr7O3N9JaWirwZnZPWUFjQ0O6j+WvXJwjxkRbSyOby81tZ/o4yozSsC&#xA;srLtVjQUFdjmRLTmPp73WzlLxwaUZfI8gupEjuAIBHyjru7NToR4cu+TOhN7HZ2HElOp6NJY6bYz&#xA;yqUmn5+qh2I3BSvvTMfLhMIRJ5lkCyzyXCV85+RJCKc7iFf+BlB/42yWcemB8kB9fZisnYq7FXYq&#xA;7FXYq7FXYq7FXYq7FXYq7FXYq7FXYq7FXYq7FXYq7FXYq7FXYqpXMRmtpYQaGRGQHw5CmKvjTQLV&#xA;dI81XWmyPyb0+Csdqt8L0+6ubHTRGPKY+TA7hJvMlu1prN5GuyTHn8w5D/8AEsxtTHhyFIF0u8vL&#xA;Lb6np10f7qWZokP+UQFP/Exh09icT0JSWSa3p097r9rGszQqsDSRMO0kbbH72WuZ2fEZZBvWzAVz&#xA;RegarDqMbTyUW9iURTp4AEnkPZss0+UTF/xKRSWecLiG90O3u4KmP6wUViOoHNSfkSmY+skJYwR3&#xA;/rTHmyDytDGnmLyOBuyX1qoPsQCfxGR1QrFH8dFjzfVea5m7FXYq7FXYq7FXYq7FXYq7FXYq7FXY&#xA;q7FXYq7FXYq7FXYq7FXYq7FXYq7FVC9d47OeRDR0jdlPgQpIxV8KapqlzqOpS6hMeNxMQzsu3xAA&#xA;V/CuTnMyNrSGnuLi4fnPK8r0pydixoO1TglInmbVPnlit/K2nSE/v/rRmjXatEZgT8thmWSI4Ynr&#xA;xWx6qWpea7y51CG7tl+rmBSqCvInl9rlUU3pkcurlKQkNqURSQSOpJDEFgQxB6g9a5i2yR76xI+i&#xA;x6WYxxjkMglr2NTxp82y05icfAit09/LS7uZfP8A5XhklZ4odQg9JCahayDplZmSKJ5JfaORV2Ku&#xA;xV2KuxV2KuxV2KuxV2KuxV2KuxV2KuxV2KuxV2KuxV2KuxV2KuxV2KrJfT9J/Vp6XE8+XTjTeuKv&#xA;Mv8ArHX/AL9//khirv8ArHX/AL9//khirZ/6F32r+gPb+4xVr/rHX/v3/wDkhirv+sdf+/f/AOSG&#xA;Ku/6x1/79/8A5IYqjdG/5UX+lbT9EfoT9Keqv1L0PR9X1a/Bwpvyr0xV6HirsVdirsVdirsVdirs&#xA;VdirsVdir//Z</xapGImg:image>
    </rdf:li>
   </rdf:Alt>
  </xap:Thumbnails>
 </rdf:Description>

 <rdf:Description rdf:about=''
  xmlns:xapRights='http://ns.adobe.com/xap/1.0/rights/'>
  <xapRights:Marked>True</xapRights:Marked>
  <xapRights:WebStatement>http://creativecommons.org/licenses/by-sa/2.0/</xapRights:WebStatement>
 </rdf:Description>

 <rdf:Description rdf:about=''
  xmlns:dc='http://purl.org/dc/elements/1.1/'>
  <dc:rights>
   <rdf:Alt>
    <rdf:li xml:lang='x-default'>This work is licensed to the public under the Creative Commons Attribution-ShareAlike License.</rdf:li>
   </rdf:Alt>
  </dc:rights>
  <dc:description>
   <rdf:Alt>
    <rdf:li xml:lang='x-default'>Prepararatory work for the series &quot;Canto&quot;.&#xD;Not part of the finished series.&#xD;http://www.robmyers.org/art/Canto&#xD;Contains elements from &quot;Remix Broad Street&quot; by Tom Chance.&#xD;http://www.remixreading.org/node/213&#xD;</rdf:li>
   </rdf:Alt>
  </dc:description>
  <dc:title>
   <rdf:Alt>
    <rdf:li xml:lang='x-default'>rrblue1</rdf:li>
   </rdf:Alt>
  </dc:title>
  <dc:creator>
   <rdf:Seq>
    <rdf:li>Rob Myers, Tom Chance</rdf:li>
   </rdf:Seq>
  </dc:creator>
  <dc:subject>
   <rdf:Bag>
    <rdf:li>Abstract digital art</rdf:li>
   </rdf:Bag>
  </dc:subject>
  <dc:format>image/svg+xml</dc:format>
 </rdf:Description>

 <rdf:Description rdf:about=''
  xmlns:cc='http://web.resource.org/cc/'>
  <cc:license>http://creativecommons.org/licenses/by-sa/2.0/</cc:license>
 </rdf:Description>

</rdf:RDF>
</x:xmpmeta>
                                                                                                                                                                                                                                                                                                                                                                                                                                                                                                                                                                                                                                                                                                                                                                                                                                                                                                                                                                                                                                                                                                                                                                                                                                                                                                                                                                                                                                                                                                                                                                                                                                                                                                                                                                                                                                                                                                                                                                                                                                                                                                                                <?xpacket end='w'?>
			</metadata>
		
			<sodipodi:namedview  id="base" pagecolor="#ffffff" bordercolor="#666666" borderopacity="1.0" inkscape:pageopacity="0.0" inkscape:pageshadow="2" inkscape:zoom="0.56420690" inkscape:cx="757.64448" inkscape:cy="104.62652" inkscape:current-layer="svg1091" inkscape:window-width="909" inkscape:window-height="649" inkscape:window-x="148" inkscape:window-y="96">
			</sodipodi:namedview>
		<g id="g2273">
			<rect id="rect1092" x="692.982" y="643.964" style="fill:#FFFFFF;" width="119.055" height="108.473"/> 
			<rect id="path1093" x="166.58" y="232.768" style="fill:#404040;" width="119.055" height="108.473"/> 
			<path id="path1094" style="fill:#408080;" d="M214.202,242.105c-64.234,14.823-36.435,106.149,23.811,91.463
				c28.773-7.014,55.6-48.885,35.18-76.712C260.493,239.551,233.589,237.631,214.202,242.105z"/>
			<path id="path1095" style="fill:#404040;" d="M224.784,271.21c-31.819,7.151-20.888,40.97,7.69,34.689
				C255.383,300.865,251.968,265.1,224.784,271.21z"/>
			<path style="fill:#408080;" d="M52.345,492.824c-5.447,0.179-10.779,0.948-15.626,2.066
				c-64.234,14.823-36.435,106.128,23.811,91.441c28.773-7.015,55.558-48.897,35.138-76.725
				C86.143,496.628,68.686,492.287,52.345,492.824z M56.396,523.497c18.551,2.821,18.639,30.732-1.406,35.138
				c-28.578,6.28-39.508-27.49-7.689-34.642C50.699,523.229,53.746,523.094,56.396,523.497z"/>
			<path style="fill:#408080;" d="M140.117,597.498c-5.447,0.18-10.779,0.949-15.626,2.067
				c-64.234,14.823-36.435,106.128,23.811,91.441c28.773-7.015,55.641-48.897,35.221-76.725
				C173.998,601.303,156.458,596.962,140.117,597.498z M142.432,650.329c18.552,2.821,18.722,30.732-1.323,35.138
				c-28.578,6.28-39.508-27.49-7.689-34.642C136.818,650.062,139.782,649.926,142.432,650.329z"/>
			<path style="fill:#408080;" d="M159.118,449.237c-5.447,0.179-10.779,0.866-15.626,1.984
				c-64.234,14.823-36.435,106.21,23.811,91.523c28.773-7.014,55.558-48.896,35.138-76.725
				C192.917,453.042,175.459,448.701,159.118,449.237z M146.055,460.481c18.551,2.821,18.722,30.732-1.323,35.138
				c-28.577,6.28-39.508-27.573-7.689-34.725C140.441,460.131,143.405,460.078,146.055,460.481z"/>
		</g>
		<g id="g1196">
			<rect id="rect1185" x="175.239" y="372.398" style="fill:#FFFFFF;" width="164.032" height="187.843"/> 
			<rect id="path1186" x="175.239" y="372.398" style="fill:#404040;" width="164.032" height="187.843"/> 
			<path id="path1187" style="fill:#408080;" d="M320.751,478.226c-20.769,13.679-39.577,28.729-66.142,22.402
				c-48.49-11.549-45.905-63.612-10.583-87.961c6.815-4.698,17.345-12.466,26.007-8.539c11.048,5.009,21.607,27.295,36.637,21.947
				c13.021-4.633-1.946-24.238-7.363-28.757c-16.004-13.353-37.048-8.942-55.281-4.163c-55.212,14.475-79.214,75.16-38.681,121.862
				C242.52,557.85,308.988,527.179,320.751,478.226z"/>
		</g>
		<g id="g1526">
			<rect id="rect1516" x="184.41" y="611.172" style="fill:#FFFFFF;" width="185.197" height="317.48"/> 
			<path style="fill:#408080;" d="M258.489,645.565l-2.646,76.725l5.292-2.646v2.646l-2.646,126.992h-2.646l-5.292-34.394
				c-16.057,8.329-52.901,38.405-45.011,60.256c4.367,12.095,31.116,15.277,40.648,8.457c6.814-4.876,9.042-16.424,12.299-23.736
				c5.452,11.451,10.522,25.308,21.413,32.798c17.525,12.051,53.351,1.352,62.408-16.937c8.906-17.985,1.233-41.849,0.841-60.838
				l-15.874-2.646c12.682-20.629,36.354-46.086,21.141-71.432c-3.74-6.23-10.407-14.97-18.497-14.972
				c-19.382-0.004-36.979,34.861-57.065,11.933C251.224,713.081,269.912,672.788,258.489,645.565 M335.213,767.267
				c-5.576,1.61-10.822,3.28-15.874,6.263c-43.924,25.928,26.03,62.003,4.818,93.127c-14.773,21.676-47.187,1.963-51.407-17.374
				c-6.165-28.252,4.732-63.838,20.41-87.305C308.92,738.387,330.596,736.599,335.213,767.267z"/>
		</g>
		<g id="g1739">
			<rect id="rect1714" x="910.023" y="893.152" style="fill:#FFFFFF;" width="444.473" height="416.693"/> 
			<path id="path1715" style="fill:#404040;" d="M910.023,893.152v309.544c22.428,13.102,17.83,42.938,7.938,63.495l-3.969-15.874
				h-3.969v59.528h444.473V893.152h-27.779v19.843c-19.902-16.1-94.594-40.29-114.377-10.645
				c-10.68,16.006-4.679,47.723-4.679,66.203h-7.937l-11.905-63.496c-30.017,8.664-62.691,28.944-27.78,55.56v3.969
				c-37.319,32.622,18.622,63.006,3.767,102.89c-8.387,22.517-48.634,8.959-31.546-11.614v-3.969h-15.874l19.843-23.811
				c-2.745-14.238-11.724-25.755-14.606-39.686c-2.312-11.175,3.291-20.82,3.727-31.748c0.98-24.586-27.998-79.109-58.894-56.062
				c-10.892,8.126-16.865,25.561-25.471,36.219l-7.938-43.653H910.023z"/>
			<path style="fill:#8080BF;" d="M1033.046,893.152l7.938,43.653l35.717-39.685L1033.046,893.152 M1084.637,893.152v3.969
				c44.891,21.569,28.307,53.513,35.056,91.275c2.472,13.834,12.277,26.23,16.535,39.686l-19.843,23.811h15.874v3.969
				c-23.255,15.482,15.32,34.363,28.024,21.261c32.155-33.164-29.815-76.046-0.245-112.536v-3.969
				c-27.496-30.104-2.241-42.994,27.78-55.56l11.905,63.496h7.937l7.938-75.401H1084.637z"/>
			<polygon id="path1717" style="fill:#404040;" points="1167.976,893.152 1167.976,897.121 1183.85,897.121 "/>
			<polygon id="path1718" style="fill:#8080BF;" points="1310.842,893.152 1326.716,912.995 1326.716,893.152 "/>
			<path id="path1719" style="fill:#408080;" d="M1072.732,901.09c0,36.646,6.329,91.811-18.449,122.19
				c-15.733,19.29-40.949,28.67-56.952,48.455c43.266-12.493,88.976-51.555,109.816-91.275
				C1124.474,947.437,1109.151,911.318,1072.732,901.09z"/>
			<path style="fill:#8080BF;" d="M1223.535,912.995l7.938,63.496C1248.009,957.556,1251.79,921.913,1223.535,912.995 M1291,980.46
				c3.573-11.967,7.205-15.628,19.843-15.874l-39.686,71.433c55.337,19.451,42.511,104.375,39.328,150.803
				c-1.016,14.872-10.135,41.045,2.75,53.088c27.804,25.985,26.085-33.701,23.8-45.15c-16.696-83.684-18.248-176.724-18.256-261.921
				l-11.905,7.937C1278.807,912.554,1264.276,964.11,1291,980.46z"/>
			<polygon id="path1721" style="fill:#408080;" points="1060.827,960.617 1060.827,980.46 1064.794,980.46 "/>
			<polygon id="path1722" style="fill:#8080BF;" points="1191.787,1008.239 1215.598,1012.208 1211.629,992.365 "/>
			<polygon id="path1723" style="fill:#404040;" points="1306.874,996.334 1306.874,1020.145 1310.842,1020.145 "/>
			<path style="fill:#8080BF;" d="M945.74,1000.302l7.938,11.906L945.74,1000.302 M1187.819,1039.987l15.874-15.874
				L1187.819,1039.987 M949.708,1059.83v7.937h11.905v-7.937H949.708z"/>
			<path style="fill:#408080;" d="M1013.205,1083.641l3.968,103.181h3.969C1022.609,1152.636,1032.102,1114.983,1013.205,1083.641
				 M1132.259,1091.578l-7.937,47.622h-27.78v3.968c27.042,0.881,28.595,12.565,35.717,35.717
				c17.946-8.398,28.686-19.838,31.748-39.685h-23.811l19.842-15.875L1132.259,1091.578z"/>
			<path style="fill:#8080BF;" d="M1203.693,1095.546l11.905,11.906L1203.693,1095.546 M1060.827,1107.452
				c0,13.345-2.841,24.619,11.905,27.779L1060.827,1107.452 M1259.251,1119.357c-3.771,19.434-5.202,37.604-23.811,47.622
				l-7.938-31.748h-3.969l-27.779,19.842l-15.874-27.779c-5.923,11.499-21.319,26.03-19.147,39.686
				c2.203,13.851,17.047,24.938,24.886,35.717c20.944,28.794,37.827,60.355,57.758,7.937h7.938
				c2.009,10.821-0.195,53.479,12.735,55.871c16.034,2.968,13.827-23.565,12.729-32.06
				C1272.162,1198.731,1273.475,1152.329,1259.251,1119.357 M953.677,1123.325c-4.465,35.326-17.048,128.175,43.653,119.056
				C987.338,1201.822,979.339,1157.589,953.677,1123.325 M1092.575,1143.168l7.937,19.843l-11.905,3.969l15.874,103.181
				c47.008-4.304,26.265-43.495,24.938-75.401c-0.559-13.433,4.143-33.698-5.189-45.228
				C1117.291,1140.961,1102.287,1143.203,1092.575,1143.168z"/>
			<polygon id="path1727" style="fill:#408080;" points="910.023,1147.137 910.023,1159.042 913.992,1159.042 "/>
			<path id="path1728" style="fill:#8080BF;" d="M1064.794,1151.105l3.969,23.811L1064.794,1151.105z"/>
			<polygon id="path1729" style="fill:#404040;" points="1199.724,1166.979 1199.724,1194.759 1207.661,1166.979 "/>
			<path style="fill:#8080BF;" d="M1156.071,1194.759c-9.026,21.392-15.492,51.211,11.905,59.527
				C1173.378,1231.594,1174.582,1211.095,1156.071,1194.759 M910.023,1202.696l7.938,63.495
				c12.299-18.003,8.819-43.121,3.969-63.495H910.023 M1064.794,1210.633l-7.937,91.275
				C1098.591,1289.81,1077.058,1238.795,1064.794,1210.633z"/>
		</g>
		<g id="g1800">
			<rect id="rect1785" x="435.962" y="906.318" style="fill:#FFFFFF;" width="448.441" height="222.235"/> 
			<path id="path1786" style="fill:#8080BF;" d="M435.962,906.318c0,31.287-9.181,71.135,23.811,87.307l-3.969-31.748l19.843,11.905
				v-15.874l43.653-15.874c-17.03-30.576-51.846,8.632-63.496-35.716H435.962z"/>
			<path id="path1787" style="fill:#404040;" d="M455.804,906.318c7.391,46.363,40.584,9.695,63.496,35.716l-43.653,15.874v15.874
				l-19.843-11.905l3.969,31.748l-23.811-15.874l7.937,67.465c-16.847,14.722-7.937,61.885-7.937,83.338h253.984l126.992-3.968
				l11.905-47.622c27.098,26.434,7.259,51.553,55.56,51.59v-15.873c-16.668-8.871-14.822-17.818,0-27.78l-11.905-27.779
				l11.905,7.938l-7.938-27.78c12.906-17.036,19.335-121.501-4.556-129.239c-31.339-10.151-77.663-1.721-110.531-1.721
				C663.512,906.318,551.35,921.482,455.804,906.318z"/>
			<path style="fill:#8080BF;" d="M467.709,906.318v3.968l19.843,3.969L467.709,906.318 M879.113,907.641l2.643,1.323
				L879.113,907.641z"/>
			<path style="fill:#408080;" d="M749.474,1005.53c-14.638,4.154-29.287,8.234-43.654,13.274
				c-49.857,17.491-50.613,66.478,7.937,71.16c18.023,1.442,31.542-17.607,43.654-28.144c23.21-20.19,95.038-42.345,80.33-84.067
				c-9.843-27.929-75.57-60.556-96.094-26.876C731.284,967.883,742.949,989.516,749.474,1005.53 M515.408,988.278
				c-46.96,15.371,2.193,80.983,39.593,70.417C622.996,1039.484,570.317,970.307,515.408,988.278z"/>
			<path id="path1790" style="fill:#808080;" d="M435.962,1033.311l7.937,11.905L435.962,1033.311z"/>
			<path style="fill:#8080BF;" d="M880.434,1033.311l-3.969,7.937h7.938L880.434,1033.311 M872.498,1057.121l11.905,23.812
				L872.498,1057.121 M463.741,1080.933h23.811C479.814,1066.99,469.34,1064.252,463.741,1080.933 M828.843,1076.964l-15.874,51.59
				h35.716l-11.905-51.59H828.843 M880.434,1084.9c-15.08,11.035-14.58,22.108,3.969,27.78L880.434,1084.9 M503.426,1124.586v3.968
				H519.3L503.426,1124.586z"/>
		</g>
		<g id="g1921">
			<rect id="rect1878" x="1368.743" y="506.531" style="fill:#FFFFFF;" width="710.362" height="472.252"/> 
			<path id="path1879" style="fill:#404040;" d="M1370.065,509.177l1.323,2.646L1370.065,509.177z"/>
			<path id="path1880" style="fill:#8080BF;" d="M1372.71,800.2c39.058-12.336,7.107-50.337,10.479-75.401
				c3.229-23.998,17.889-46.325,21.27-71.434l-23.811,15.874c26.224-46.133,18.354-111.685,11.905-162.708
				c-39.793,3.173-14.746,41.742-19.104,66.331C1361.265,641.61,1361.784,731.499,1372.71,800.2z"/>
			<path id="path1881" style="fill:#404040;" d="M1392.553,506.531c4.455,56.446,9.952,109.418-11.905,162.708l23.811-15.874
				l-7.937,47.622l59.527-35.716v-3.969h-39.685v-3.969l63.496-11.905v-3.969c-21.209,0.38-96.781-8.898-43.654-35.717l-7.937-51.59
				h-15.874l59.527-35.717l-15.874,63.496c24.231,1.809,26.753,14.767,3.969,23.811v3.969l35.717,27.779
				c21.397-13.764,34.075-58.6,35.716-83.338c-18.064-10.554-15.861-28.568-15.874-47.622H1392.553z"/>
			<path id="path1882" style="fill:#8080BF;" d="M1515.577,506.531c0.002,18.239-4.313,40.523,15.874,47.622
				c-10.517,80.746-51.144,79.191-115.086,103.181v3.969c82.181,0,132.865-60.805,214.299-67.465l-19.843-87.307h-43.653v63.496
				h-3.969l-3.968-63.496H1515.577z"/>
			<path style="fill:#404040;" d="M1559.231,506.531l3.968,63.496h3.969v-63.496H1559.231 M1610.821,506.531
				c0.085,30.665,3.535,60.829,19.843,87.307c-31.917,1.392-97.971,5.833-99.213,43.653l11.906-3.968
				c20.415,85.989-86.329,111.075-150.804,111.118c-0.001,14.051,3.546,56.729-19.843,47.622h-3.968v23.811l15.874,3.969
				c30.704-62.282,143.396-8.786,166.677,35.716l23.812,3.969l11.905-27.779l-35.717-3.969v-3.968
				c43.503-13.671,77.366,13.763,103.181,47.622l-54.655-28.451l-16.6,32.419l-4.146,103.182h138.897
				c-0.06-90.692-16.974-162.305,29.017-246.048c25.606-46.627,87.86-115.28,113.851-27.779
				c-15.133,5.54-66.247,27.365-54.921,50.359c6.913,14.027,34.034,12.968,46.983,13.121c33.173,0.396,98.192-8.831,126.19,11.677
				c12.715,9.313,6.009,33.724,7.607,47.866c5.611,49.561,9.064,100.959,9.068,150.804h27.779l-5.651-130.961l4.076-65.425
				l57.135-13.945v-7.937l-19.843-11.906l15.874-7.937c-15.906-10.684-29.819-16.515-47.622-7.938l-15.874-95.244h-19.843v-3.968
				l28.01-26.028l48.979-22.497l10.318-78.467c-51.801,0-89.51,14.881-137.215,30.385c-19.804,6.438-46.385,1.439-62.798,17.216
				c-18.783,18.051-3.917,57.405-23.927,72.796c-19.16,14.736-33.823-29.012-53.856-1.342l-15.874-23.811h43.654l-7.938-51.591
				l-23.811-11.905c0.139,6.726,0.428,13.247,1.114,19.94c0.513,4.992,3.921,28.39-7.873,25.177
				c-7.147-1.947-4.246-19.834-5.088-25.275c-4.032-26.095-2.437-44.232,27.72-47.622
				C1761.119,488.639,1667.614,506.531,1610.821,506.531z"/>
			<path id="path1884" style="fill:#8080BF;" d="M1797.341,538.279l23.811,11.905l7.938,51.591h-43.654l15.874,23.811
				c23.597-21.549,33.217,17.074,53.856,3.781c19.799-12.751,7.401-54.745,23.927-72.639c15.132-16.392,41.407-13.813,61.114-18.232
				c30.975-6.944,58.817-21.949,91.276-27.997v-3.968l-111.118,1.292l-95.244,26.487l31.748-23.812
				c-17.271-6.809-63.1-7.347-72.457,12.812c-4.044,8.711-5.048,60.639,5.738,62.901
				C1807.274,589.808,1797.682,546.229,1797.341,538.279z"/>
			<path style="fill:#404040;" d="M1825.121,506.531v3.968h11.905L1825.121,506.531 M1825.121,534.311l91.275-23.812
				C1888.033,498.598,1840.447,505.727,1825.121,534.311z"/>
			<path style="fill:#8080BF;" d="M1702.097,510.499l15.873,63.496l-7.937-23.811h-3.969l-7.937,19.843l-19.843-39.686
				l-31.748,63.496l119.056-11.905l-19.843-43.653l7.937-11.906c-19.307,3.497-30.91-0.973-43.653-15.874H1702.097
				 M1412.396,554.153h15.874c1.486,11.761,0.18,35.348,8.047,44.535c18.781,21.931,69.409-15.104,19.732-16.756l15.874-63.496
				C1448.085,520.6,1425.329,533.761,1412.396,554.153z"/>
			<path style="fill:#404040;" d="M1741.782,534.311l3.969,3.969L1741.782,534.311 M1368.743,550.185v27.779h7.937L1368.743,550.185
				z"/>
			<path id="path1888" style="fill:#8080BF;" d="M2075.136,558.121c-2.909,38.568-57.916,49.938-83.339,75.402v3.968h19.843
				l15.874,95.244l47.622,7.938l-15.874,7.937l19.843,11.906v-79.37h-3.969v39.685l-19.843-11.905l3.969,11.905
				c-43.947-34.838-21.101-90.86,15.874-119.055v15.874h3.969L2075.136,558.121z"/>
			<rect id="path1889" x="1440.175" y="589.869" style="fill:#404040;" width="7.938" height="7.938"/> 
			<path id="path1890" style="fill:#408080;" d="M1495.735,637.491c-7.155-24.164-46.814-46.227-70.172-28.245
				c-21.633,16.655,0.95,32.676,18.584,34.125c6.713,0.552,13.175-0.146,19.84-0.852
				C1474.792,641.376,1485.167,640.015,1495.735,637.491z"/>
			<path id="path1891" style="fill:#404040;" d="M2071.167,601.775c-31.704,24.239-59.535,94.06-11.905,119.055l-3.969-11.905
				l19.843,11.905C2075.16,683.468,2089.566,636.382,2071.167,601.775z"/>
			<path id="path1892" style="fill:#8080BF;" d="M1662.412,605.743c0.599,72.337,48.918,61.035,103.182,43.654l-3.969-43.654
				H1662.412z"/>
			<path id="path1893" style="fill:#408080;" d="M1646.538,617.649l15.874,35.716L1646.538,617.649z"/>
			<polygon id="path1894" style="fill:#8080BF;" points="1956.081,621.617 1956.081,625.586 1967.987,625.586 "/>
			<path style="fill:#408080;" d="M1527.483,625.586c-38.566,40.548-161.44,42.158-142.866,123.023
				c46.355-8.765,197.367-19.324,161.386-106.708C1543.175,635.035,1532.501,631.474,1527.483,625.586 M1934.917,630.877
				l2.644,1.323L1934.917,630.877z"/>
			<polygon id="path1896" style="fill:#8080BF;" points="1860.837,641.46 1876.71,712.894 1912.427,641.46 "/>
			<path id="path1897" style="fill:#408080;" d="M1710.034,816.074l27.779-7.937c7.542-22.12,22.154-32.172,43.653-39.686
				l-7.937,31.748c56.162,0.155,108.479,21.304,166.677,19.784c16.648-0.435,53.802-5.675,48.15-31.136
				c-3.242-14.605-24.482-15.608-36.244-16.287c-38.515-2.224-81.196,0.756-119.056-5.87c-37.776-6.611-24.22-29.996,0.008-45.644
				c9.017-5.822,18.312-11.055,27.772-16.092c-7.112-39.268-42.785-61.222-75.033-30.998
				C1747.856,709.527,1725.81,767.671,1710.034,816.074z"/>
			<path id="path1898" style="fill:#404040;" d="M1416.365,712.894v3.968l99.212-23.811
				C1487.436,682.983,1444.537,706.376,1416.365,712.894z"/>
			<path style="fill:#8080BF;" d="M1904.491,712.894v3.968h19.843L1904.491,712.894 M1960.049,708.925v19.843h7.938v-19.843
				H1960.049 M1967.987,756.547l35.716,15.874l3.969-27.779L1967.987,756.547z"/>
			<polygon id="path1900" style="fill:#404040;" points="1368.743,748.609 1368.743,784.326 1372.71,784.326 1376.679,748.609 "/>
			<path id="path1901" style="fill:#408080;" d="M1555.262,796.231l47.622-16.621l95.244,0.747
				C1665.569,755.563,1580.625,765.015,1555.262,796.231z"/>
			<path style="fill:#8080BF;" d="M1710.034,816.074l7.937,162.709h19.843l-7.937-142.866l166.677-11.905v-3.969L1773.53,800.2
				l7.937-31.748L1710.034,816.074 M2075.136,768.452l-53.166,11.342l-6.207,52.154l7.782,146.835h3.969l3.969-111.118l6.361-45.228
				l41.261-6.363L2075.136,768.452 M1698.128,772.421l-3.969,11.905l-31.748,3.969c18.247,13.807,39.896,7.137,43.653-15.874
				H1698.128z"/>
			<path id="path1903" style="fill:#408080;" d="M1551.293,927.192c34.5-82.218-69.892-161.685-146.761-130.373
				c-26.857,10.94-27.984,80.553-9.585,100.358C1431.722,936.761,1531.549,858.551,1551.293,927.192z"/>
			<polygon id="path1904" style="fill:#8080BF;" points="1551.293,792.264 1547.325,808.138 1571.136,808.138 1571.136,800.2 "/>
			<path style="fill:#404040;" d="M1789.404,800.2v3.969h19.843L1789.404,800.2 M1728.553,805.491l2.646,1.323L1728.553,805.491z"/>
			<path style="fill:#8080BF;" d="M1666.38,935.129h3.969c0-33.049-8.537-81.392,15.873-107.149
				c-5.856-14.924-29.428-27.636-34.096-3.732C1647.342,848.742,1659.146,910.655,1666.38,935.129 M1960.049,816.074v3.969
				c34.113,19.93,19.184,122.139,23.812,158.74h11.905l-11.905-166.678L1960.049,816.074 M1368.743,816.074v162.709h23.811
				l-15.874-23.812v-3.969c25.791-31.506,12.965-98.41,3.969-134.929H1368.743 M1551.293,824.012v3.968h51.591
				C1586.73,813.935,1570.133,816.074,1551.293,824.012z"/>
			<path style="fill:#404040;" d="M2027.514,978.783h51.591V816.074l-41.261,4.079l-6.361,43.543L2027.514,978.783
				 M1729.876,835.917l3.295,99.212l4.752,37.292l63.386,6.362h182.552l-6.807-111.118l-5.81-41.259l-62.786-6.009L1729.876,835.917
				z"/>
			<path id="path1908" style="fill:#408080;" d="M1579.073,827.979v3.969l7.938,3.969c-20.603,21.067-15.949,44.293-15.874,71.433
				h3.969c4.481-14.332,8.603-61.935,28.211-62.183c17.297-0.219,33.996,21.791,51.158,26.467
				C1637.931,839.766,1613.753,828.079,1579.073,827.979z"/>
			<polygon id="path1909" style="fill:#404040;" points="1368.743,851.791 1368.743,891.476 1372.71,891.476 "/>
			<path style="fill:#8080BF;" d="M1559.231,851.791l-11.906,126.992h31.748l-11.905-126.992H1559.231 M1801.309,875.602v7.938
				h7.938v-7.938H1801.309z"/>
			<path style="fill:#404040;" d="M1388.584,899.413l-11.905,51.59v3.969l15.874,23.812h27.779V907.35L1388.584,899.413
				 M1428.27,907.35c3.215,17.314-2.213,51.356,8.647,65.071c14.301,18.058,88.361,6.362,110.407,6.362
				c3.468-18.676,11.444-53.789-2.395-69.711C1524.914,886.036,1454.156,901.188,1428.27,907.35 M1368.743,907.35l3.968,3.969
				L1368.743,907.35z"/>
			<path id="path1912" style="fill:#8080BF;" d="M1420.333,907.35c-4.201,22.633-14.521,66.155,15.874,71.434L1420.333,907.35z"/>
		</g>
		<g id="g2015">
			<rect id="rect1994" x="1365.036" y="24.867" style="fill:#FFFFFF;" width="313.513" height="472.252"/> 
			<path id="path1995" style="fill:#404040;" d="M1365.036,24.867v472.252h301.606l6.373-134.929l-26.215-47.622l19.842,19.843
				c13.58-22.705,0.67-46.863,0.059-71.434c-1.145-45.977,41.941-162.47-7.995-190.488v-7.937l19.843-3.969V24.867
				c-34.475,0-69.396,8.382-103.182,7.567c-19.781-0.478-37.599-15.042-51.591,4.339
				C1485.606,10.225,1410.344,24.867,1365.036,24.867z"/>
			<path id="path1996" style="fill:#8080BF;" d="M1511.871,24.867c6.271,8.517,9.771,8.614,15.874,0H1511.871z"/>
			<polygon id="path1997" style="fill:#408080;" points="1551.556,24.867 1551.556,28.836 1615.052,28.836 "/>
			<path style="fill:#8080BF;" d="M1674.58,28.836v19.843h3.969L1674.58,28.836 M1460.28,52.647
				C1500.076,108.475,1517.281,35.962,1460.28,52.647 M1428.532,56.615v103.182h7.938c0.572-13.325,14.288-90.949,27.779-47.622
				c43.407-6.948-1.995-27.763-23.811-27.779v-27.78H1428.532z"/>
			<polygon id="path1999" style="fill:#408080;" points="1642.832,56.615 1638.863,151.859 1654.737,147.892 1650.768,56.615 "/>
			<path style="fill:#8080BF;" d="M1658.706,64.553v7.937l19.843,11.906V60.584L1658.706,64.553 M1662.673,108.206l-7.937,39.686
				C1666.441,136.43,1669.075,123.501,1662.673,108.206 M1650.768,179.64l15.874-11.906L1650.768,179.64 M1674.58,183.607
				l-7.879,83.339l-0.059,67.465l-19.842-19.843l26.215,51.591l-6.373,130.96h11.906l-2.939-255.312L1674.58,183.607
				 M1595.209,191.545v7.937c16.206,6.975,25.228,5.084,31.748-11.905L1595.209,191.545z"/>
			<path id="path2001" style="fill:#808080;" d="M1433.824,194.19l1.322,2.646L1433.824,194.19z"/>
			<path style="fill:#8080BF;" d="M1499.965,195.514c-21.196,27.07-75.788,23.864-87.729,52.007
				c-12.933,30.475-6.978,126.815,11.765,153.782c13.733,19.762,66.584,24.352,86.149,11.217
				c14.69-9.863,2.607-28.585,12.943-39.921c11.249-12.338,34.335,14.338,38.751-7.046c7.35-35.591-33.721-32.13-43.61-55.482
				c-13.44-31.737-1.712-79.567-10.332-114.557H1499.965 M1567.43,215.355l7.937,123.024l31.748-7.938l7.938,47.622h7.937
				c7.309-24.052,21.366-79.38,7.827-102.336c-7.58-12.852-25.22-18.125-35.606-28.625l55.559-3.968
				C1634.029,215.904,1596.625,215.598,1567.43,215.355z"/>
			<path style="fill:#404040;" d="M1670.611,231.229v11.906h7.938v-11.906H1670.611 M1603.146,278.852v27.78l23.812-19.843
				L1603.146,278.852 M1539.65,338.38l15.874,19.842L1539.65,338.38z"/>
			<path id="path2004" style="fill:#8080BF;" d="M1575.367,370.127c4.128,26.106,23.169,20.213,37.609,36.963
				c9.1,10.557,1.875,26.081,10.136,35.967c16.752,20.049,27.321-18.934,27.656-29.275l-51.59-43.654l-11.906,7.938h-3.968
				L1575.367,370.127z"/>
			<path style="fill:#404040;" d="M1456.312,389.97l-3.969,3.969l11.905,7.937L1456.312,389.97 M1476.154,393.938l3.969,15.874
				h7.938l3.968-3.969v-7.937L1476.154,393.938z"/>
			<path id="path2006" style="fill:#8080BF;" d="M1626.958,473.309l7.937,15.874L1626.958,473.309z"/>
		</g>
		<g id="g2065">
			<rect id="rect2048" x="1023.57" y="18.798" style="fill:#FFFFFF;" width="309.544" height="769.89"/> 
			<path id="path2049" style="fill:#8080BF;" d="M1023.57,18.798c0,122.109,7.938,242.947,7.938,365.102
				c0,38.201,8.18,81.764,3.087,119.056c-5.14,37.633,0.94,74.267-4.189,111.118c-1.791,12.865,13.722,29.307-6.835,31.748v15.874
				c21.414,2.798,11.153,38.637,3.969,51.59v3.969l14.852,67.354l76.424,4.08h214.3c0-193.925-8.677-389.714-27.105-583.37
				c-4.375-45.965-0.362-93.022-5.775-138.897c-1.349-11.43,0.587-35.794-9.199-43.544c-14.646-11.599-55.096-4.078-73.007-4.078
				H1023.57z"/>
			<polygon id="path2050" style="fill:#404040;" points="1293.428,18.798 1305.689,205.317 1329.145,558.514 1333.114,558.514 
				1325.176,18.798 "/>
			<polygon id="path2051" style="fill:#404080;" points="1325.176,18.798 1325.176,50.546 1329.145,50.546 "/>
			<polygon id="path2052" style="fill:#8080BF;" points="1329.145,18.798 1329.145,102.136 1333.114,102.136 "/>
			<path id="path2053" style="fill:#404040;" d="M1039.444,38.64c0,62.828-8.107,148.613,19.843,206.362
				c7.627-2.977,15.748-7.833,23.829-9.327c57.496-10.628,30.612,73.489,42.613,100.016c17.354,38.361,47.911-9.195,53.121-27.192
				c3.863-13.344,6.616-26.59,11.397-39.685l-11.905-3.969l7.937-27.779l23.812,3.969l39.685,63.496l-11.905,3.968v3.969h15.874
				c0.018,26.854,13.522,63.324-7.938,83.339v-55.56h-7.937c-5.325,26.391-25.021,39.496-47.622,51.591l39.685-51.591l-3.968-3.968
				l-83.259,29.993l-25.949,31.288l-61.438,10.151c10.988,16.882,29.959,8.429,47.622,7.996c46.749-1.146,92.169-0.06,138.898-0.06
				c13.118,0,41.617,5.33,50.88-6.363c12.504-15.787,4.679-57.755,4.679-76.975c0-72.846-7.909-145.481-7.937-218.268
				c-0.007-17.927,4.171-79.849-13.627-88.882c-19.403-9.847-56.923-2.004-77.649,0.441
				C1146.634,31.684,1091.336,37.569,1039.444,38.64z"/>
			<rect id="path2054" x="1110.877" y="78.325" style="fill:#8080BF;" width="7.937" height="7.937"/> 
			<polygon id="path2055" style="fill:#408080;" points="1329.145,102.136 1329.145,121.979 1333.114,121.979 "/>
			<path style="fill:#404040;" d="M1023.57,145.79v341.291l3.969,162.708h3.969l0.156-119.055l-2.992-297.638L1023.57,145.79
				 M1063.255,324.372h3.969l7.937-55.559C1052.828,280.835,1053.187,303.422,1063.255,324.372 M1055.318,479.144l3.969,198.426
				l10.332,77.33l69.038,14.299l170.646,7.583l-3.965-210.33l-10.335-79.263l-69.038-8.045H1055.318 M1329.145,590.262v31.748h3.969
				L1329.145,590.262 M1329.145,653.758v39.686h3.969L1329.145,653.758 M1027.539,657.727l-3.969,130.961h15.874l-11.905-71.434
				v-3.969C1038.36,697.447,1039.216,673.141,1027.539,657.727z"/>
		</g>
		<g id="g2075">
			<rect id="rect2076" x="482.988" y="95.011" style="fill:#FFFFFF;" width="309.543" height="769.89"/> 
			<path id="path2077" style="fill:#8080BF;" d="M482.988,95.011c0,122.11,7.937,242.947,7.937,365.103
				c0,38.2,8.18,81.763,3.087,119.055c-5.14,37.634,0.941,74.267-4.189,111.118c-1.792,12.866,13.722,29.308-6.835,31.748v15.874
				c21.414,2.798,11.153,38.638,3.969,51.591v3.968l14.851,67.354l76.424,4.08h214.299c0-193.925-8.677-389.714-27.105-583.37
				c-4.375-45.965-0.362-93.022-5.775-138.897c-1.349-11.43,0.587-35.793-9.199-43.543c-14.646-11.6-55.096-4.079-73.007-4.079
				H482.988z"/>
			<polygon id="path2078" style="fill:#404040;" points="752.847,95.011 765.107,281.53 788.563,634.728 792.532,634.728 
				784.595,95.011 "/>
			<polygon id="path2079" style="fill:#404080;" points="784.595,95.011 784.595,126.759 788.563,126.759 "/>
			<polygon id="path2080" style="fill:#8080BF;" points="788.563,95.011 788.563,178.35 792.532,178.35 "/>
			<path id="path2081" style="fill:#404040;" d="M498.862,114.854c0,62.827-8.108,148.612,19.843,206.362
				c7.626-2.978,15.747-7.833,23.829-9.327c57.496-10.628,30.612,73.488,42.613,100.015c17.355,38.361,47.911-9.195,53.122-27.192
				c3.863-13.344,6.616-26.59,11.397-39.685l-11.905-3.969l7.937-27.779l23.811,3.969l39.685,63.496l-11.906,3.968v3.969h15.874
				c0.018,26.854,13.523,63.324-7.937,83.339v-55.56h-7.937c-5.325,26.392-25.02,39.496-47.622,51.591l39.685-51.591l-3.968-3.968
				l-83.259,29.993l-25.949,31.288l-61.438,10.151c10.988,16.882,29.959,8.43,47.622,7.997c46.749-1.146,92.168-0.06,138.898-0.06
				c13.119,0,41.618,5.329,50.88-6.363c12.503-15.787,4.679-57.756,4.679-76.976c0-72.846-7.909-145.481-7.937-218.268
				c-0.007-17.927,4.171-79.848-13.626-88.881c-19.403-9.848-56.923-2.005-77.649,0.44
				C606.053,107.897,550.754,113.782,498.862,114.854z"/>
			<rect id="path2082" x="570.295" y="154.538" style="fill:#8080BF;" width="7.937" height="7.938"/> 
			<polygon id="path2083" style="fill:#408080;" points="788.563,178.35 788.563,198.191 792.532,198.191 "/>
			<path style="fill:#404040;" d="M482.988,222.003v341.291l3.969,162.709h3.968l0.156-119.056L488.09,309.31L482.988,222.003
				 M522.673,400.585h3.969l7.937-55.559C512.245,357.048,512.605,379.635,522.673,400.585 M514.736,555.357l3.969,198.425
				l10.332,77.33l69.039,14.299l170.646,7.584l-3.965-210.331l-10.335-79.263l-69.038-8.044H514.736 M788.563,666.476v31.748h3.969
				L788.563,666.476 M788.563,729.972v39.685h3.969L788.563,729.972 M486.957,733.939L482.988,864.9h15.874l-11.905-71.434v-3.968
				C497.778,773.66,498.635,749.354,486.957,733.939z"/>
			<path style="fill:#408080;" d="M569.925,66.275l-3.969,115.087l7.937-3.969v3.969l-3.968,190.487h-3.969l-7.937-51.59
				c-24.085,12.494-79.351,57.607-67.517,90.384c6.551,18.143,46.674,22.916,60.973,12.686
				c10.221-7.313,13.562-24.636,18.449-35.605c8.177,17.178,15.783,37.963,32.119,49.197c26.288,18.077,80.026,2.028,93.612-25.404
				c13.359-26.978,1.849-62.772,1.262-91.257l-23.811-3.969c19.023-30.942,54.531-69.129,31.711-107.146
				c-5.609-9.346-15.61-22.455-27.746-22.458c-29.073-0.005-55.468,52.292-85.599,17.898
				C559.028,167.548,587.06,107.109,569.925,66.275 M685.012,248.826c-8.364,2.415-16.233,4.922-23.811,9.395
				c-65.886,38.892,39.045,93.004,7.227,139.69c-22.159,32.514-70.78,2.945-77.11-26.062c-9.247-42.378,7.098-95.756,30.615-130.957
				C645.572,205.506,678.085,202.824,685.012,248.826z"/>
			<path id="path2086" style="fill:#408080;" d="M695.211,777.943c-31.153,20.518-59.365,43.094-99.213,33.604
				c-72.735-17.323-68.858-95.419-15.874-131.94c10.224-7.047,26.018-18.698,39.011-12.809
				c16.573,7.513,32.411,40.941,54.956,32.921c19.532-6.95-2.919-36.357-11.045-43.137c-24.006-20.027-55.572-13.413-82.922-6.243
				c-82.818,21.711-118.821,112.739-58.021,182.793C577.865,897.38,677.567,851.374,695.211,777.943z"/>
			<path style="fill:#408080;" d="M603.236,697.088c-5.447,0.179-10.779,0.948-15.626,2.067
				c-64.234,14.823-36.435,106.127,23.811,91.44c28.773-7.014,55.558-48.897,35.138-76.725
				C637.035,700.893,619.577,696.552,603.236,697.088z M607.288,727.761c18.551,2.822,18.639,30.733-1.406,35.139
				c-28.577,6.28-39.508-27.49-7.689-34.643C601.591,727.493,604.637,727.358,607.288,727.761z"/>
			<path id="path2088" style="fill:#408080;" d="M698.999,630.936c0,36.646,6.33,91.812-18.449,122.19
				c-15.733,19.29-40.949,28.67-56.952,48.455c43.266-12.493,88.975-51.555,109.817-91.275
				C750.741,677.282,735.418,641.164,698.999,630.936z"/>
			<path id="path2090" style="fill:#408080;" d="M672.666,650.232c34.5-82.218-69.892-161.686-146.761-130.373
				c-26.857,10.939-27.984,80.553-9.584,100.357C553.094,659.8,652.921,581.591,672.666,650.232z"/>
			<path id="path2093" style="fill:#408080;" d="M621.01,0l16.178,23.937c-8.441,21.792-3.708,38.885,7.932,58.46l14.327-29.422
				c43.122,35.981,96.793,53.409,140.399,91.982c12.474,11.034,37.566,38.93,16.871,54.801c-11.872,9.105-28.787-3.779-38.234-10.82
				c-30.933-23.053-61.713-52.771-94.975-72.03c-33.188-19.217-37.834,7.41-29.333,34.971c3.165,10.255,6.921,20.238,10.931,30.178
				c-30.688,25.51-72.127,19.397-77.403-24.484C581.496,105.932,601.982,47.22,621.01,0z"/>
		</g>
	</svg>
